G04 #@! TF.GenerationSoftware,KiCad,Pcbnew,6.0.2+dfsg-1*
G04 #@! TF.CreationDate,2025-06-30T22:41:18+02:00*
G04 #@! TF.ProjectId,2600cart,32363030-6361-4727-942e-6b696361645f,rev?*
G04 #@! TF.SameCoordinates,Original*
G04 #@! TF.FileFunction,Soldermask,Bot*
G04 #@! TF.FilePolarity,Negative*
%FSLAX46Y46*%
G04 Gerber Fmt 4.6, Leading zero omitted, Abs format (unit mm)*
G04 Created by KiCad (PCBNEW 6.0.2+dfsg-1) date 2025-06-30 22:41:18*
%MOMM*%
%LPD*%
G01*
G04 APERTURE LIST*
G04 Aperture macros list*
%AMRoundRect*
0 Rectangle with rounded corners*
0 $1 Rounding radius*
0 $2 $3 $4 $5 $6 $7 $8 $9 X,Y pos of 4 corners*
0 Add a 4 corners polygon primitive as box body*
4,1,4,$2,$3,$4,$5,$6,$7,$8,$9,$2,$3,0*
0 Add four circle primitives for the rounded corners*
1,1,$1+$1,$2,$3*
1,1,$1+$1,$4,$5*
1,1,$1+$1,$6,$7*
1,1,$1+$1,$8,$9*
0 Add four rect primitives between the rounded corners*
20,1,$1+$1,$2,$3,$4,$5,0*
20,1,$1+$1,$4,$5,$6,$7,0*
20,1,$1+$1,$6,$7,$8,$9,0*
20,1,$1+$1,$8,$9,$2,$3,0*%
G04 Aperture macros list end*
%ADD10RoundRect,0.200000X-0.762000X-2.286000X0.762000X-2.286000X0.762000X2.286000X-0.762000X2.286000X0*%
%ADD11C,2.000000*%
%ADD12RoundRect,0.200000X-0.800000X0.800000X-0.800000X-0.800000X0.800000X-0.800000X0.800000X0.800000X0*%
%ADD13O,2.000000X2.000000*%
G04 APERTURE END LIST*
D10*
X95504000Y-90170000D03*
X98044000Y-90170000D03*
X100584000Y-90170000D03*
X103124000Y-90170000D03*
X105664000Y-90170000D03*
X108204000Y-90170000D03*
X110744000Y-90170000D03*
X113284000Y-90170000D03*
X115824000Y-90170000D03*
X118364000Y-90170000D03*
X120904000Y-90170000D03*
X123444000Y-90170000D03*
D11*
X123444000Y-59690000D03*
X123444000Y-57190000D03*
D12*
X117094000Y-54610000D03*
D13*
X101854000Y-62230000D03*
X114554000Y-54610000D03*
X104394000Y-62230000D03*
X112014000Y-54610000D03*
X106934000Y-62230000D03*
X109474000Y-54610000D03*
X109474000Y-62230000D03*
X106934000Y-54610000D03*
X112014000Y-62230000D03*
X104394000Y-54610000D03*
X114554000Y-62230000D03*
X101854000Y-54610000D03*
X117094000Y-62230000D03*
D12*
X95504000Y-50800000D03*
D13*
X123444000Y-66040000D03*
X98044000Y-50800000D03*
X120904000Y-66040000D03*
X100584000Y-50800000D03*
X118364000Y-66040000D03*
X103124000Y-50800000D03*
X115824000Y-66040000D03*
X105664000Y-50800000D03*
X113284000Y-66040000D03*
X108204000Y-50800000D03*
X110744000Y-66040000D03*
X110744000Y-50800000D03*
X108204000Y-66040000D03*
X113284000Y-50800000D03*
X105664000Y-66040000D03*
X115824000Y-50800000D03*
X103124000Y-66040000D03*
X118364000Y-50800000D03*
X100584000Y-66040000D03*
X120904000Y-50800000D03*
X98044000Y-66040000D03*
X123444000Y-50800000D03*
X95504000Y-66040000D03*
M02*
