G04 #@! TF.GenerationSoftware,KiCad,Pcbnew,6.0.2+dfsg-1*
G04 #@! TF.CreationDate,2025-06-30T22:41:18+02:00*
G04 #@! TF.ProjectId,2600cart,32363030-6361-4727-942e-6b696361645f,rev?*
G04 #@! TF.SameCoordinates,Original*
G04 #@! TF.FileFunction,Copper,L2,Bot*
G04 #@! TF.FilePolarity,Positive*
%FSLAX46Y46*%
G04 Gerber Fmt 4.6, Leading zero omitted, Abs format (unit mm)*
G04 Created by KiCad (PCBNEW 6.0.2+dfsg-1) date 2025-06-30 22:41:18*
%MOMM*%
%LPD*%
G01*
G04 APERTURE LIST*
G04 #@! TA.AperFunction,ConnectorPad*
%ADD10R,1.524000X4.572000*%
G04 #@! TD*
G04 #@! TA.AperFunction,ComponentPad*
%ADD11C,1.600000*%
G04 #@! TD*
G04 #@! TA.AperFunction,ComponentPad*
%ADD12R,1.600000X1.600000*%
G04 #@! TD*
G04 #@! TA.AperFunction,ComponentPad*
%ADD13O,1.600000X1.600000*%
G04 #@! TD*
G04 #@! TA.AperFunction,Conductor*
%ADD14C,0.500000*%
G04 #@! TD*
G04 #@! TA.AperFunction,Conductor*
%ADD15C,0.250000*%
G04 #@! TD*
G04 APERTURE END LIST*
D10*
X95504000Y-90170000D03*
X98044000Y-90170000D03*
X100584000Y-90170000D03*
X103124000Y-90170000D03*
X105664000Y-90170000D03*
X108204000Y-90170000D03*
X110744000Y-90170000D03*
X113284000Y-90170000D03*
X115824000Y-90170000D03*
X118364000Y-90170000D03*
X120904000Y-90170000D03*
X123444000Y-90170000D03*
D11*
X123444000Y-59690000D03*
X123444000Y-57190000D03*
D12*
X117094000Y-54610000D03*
D13*
X101854000Y-62230000D03*
X114554000Y-54610000D03*
X104394000Y-62230000D03*
X112014000Y-54610000D03*
X106934000Y-62230000D03*
X109474000Y-54610000D03*
X109474000Y-62230000D03*
X106934000Y-54610000D03*
X112014000Y-62230000D03*
X104394000Y-54610000D03*
X114554000Y-62230000D03*
X101854000Y-54610000D03*
X117094000Y-62230000D03*
D12*
X95504000Y-50800000D03*
D13*
X123444000Y-66040000D03*
X98044000Y-50800000D03*
X120904000Y-66040000D03*
X100584000Y-50800000D03*
X118364000Y-66040000D03*
X103124000Y-50800000D03*
X115824000Y-66040000D03*
X105664000Y-50800000D03*
X113284000Y-66040000D03*
X108204000Y-50800000D03*
X110744000Y-66040000D03*
X110744000Y-50800000D03*
X108204000Y-66040000D03*
X113284000Y-50800000D03*
X105664000Y-66040000D03*
X115824000Y-50800000D03*
X103124000Y-66040000D03*
X118364000Y-50800000D03*
X100584000Y-66040000D03*
X120904000Y-50800000D03*
X98044000Y-66040000D03*
X123444000Y-50800000D03*
X95504000Y-66040000D03*
D14*
X95504000Y-72390000D02*
X95504000Y-66040000D01*
X104394000Y-62230000D02*
X104394000Y-59690000D01*
X109474000Y-62230000D02*
X109474000Y-59690000D01*
X106934000Y-54610000D02*
X106934000Y-59690000D01*
X112014000Y-54610000D02*
X112014000Y-59690000D01*
X117094000Y-54610000D02*
X117094000Y-59690000D01*
X117094000Y-62230000D02*
X117094000Y-59690000D01*
X123444000Y-59690000D02*
X117094000Y-59690000D01*
X117094000Y-59690000D02*
X112014000Y-59690000D01*
X112014000Y-59690000D02*
X109474000Y-59690000D01*
X109474000Y-59690000D02*
X106934000Y-59690000D01*
X106934000Y-59690000D02*
X104394000Y-59690000D01*
X104394000Y-59690000D02*
X96774000Y-59690000D01*
X95504000Y-60960000D02*
X95504000Y-66040000D01*
X96774000Y-59690000D02*
X95504000Y-60960000D01*
X98044000Y-88900000D02*
X98044000Y-74930000D01*
X98044000Y-74930000D02*
X95504000Y-72390000D01*
X95504000Y-88900000D02*
X95504000Y-74930000D01*
X94234000Y-48260000D02*
X101854000Y-48260000D01*
X92964000Y-49530000D02*
X94234000Y-48260000D01*
X92964000Y-72390000D02*
X92964000Y-49530000D01*
X95504000Y-74930000D02*
X92964000Y-72390000D01*
X101854000Y-48260000D02*
X122174000Y-48260000D01*
X122174000Y-48260000D02*
X123444000Y-49530000D01*
X123444000Y-49530000D02*
X123444000Y-50800000D01*
X101854000Y-48260000D02*
X101854000Y-54610000D01*
D15*
X112014000Y-64770000D02*
X114554000Y-62230000D01*
X112014000Y-73660000D02*
X112014000Y-64770000D01*
X110744000Y-88900000D02*
X110744000Y-74930000D01*
X110744000Y-74930000D02*
X112014000Y-73660000D01*
X112014000Y-62230000D02*
X110744000Y-63500000D01*
X110744000Y-63500000D02*
X110744000Y-66040000D01*
X123444000Y-86360000D02*
X123444000Y-88900000D01*
X123444000Y-66040000D02*
X123444000Y-86360000D01*
X120904000Y-88900000D02*
X120904000Y-66040000D01*
X118364000Y-66040000D02*
X118364000Y-88900000D01*
X115824000Y-66040000D02*
X115824000Y-88900000D01*
X113284000Y-66040000D02*
X113284000Y-88900000D01*
X108204000Y-66040000D02*
X108204000Y-88900000D01*
X105664000Y-88900000D02*
X105664000Y-74930000D01*
X105664000Y-74930000D02*
X103124000Y-72390000D01*
X103124000Y-72390000D02*
X103124000Y-66040000D01*
X103124000Y-88900000D02*
X103124000Y-74930000D01*
X103124000Y-74930000D02*
X100584000Y-72390000D01*
X100584000Y-72390000D02*
X100584000Y-66040000D01*
X100584000Y-88900000D02*
X100584000Y-74930000D01*
X100584000Y-74930000D02*
X98044000Y-72390000D01*
X98044000Y-72390000D02*
X98044000Y-66040000D01*
G04 #@! TA.AperFunction,Conductor*
G36*
X129863121Y-46121002D02*
G01*
X129909614Y-46174658D01*
X129921000Y-46227000D01*
X129921000Y-53417200D01*
X129900998Y-53485321D01*
X129847342Y-53531814D01*
X129795000Y-53543200D01*
X128332825Y-53543200D01*
X128308247Y-53540779D01*
X128295400Y-53538224D01*
X128283228Y-53540645D01*
X128270383Y-53543200D01*
X128196294Y-53557937D01*
X128185977Y-53564831D01*
X128185976Y-53564831D01*
X128131804Y-53601028D01*
X128112276Y-53614076D01*
X128105383Y-53624392D01*
X128099503Y-53633192D01*
X128056137Y-53698094D01*
X128036424Y-53797200D01*
X128038845Y-53809370D01*
X128038979Y-53810044D01*
X128041400Y-53834625D01*
X128041400Y-57747575D01*
X128038979Y-57772153D01*
X128036424Y-57785000D01*
X128041400Y-57810017D01*
X128056137Y-57884106D01*
X128063031Y-57894423D01*
X128063031Y-57894424D01*
X128070149Y-57905077D01*
X128112276Y-57968124D01*
X128196294Y-58024263D01*
X128295400Y-58043976D01*
X128308247Y-58041421D01*
X128332825Y-58039000D01*
X129795000Y-58039000D01*
X129863121Y-58059002D01*
X129909614Y-58112658D01*
X129921000Y-58165000D01*
X129921000Y-71937650D01*
X129900998Y-72005771D01*
X129887985Y-72022679D01*
X129241361Y-72729806D01*
X125675287Y-76629549D01*
X125675209Y-76629634D01*
X125667565Y-76636198D01*
X125667571Y-76636204D01*
X125658794Y-76644982D01*
X125648476Y-76651876D01*
X125632509Y-76675773D01*
X125630767Y-76678234D01*
X125627273Y-76682055D01*
X125618699Y-76696217D01*
X125615706Y-76700919D01*
X125592337Y-76735894D01*
X125591191Y-76741654D01*
X125588151Y-76746676D01*
X125586276Y-76758942D01*
X125581798Y-76788235D01*
X125580824Y-76793773D01*
X125577600Y-76809983D01*
X125577600Y-76815168D01*
X125577226Y-76818148D01*
X125572882Y-76846563D01*
X125575844Y-76858614D01*
X125576398Y-76871010D01*
X125576389Y-76871010D01*
X125577600Y-76881014D01*
X125577600Y-84964000D01*
X125557598Y-85032121D01*
X125503942Y-85078614D01*
X125451600Y-85090000D01*
X123949500Y-85090000D01*
X123881379Y-85069998D01*
X123834886Y-85016342D01*
X123823500Y-84964000D01*
X123823500Y-67107266D01*
X123843502Y-67039145D01*
X123892690Y-66994800D01*
X124006262Y-66937431D01*
X124006264Y-66937430D01*
X124011763Y-66934652D01*
X124174722Y-66807334D01*
X124178748Y-66802670D01*
X124178751Y-66802667D01*
X124305819Y-66655457D01*
X124305820Y-66655455D01*
X124309848Y-66650789D01*
X124411995Y-66470979D01*
X124477270Y-66274753D01*
X124503189Y-66069586D01*
X124503602Y-66040000D01*
X124483422Y-65834189D01*
X124423651Y-65636217D01*
X124375108Y-65544921D01*
X124329459Y-65459067D01*
X124329457Y-65459064D01*
X124326565Y-65453625D01*
X124322674Y-65448855D01*
X124322672Y-65448851D01*
X124199758Y-65298143D01*
X124199755Y-65298140D01*
X124195863Y-65293368D01*
X124188966Y-65287662D01*
X124041271Y-65165478D01*
X124041266Y-65165475D01*
X124036522Y-65161550D01*
X124031103Y-65158620D01*
X124031100Y-65158618D01*
X123860032Y-65066122D01*
X123860027Y-65066120D01*
X123854612Y-65063192D01*
X123657063Y-65002040D01*
X123650938Y-65001396D01*
X123650937Y-65001396D01*
X123457526Y-64981068D01*
X123457524Y-64981068D01*
X123451397Y-64980424D01*
X123325229Y-64991906D01*
X123251591Y-64998607D01*
X123251590Y-64998607D01*
X123245450Y-64999166D01*
X123047066Y-65057554D01*
X123041601Y-65060411D01*
X122869261Y-65150508D01*
X122869257Y-65150511D01*
X122863801Y-65153363D01*
X122859001Y-65157223D01*
X122859000Y-65157223D01*
X122857265Y-65158618D01*
X122702635Y-65282943D01*
X122569708Y-65441360D01*
X122470082Y-65622578D01*
X122407553Y-65819696D01*
X122384501Y-66025206D01*
X122401806Y-66231278D01*
X122458807Y-66430066D01*
X122461625Y-66435548D01*
X122461626Y-66435552D01*
X122550514Y-66608509D01*
X122550517Y-66608513D01*
X122553334Y-66613995D01*
X122681786Y-66776061D01*
X122686479Y-66780055D01*
X122686480Y-66780056D01*
X122801783Y-66878186D01*
X122839271Y-66910091D01*
X122939501Y-66966108D01*
X122999971Y-66999904D01*
X123049676Y-67050598D01*
X123064500Y-67109892D01*
X123064500Y-84964000D01*
X123044498Y-85032121D01*
X122990842Y-85078614D01*
X122938500Y-85090000D01*
X121409500Y-85090000D01*
X121341379Y-85069998D01*
X121294886Y-85016342D01*
X121283500Y-84964000D01*
X121283500Y-67107266D01*
X121303502Y-67039145D01*
X121352690Y-66994800D01*
X121466262Y-66937431D01*
X121466264Y-66937430D01*
X121471763Y-66934652D01*
X121634722Y-66807334D01*
X121638748Y-66802670D01*
X121638751Y-66802667D01*
X121765819Y-66655457D01*
X121765820Y-66655455D01*
X121769848Y-66650789D01*
X121871995Y-66470979D01*
X121937270Y-66274753D01*
X121963189Y-66069586D01*
X121963602Y-66040000D01*
X121943422Y-65834189D01*
X121883651Y-65636217D01*
X121835108Y-65544921D01*
X121789459Y-65459067D01*
X121789457Y-65459064D01*
X121786565Y-65453625D01*
X121782674Y-65448855D01*
X121782672Y-65448851D01*
X121659758Y-65298143D01*
X121659755Y-65298140D01*
X121655863Y-65293368D01*
X121648966Y-65287662D01*
X121501271Y-65165478D01*
X121501266Y-65165475D01*
X121496522Y-65161550D01*
X121491103Y-65158620D01*
X121491100Y-65158618D01*
X121320032Y-65066122D01*
X121320027Y-65066120D01*
X121314612Y-65063192D01*
X121117063Y-65002040D01*
X121110938Y-65001396D01*
X121110937Y-65001396D01*
X120917526Y-64981068D01*
X120917524Y-64981068D01*
X120911397Y-64980424D01*
X120785229Y-64991906D01*
X120711591Y-64998607D01*
X120711590Y-64998607D01*
X120705450Y-64999166D01*
X120507066Y-65057554D01*
X120501601Y-65060411D01*
X120329261Y-65150508D01*
X120329257Y-65150511D01*
X120323801Y-65153363D01*
X120319001Y-65157223D01*
X120319000Y-65157223D01*
X120317265Y-65158618D01*
X120162635Y-65282943D01*
X120029708Y-65441360D01*
X119930082Y-65622578D01*
X119867553Y-65819696D01*
X119844501Y-66025206D01*
X119861806Y-66231278D01*
X119918807Y-66430066D01*
X119921625Y-66435548D01*
X119921626Y-66435552D01*
X120010514Y-66608509D01*
X120010517Y-66608513D01*
X120013334Y-66613995D01*
X120141786Y-66776061D01*
X120146479Y-66780055D01*
X120146480Y-66780056D01*
X120261783Y-66878186D01*
X120299271Y-66910091D01*
X120399501Y-66966108D01*
X120459971Y-66999904D01*
X120509676Y-67050598D01*
X120524500Y-67109892D01*
X120524500Y-84964000D01*
X120504498Y-85032121D01*
X120450842Y-85078614D01*
X120398500Y-85090000D01*
X118869500Y-85090000D01*
X118801379Y-85069998D01*
X118754886Y-85016342D01*
X118743500Y-84964000D01*
X118743500Y-67107266D01*
X118763502Y-67039145D01*
X118812690Y-66994800D01*
X118926262Y-66937431D01*
X118926264Y-66937430D01*
X118931763Y-66934652D01*
X119094722Y-66807334D01*
X119098748Y-66802670D01*
X119098751Y-66802667D01*
X119225819Y-66655457D01*
X119225820Y-66655455D01*
X119229848Y-66650789D01*
X119331995Y-66470979D01*
X119397270Y-66274753D01*
X119423189Y-66069586D01*
X119423602Y-66040000D01*
X119403422Y-65834189D01*
X119343651Y-65636217D01*
X119295108Y-65544921D01*
X119249459Y-65459067D01*
X119249457Y-65459064D01*
X119246565Y-65453625D01*
X119242674Y-65448855D01*
X119242672Y-65448851D01*
X119119758Y-65298143D01*
X119119755Y-65298140D01*
X119115863Y-65293368D01*
X119108966Y-65287662D01*
X118961271Y-65165478D01*
X118961266Y-65165475D01*
X118956522Y-65161550D01*
X118951103Y-65158620D01*
X118951100Y-65158618D01*
X118780032Y-65066122D01*
X118780027Y-65066120D01*
X118774612Y-65063192D01*
X118577063Y-65002040D01*
X118570938Y-65001396D01*
X118570937Y-65001396D01*
X118377526Y-64981068D01*
X118377524Y-64981068D01*
X118371397Y-64980424D01*
X118245229Y-64991906D01*
X118171591Y-64998607D01*
X118171590Y-64998607D01*
X118165450Y-64999166D01*
X117967066Y-65057554D01*
X117961601Y-65060411D01*
X117789261Y-65150508D01*
X117789257Y-65150511D01*
X117783801Y-65153363D01*
X117779001Y-65157223D01*
X117779000Y-65157223D01*
X117777265Y-65158618D01*
X117622635Y-65282943D01*
X117489708Y-65441360D01*
X117390082Y-65622578D01*
X117327553Y-65819696D01*
X117304501Y-66025206D01*
X117321806Y-66231278D01*
X117378807Y-66430066D01*
X117381625Y-66435548D01*
X117381626Y-66435552D01*
X117470514Y-66608509D01*
X117470517Y-66608513D01*
X117473334Y-66613995D01*
X117601786Y-66776061D01*
X117606479Y-66780055D01*
X117606480Y-66780056D01*
X117721783Y-66878186D01*
X117759271Y-66910091D01*
X117859501Y-66966108D01*
X117919971Y-66999904D01*
X117969676Y-67050598D01*
X117984500Y-67109892D01*
X117984500Y-84964000D01*
X117964498Y-85032121D01*
X117910842Y-85078614D01*
X117858500Y-85090000D01*
X116329500Y-85090000D01*
X116261379Y-85069998D01*
X116214886Y-85016342D01*
X116203500Y-84964000D01*
X116203500Y-67107266D01*
X116223502Y-67039145D01*
X116272690Y-66994800D01*
X116386262Y-66937431D01*
X116386264Y-66937430D01*
X116391763Y-66934652D01*
X116554722Y-66807334D01*
X116558748Y-66802670D01*
X116558751Y-66802667D01*
X116685819Y-66655457D01*
X116685820Y-66655455D01*
X116689848Y-66650789D01*
X116791995Y-66470979D01*
X116857270Y-66274753D01*
X116883189Y-66069586D01*
X116883602Y-66040000D01*
X116863422Y-65834189D01*
X116803651Y-65636217D01*
X116755108Y-65544921D01*
X116709459Y-65459067D01*
X116709457Y-65459064D01*
X116706565Y-65453625D01*
X116702674Y-65448855D01*
X116702672Y-65448851D01*
X116579758Y-65298143D01*
X116579755Y-65298140D01*
X116575863Y-65293368D01*
X116568966Y-65287662D01*
X116421271Y-65165478D01*
X116421266Y-65165475D01*
X116416522Y-65161550D01*
X116411103Y-65158620D01*
X116411100Y-65158618D01*
X116240032Y-65066122D01*
X116240027Y-65066120D01*
X116234612Y-65063192D01*
X116037063Y-65002040D01*
X116030938Y-65001396D01*
X116030937Y-65001396D01*
X115837526Y-64981068D01*
X115837524Y-64981068D01*
X115831397Y-64980424D01*
X115705229Y-64991906D01*
X115631591Y-64998607D01*
X115631590Y-64998607D01*
X115625450Y-64999166D01*
X115427066Y-65057554D01*
X115421601Y-65060411D01*
X115249261Y-65150508D01*
X115249257Y-65150511D01*
X115243801Y-65153363D01*
X115239001Y-65157223D01*
X115239000Y-65157223D01*
X115237265Y-65158618D01*
X115082635Y-65282943D01*
X114949708Y-65441360D01*
X114850082Y-65622578D01*
X114787553Y-65819696D01*
X114764501Y-66025206D01*
X114781806Y-66231278D01*
X114838807Y-66430066D01*
X114841625Y-66435548D01*
X114841626Y-66435552D01*
X114930514Y-66608509D01*
X114930517Y-66608513D01*
X114933334Y-66613995D01*
X115061786Y-66776061D01*
X115066479Y-66780055D01*
X115066480Y-66780056D01*
X115181783Y-66878186D01*
X115219271Y-66910091D01*
X115319501Y-66966108D01*
X115379971Y-66999904D01*
X115429676Y-67050598D01*
X115444500Y-67109892D01*
X115444500Y-84964000D01*
X115424498Y-85032121D01*
X115370842Y-85078614D01*
X115318500Y-85090000D01*
X113789500Y-85090000D01*
X113721379Y-85069998D01*
X113674886Y-85016342D01*
X113663500Y-84964000D01*
X113663500Y-67107266D01*
X113683502Y-67039145D01*
X113732690Y-66994800D01*
X113846262Y-66937431D01*
X113846264Y-66937430D01*
X113851763Y-66934652D01*
X114014722Y-66807334D01*
X114018748Y-66802670D01*
X114018751Y-66802667D01*
X114145819Y-66655457D01*
X114145820Y-66655455D01*
X114149848Y-66650789D01*
X114251995Y-66470979D01*
X114317270Y-66274753D01*
X114343189Y-66069586D01*
X114343602Y-66040000D01*
X114323422Y-65834189D01*
X114263651Y-65636217D01*
X114215108Y-65544921D01*
X114169459Y-65459067D01*
X114169457Y-65459064D01*
X114166565Y-65453625D01*
X114162674Y-65448855D01*
X114162672Y-65448851D01*
X114039758Y-65298143D01*
X114039755Y-65298140D01*
X114035863Y-65293368D01*
X114028966Y-65287662D01*
X113881271Y-65165478D01*
X113881266Y-65165475D01*
X113876522Y-65161550D01*
X113871103Y-65158620D01*
X113871100Y-65158618D01*
X113700032Y-65066122D01*
X113700027Y-65066120D01*
X113694612Y-65063192D01*
X113497063Y-65002040D01*
X113490938Y-65001396D01*
X113490937Y-65001396D01*
X113297526Y-64981068D01*
X113297524Y-64981068D01*
X113291397Y-64980424D01*
X113165229Y-64991906D01*
X113091591Y-64998607D01*
X113091590Y-64998607D01*
X113085450Y-64999166D01*
X112887066Y-65057554D01*
X112881601Y-65060411D01*
X112709261Y-65150508D01*
X112709257Y-65150511D01*
X112703801Y-65153363D01*
X112699001Y-65157223D01*
X112699000Y-65157223D01*
X112598452Y-65238065D01*
X112532829Y-65265161D01*
X112462975Y-65252477D01*
X112411067Y-65204041D01*
X112393500Y-65139868D01*
X112393500Y-64979384D01*
X112413502Y-64911263D01*
X112430405Y-64890289D01*
X114067588Y-63253107D01*
X114129900Y-63219081D01*
X114195618Y-63222369D01*
X114326466Y-63264884D01*
X114531809Y-63289370D01*
X114537944Y-63288898D01*
X114537946Y-63288898D01*
X114731856Y-63273977D01*
X114731860Y-63273976D01*
X114737998Y-63273504D01*
X114937178Y-63217892D01*
X114942682Y-63215112D01*
X114942684Y-63215111D01*
X115116262Y-63127431D01*
X115116264Y-63127430D01*
X115121763Y-63124652D01*
X115284722Y-62997334D01*
X115288748Y-62992670D01*
X115288751Y-62992667D01*
X115415819Y-62845457D01*
X115415820Y-62845455D01*
X115419848Y-62840789D01*
X115521995Y-62660979D01*
X115587270Y-62464753D01*
X115613189Y-62259586D01*
X115613602Y-62230000D01*
X115593422Y-62024189D01*
X115533651Y-61826217D01*
X115436565Y-61643625D01*
X115432674Y-61638855D01*
X115432672Y-61638851D01*
X115309758Y-61488143D01*
X115309755Y-61488140D01*
X115305863Y-61483368D01*
X115298966Y-61477662D01*
X115151271Y-61355478D01*
X115151266Y-61355475D01*
X115146522Y-61351550D01*
X115141103Y-61348620D01*
X115141100Y-61348618D01*
X114970032Y-61256122D01*
X114970027Y-61256120D01*
X114964612Y-61253192D01*
X114767063Y-61192040D01*
X114760938Y-61191396D01*
X114760937Y-61191396D01*
X114567526Y-61171068D01*
X114567524Y-61171068D01*
X114561397Y-61170424D01*
X114435229Y-61181906D01*
X114361591Y-61188607D01*
X114361590Y-61188607D01*
X114355450Y-61189166D01*
X114157066Y-61247554D01*
X114151601Y-61250411D01*
X113979261Y-61340508D01*
X113979257Y-61340511D01*
X113973801Y-61343363D01*
X113969001Y-61347223D01*
X113969000Y-61347223D01*
X113967265Y-61348618D01*
X113812635Y-61472943D01*
X113679708Y-61631360D01*
X113580082Y-61812578D01*
X113517553Y-62009696D01*
X113494501Y-62215206D01*
X113511806Y-62421278D01*
X113513505Y-62427203D01*
X113561371Y-62594134D01*
X113560920Y-62665129D01*
X113529347Y-62717959D01*
X111783784Y-64463522D01*
X111765036Y-64478664D01*
X111763811Y-64479779D01*
X111755060Y-64485429D01*
X111748613Y-64493607D01*
X111748611Y-64493609D01*
X111734271Y-64511800D01*
X111730325Y-64516241D01*
X111730398Y-64516303D01*
X111727039Y-64520267D01*
X111723362Y-64523944D01*
X111712108Y-64539692D01*
X111708602Y-64544362D01*
X111676844Y-64584647D01*
X111673812Y-64593281D01*
X111668486Y-64600734D01*
X111665501Y-64610715D01*
X111653799Y-64649844D01*
X111651964Y-64655492D01*
X111634982Y-64703851D01*
X111634500Y-64709416D01*
X111634500Y-64712124D01*
X111634386Y-64714758D01*
X111634357Y-64714856D01*
X111634193Y-64714849D01*
X111634149Y-64715553D01*
X111632287Y-64721778D01*
X111632696Y-64732183D01*
X111634403Y-64775635D01*
X111634500Y-64780582D01*
X111634500Y-65140295D01*
X111614498Y-65208416D01*
X111560842Y-65254909D01*
X111490568Y-65265013D01*
X111428185Y-65237380D01*
X111341271Y-65165478D01*
X111341266Y-65165475D01*
X111336522Y-65161550D01*
X111331103Y-65158620D01*
X111331100Y-65158618D01*
X111189572Y-65082095D01*
X111139163Y-65032100D01*
X111123500Y-64971259D01*
X111123500Y-63709384D01*
X111143502Y-63641263D01*
X111160405Y-63620289D01*
X111527587Y-63253107D01*
X111589899Y-63219081D01*
X111655618Y-63222369D01*
X111786466Y-63264884D01*
X111991809Y-63289370D01*
X111997944Y-63288898D01*
X111997946Y-63288898D01*
X112191856Y-63273977D01*
X112191860Y-63273976D01*
X112197998Y-63273504D01*
X112397178Y-63217892D01*
X112402682Y-63215112D01*
X112402684Y-63215111D01*
X112576262Y-63127431D01*
X112576264Y-63127430D01*
X112581763Y-63124652D01*
X112744722Y-62997334D01*
X112748748Y-62992670D01*
X112748751Y-62992667D01*
X112875819Y-62845457D01*
X112875820Y-62845455D01*
X112879848Y-62840789D01*
X112981995Y-62660979D01*
X113047270Y-62464753D01*
X113073189Y-62259586D01*
X113073602Y-62230000D01*
X113053422Y-62024189D01*
X112993651Y-61826217D01*
X112896565Y-61643625D01*
X112892674Y-61638855D01*
X112892672Y-61638851D01*
X112769758Y-61488143D01*
X112769755Y-61488140D01*
X112765863Y-61483368D01*
X112758966Y-61477662D01*
X112611271Y-61355478D01*
X112611266Y-61355475D01*
X112606522Y-61351550D01*
X112601103Y-61348620D01*
X112601100Y-61348618D01*
X112430032Y-61256122D01*
X112430027Y-61256120D01*
X112424612Y-61253192D01*
X112227063Y-61192040D01*
X112220938Y-61191396D01*
X112220937Y-61191396D01*
X112027526Y-61171068D01*
X112027524Y-61171068D01*
X112021397Y-61170424D01*
X111895229Y-61181906D01*
X111821591Y-61188607D01*
X111821590Y-61188607D01*
X111815450Y-61189166D01*
X111617066Y-61247554D01*
X111611601Y-61250411D01*
X111439261Y-61340508D01*
X111439257Y-61340511D01*
X111433801Y-61343363D01*
X111429001Y-61347223D01*
X111429000Y-61347223D01*
X111427265Y-61348618D01*
X111272635Y-61472943D01*
X111139708Y-61631360D01*
X111040082Y-61812578D01*
X110977553Y-62009696D01*
X110954501Y-62215206D01*
X110971806Y-62421278D01*
X110973505Y-62427203D01*
X111021371Y-62594134D01*
X111020920Y-62665129D01*
X110989347Y-62717959D01*
X110513784Y-63193522D01*
X110495036Y-63208664D01*
X110493811Y-63209779D01*
X110485060Y-63215429D01*
X110478613Y-63223607D01*
X110478611Y-63223609D01*
X110464271Y-63241800D01*
X110460325Y-63246241D01*
X110460398Y-63246303D01*
X110457039Y-63250267D01*
X110453362Y-63253944D01*
X110442108Y-63269692D01*
X110438602Y-63274362D01*
X110406844Y-63314647D01*
X110403812Y-63323281D01*
X110398486Y-63330734D01*
X110395501Y-63340715D01*
X110383799Y-63379844D01*
X110381964Y-63385492D01*
X110364982Y-63433851D01*
X110364500Y-63439416D01*
X110364500Y-63442124D01*
X110364386Y-63444758D01*
X110364357Y-63444856D01*
X110364193Y-63444849D01*
X110364149Y-63445553D01*
X110362287Y-63451778D01*
X110362696Y-63462183D01*
X110364403Y-63505635D01*
X110364500Y-63510582D01*
X110364500Y-64972131D01*
X110344498Y-65040252D01*
X110296876Y-65083792D01*
X110169265Y-65150506D01*
X110169261Y-65150508D01*
X110163801Y-65153363D01*
X110159001Y-65157223D01*
X110159000Y-65157223D01*
X110157265Y-65158618D01*
X110002635Y-65282943D01*
X109869708Y-65441360D01*
X109770082Y-65622578D01*
X109707553Y-65819696D01*
X109684501Y-66025206D01*
X109701806Y-66231278D01*
X109758807Y-66430066D01*
X109761625Y-66435548D01*
X109761626Y-66435552D01*
X109850514Y-66608509D01*
X109850517Y-66608513D01*
X109853334Y-66613995D01*
X109981786Y-66776061D01*
X109986479Y-66780055D01*
X109986480Y-66780056D01*
X110101783Y-66878186D01*
X110139271Y-66910091D01*
X110319789Y-67010980D01*
X110516466Y-67074884D01*
X110721809Y-67099370D01*
X110727944Y-67098898D01*
X110727946Y-67098898D01*
X110921856Y-67083977D01*
X110921860Y-67083976D01*
X110927998Y-67083504D01*
X111127178Y-67027892D01*
X111132682Y-67025112D01*
X111132684Y-67025111D01*
X111306262Y-66937431D01*
X111306264Y-66937430D01*
X111311763Y-66934652D01*
X111430927Y-66841551D01*
X111496921Y-66815373D01*
X111566591Y-66829030D01*
X111617818Y-66878186D01*
X111634500Y-66940840D01*
X111634500Y-73450616D01*
X111614498Y-73518737D01*
X111597595Y-73539711D01*
X110513784Y-74623522D01*
X110495036Y-74638664D01*
X110493811Y-74639779D01*
X110485060Y-74645429D01*
X110478613Y-74653607D01*
X110478611Y-74653609D01*
X110464271Y-74671800D01*
X110460325Y-74676241D01*
X110460398Y-74676303D01*
X110457039Y-74680267D01*
X110453362Y-74683944D01*
X110442108Y-74699692D01*
X110438602Y-74704362D01*
X110406844Y-74744647D01*
X110403812Y-74753281D01*
X110398486Y-74760734D01*
X110387879Y-74796203D01*
X110383799Y-74809844D01*
X110381964Y-74815492D01*
X110364982Y-74863851D01*
X110364500Y-74869416D01*
X110364500Y-74872124D01*
X110364386Y-74874758D01*
X110364357Y-74874856D01*
X110364193Y-74874849D01*
X110364149Y-74875553D01*
X110362287Y-74881778D01*
X110363351Y-74908854D01*
X110364403Y-74935635D01*
X110364500Y-74940582D01*
X110364500Y-84964000D01*
X110344498Y-85032121D01*
X110290842Y-85078614D01*
X110238500Y-85090000D01*
X108709500Y-85090000D01*
X108641379Y-85069998D01*
X108594886Y-85016342D01*
X108583500Y-84964000D01*
X108583500Y-67107266D01*
X108603502Y-67039145D01*
X108652690Y-66994800D01*
X108766262Y-66937431D01*
X108766264Y-66937430D01*
X108771763Y-66934652D01*
X108934722Y-66807334D01*
X108938748Y-66802670D01*
X108938751Y-66802667D01*
X109065819Y-66655457D01*
X109065820Y-66655455D01*
X109069848Y-66650789D01*
X109171995Y-66470979D01*
X109237270Y-66274753D01*
X109263189Y-66069586D01*
X109263602Y-66040000D01*
X109243422Y-65834189D01*
X109183651Y-65636217D01*
X109135108Y-65544921D01*
X109089459Y-65459067D01*
X109089457Y-65459064D01*
X109086565Y-65453625D01*
X109082674Y-65448855D01*
X109082672Y-65448851D01*
X108959758Y-65298143D01*
X108959755Y-65298140D01*
X108955863Y-65293368D01*
X108948966Y-65287662D01*
X108801271Y-65165478D01*
X108801266Y-65165475D01*
X108796522Y-65161550D01*
X108791103Y-65158620D01*
X108791100Y-65158618D01*
X108620032Y-65066122D01*
X108620027Y-65066120D01*
X108614612Y-65063192D01*
X108417063Y-65002040D01*
X108410938Y-65001396D01*
X108410937Y-65001396D01*
X108217526Y-64981068D01*
X108217524Y-64981068D01*
X108211397Y-64980424D01*
X108085229Y-64991906D01*
X108011591Y-64998607D01*
X108011590Y-64998607D01*
X108005450Y-64999166D01*
X107807066Y-65057554D01*
X107801601Y-65060411D01*
X107629261Y-65150508D01*
X107629257Y-65150511D01*
X107623801Y-65153363D01*
X107619001Y-65157223D01*
X107619000Y-65157223D01*
X107617265Y-65158618D01*
X107462635Y-65282943D01*
X107329708Y-65441360D01*
X107230082Y-65622578D01*
X107228219Y-65628451D01*
X107184844Y-65765187D01*
X107145181Y-65824072D01*
X107079979Y-65852164D01*
X107009939Y-65840547D01*
X106957299Y-65792907D01*
X106943035Y-65759700D01*
X106899236Y-65596239D01*
X106895490Y-65585947D01*
X106803414Y-65388489D01*
X106797931Y-65378993D01*
X106672972Y-65200533D01*
X106665916Y-65192125D01*
X106511875Y-65038084D01*
X106503467Y-65031028D01*
X106325007Y-64906069D01*
X106315511Y-64900586D01*
X106118053Y-64808510D01*
X106107761Y-64804764D01*
X105935497Y-64758606D01*
X105921401Y-64758942D01*
X105918000Y-64766884D01*
X105918000Y-67307967D01*
X105921973Y-67321498D01*
X105930522Y-67322727D01*
X106107761Y-67275236D01*
X106118053Y-67271490D01*
X106315511Y-67179414D01*
X106325007Y-67173931D01*
X106503467Y-67048972D01*
X106511875Y-67041916D01*
X106665916Y-66887875D01*
X106672972Y-66879467D01*
X106797931Y-66701007D01*
X106803414Y-66691511D01*
X106895490Y-66494053D01*
X106899236Y-66483761D01*
X106943452Y-66318743D01*
X106980404Y-66258120D01*
X107044264Y-66227099D01*
X107114759Y-66235527D01*
X107169506Y-66280730D01*
X107186278Y-66316624D01*
X107218807Y-66430066D01*
X107221625Y-66435548D01*
X107221626Y-66435552D01*
X107310514Y-66608509D01*
X107310517Y-66608513D01*
X107313334Y-66613995D01*
X107441786Y-66776061D01*
X107446479Y-66780055D01*
X107446480Y-66780056D01*
X107561783Y-66878186D01*
X107599271Y-66910091D01*
X107699501Y-66966108D01*
X107759971Y-66999904D01*
X107809676Y-67050598D01*
X107824500Y-67109892D01*
X107824500Y-84964000D01*
X107804498Y-85032121D01*
X107750842Y-85078614D01*
X107698500Y-85090000D01*
X106169500Y-85090000D01*
X106101379Y-85069998D01*
X106054886Y-85016342D01*
X106043500Y-84964000D01*
X106043500Y-74983920D01*
X106046049Y-74959973D01*
X106046128Y-74958307D01*
X106048320Y-74948124D01*
X106047096Y-74937782D01*
X106047096Y-74937779D01*
X106044374Y-74914787D01*
X106044023Y-74908846D01*
X106043928Y-74908854D01*
X106043500Y-74903674D01*
X106043500Y-74898476D01*
X106042453Y-74892183D01*
X106040329Y-74879427D01*
X106039492Y-74873547D01*
X106034693Y-74832997D01*
X106034692Y-74832995D01*
X106033469Y-74822659D01*
X106029508Y-74814410D01*
X106028004Y-74805374D01*
X106018062Y-74786948D01*
X106003652Y-74760240D01*
X106000957Y-74754951D01*
X105982212Y-74715915D01*
X105978780Y-74708768D01*
X105975186Y-74704492D01*
X105973246Y-74702552D01*
X105971493Y-74700641D01*
X105971444Y-74700551D01*
X105971567Y-74700439D01*
X105971095Y-74699904D01*
X105968010Y-74694186D01*
X105928413Y-74657583D01*
X105924848Y-74654154D01*
X103540405Y-72269711D01*
X103506379Y-72207399D01*
X103503500Y-72180616D01*
X103503500Y-67107266D01*
X103523502Y-67039145D01*
X103572690Y-66994800D01*
X103686262Y-66937431D01*
X103686264Y-66937430D01*
X103691763Y-66934652D01*
X103854722Y-66807334D01*
X103858748Y-66802670D01*
X103858751Y-66802667D01*
X103985819Y-66655457D01*
X103985820Y-66655455D01*
X103989848Y-66650789D01*
X104091995Y-66470979D01*
X104093940Y-66465131D01*
X104093943Y-66465125D01*
X104144058Y-66314473D01*
X104184539Y-66256149D01*
X104250127Y-66228969D01*
X104319998Y-66241564D01*
X104371967Y-66289934D01*
X104385323Y-66321634D01*
X104428764Y-66483761D01*
X104432510Y-66494053D01*
X104524586Y-66691511D01*
X104530069Y-66701007D01*
X104655028Y-66879467D01*
X104662084Y-66887875D01*
X104816125Y-67041916D01*
X104824533Y-67048972D01*
X105002993Y-67173931D01*
X105012489Y-67179414D01*
X105209947Y-67271490D01*
X105220239Y-67275236D01*
X105392503Y-67321394D01*
X105406599Y-67321058D01*
X105410000Y-67313116D01*
X105410000Y-64772033D01*
X105406027Y-64758502D01*
X105397478Y-64757273D01*
X105220239Y-64804764D01*
X105209947Y-64808510D01*
X105012489Y-64900586D01*
X105002993Y-64906069D01*
X104824533Y-65031028D01*
X104816125Y-65038084D01*
X104662084Y-65192125D01*
X104655028Y-65200533D01*
X104530069Y-65378993D01*
X104524586Y-65388489D01*
X104432510Y-65585947D01*
X104428765Y-65596236D01*
X104384704Y-65760673D01*
X104347752Y-65821295D01*
X104283891Y-65852317D01*
X104213397Y-65843888D01*
X104158650Y-65798685D01*
X104142375Y-65764479D01*
X104140933Y-65759700D01*
X104103651Y-65636217D01*
X104055108Y-65544921D01*
X104009459Y-65459067D01*
X104009457Y-65459064D01*
X104006565Y-65453625D01*
X104002674Y-65448855D01*
X104002672Y-65448851D01*
X103879758Y-65298143D01*
X103879755Y-65298140D01*
X103875863Y-65293368D01*
X103868966Y-65287662D01*
X103721271Y-65165478D01*
X103721266Y-65165475D01*
X103716522Y-65161550D01*
X103711103Y-65158620D01*
X103711100Y-65158618D01*
X103540032Y-65066122D01*
X103540027Y-65066120D01*
X103534612Y-65063192D01*
X103337063Y-65002040D01*
X103330938Y-65001396D01*
X103330937Y-65001396D01*
X103137526Y-64981068D01*
X103137524Y-64981068D01*
X103131397Y-64980424D01*
X103005229Y-64991906D01*
X102931591Y-64998607D01*
X102931590Y-64998607D01*
X102925450Y-64999166D01*
X102727066Y-65057554D01*
X102721601Y-65060411D01*
X102549261Y-65150508D01*
X102549257Y-65150511D01*
X102543801Y-65153363D01*
X102539001Y-65157223D01*
X102539000Y-65157223D01*
X102537265Y-65158618D01*
X102382635Y-65282943D01*
X102249708Y-65441360D01*
X102150082Y-65622578D01*
X102087553Y-65819696D01*
X102064501Y-66025206D01*
X102081806Y-66231278D01*
X102138807Y-66430066D01*
X102141625Y-66435548D01*
X102141626Y-66435552D01*
X102230514Y-66608509D01*
X102230517Y-66608513D01*
X102233334Y-66613995D01*
X102361786Y-66776061D01*
X102366479Y-66780055D01*
X102366480Y-66780056D01*
X102481783Y-66878186D01*
X102519271Y-66910091D01*
X102619501Y-66966108D01*
X102679971Y-66999904D01*
X102729676Y-67050598D01*
X102744500Y-67109892D01*
X102744500Y-72336080D01*
X102741951Y-72360028D01*
X102741872Y-72361693D01*
X102739680Y-72371876D01*
X102740904Y-72382217D01*
X102743627Y-72405223D01*
X102743977Y-72411154D01*
X102744072Y-72411146D01*
X102744500Y-72416324D01*
X102744500Y-72421524D01*
X102745354Y-72426653D01*
X102745354Y-72426656D01*
X102747669Y-72440565D01*
X102748506Y-72446443D01*
X102748516Y-72446523D01*
X102754530Y-72497341D01*
X102758493Y-72505593D01*
X102759996Y-72514626D01*
X102764943Y-72523795D01*
X102764944Y-72523797D01*
X102784334Y-72559732D01*
X102787031Y-72565025D01*
X102805785Y-72604082D01*
X102805788Y-72604086D01*
X102809219Y-72611232D01*
X102812814Y-72615508D01*
X102814737Y-72617431D01*
X102816509Y-72619363D01*
X102816552Y-72619442D01*
X102816428Y-72619555D01*
X102816904Y-72620095D01*
X102819990Y-72625814D01*
X102827635Y-72632881D01*
X102859586Y-72662416D01*
X102863152Y-72665846D01*
X105247595Y-75050290D01*
X105281621Y-75112602D01*
X105284500Y-75139385D01*
X105284500Y-84964000D01*
X105264498Y-85032121D01*
X105210842Y-85078614D01*
X105158500Y-85090000D01*
X103629500Y-85090000D01*
X103561379Y-85069998D01*
X103514886Y-85016342D01*
X103503500Y-84964000D01*
X103503500Y-74983920D01*
X103506049Y-74959973D01*
X103506128Y-74958307D01*
X103508320Y-74948124D01*
X103507096Y-74937782D01*
X103507096Y-74937779D01*
X103504374Y-74914787D01*
X103504023Y-74908846D01*
X103503928Y-74908854D01*
X103503500Y-74903674D01*
X103503500Y-74898476D01*
X103502453Y-74892183D01*
X103500329Y-74879427D01*
X103499492Y-74873547D01*
X103494693Y-74832997D01*
X103494692Y-74832995D01*
X103493469Y-74822659D01*
X103489508Y-74814410D01*
X103488004Y-74805374D01*
X103478062Y-74786948D01*
X103463652Y-74760240D01*
X103460957Y-74754951D01*
X103442212Y-74715915D01*
X103438780Y-74708768D01*
X103435186Y-74704492D01*
X103433246Y-74702552D01*
X103431493Y-74700641D01*
X103431444Y-74700551D01*
X103431567Y-74700439D01*
X103431095Y-74699904D01*
X103428010Y-74694186D01*
X103388413Y-74657583D01*
X103384848Y-74654154D01*
X101000405Y-72269711D01*
X100966379Y-72207399D01*
X100963500Y-72180616D01*
X100963500Y-67107266D01*
X100983502Y-67039145D01*
X101032690Y-66994800D01*
X101146262Y-66937431D01*
X101146264Y-66937430D01*
X101151763Y-66934652D01*
X101314722Y-66807334D01*
X101318748Y-66802670D01*
X101318751Y-66802667D01*
X101445819Y-66655457D01*
X101445820Y-66655455D01*
X101449848Y-66650789D01*
X101551995Y-66470979D01*
X101617270Y-66274753D01*
X101643189Y-66069586D01*
X101643602Y-66040000D01*
X101623422Y-65834189D01*
X101563651Y-65636217D01*
X101515108Y-65544921D01*
X101469459Y-65459067D01*
X101469457Y-65459064D01*
X101466565Y-65453625D01*
X101462674Y-65448855D01*
X101462672Y-65448851D01*
X101339758Y-65298143D01*
X101339755Y-65298140D01*
X101335863Y-65293368D01*
X101328966Y-65287662D01*
X101181271Y-65165478D01*
X101181266Y-65165475D01*
X101176522Y-65161550D01*
X101171103Y-65158620D01*
X101171100Y-65158618D01*
X101000032Y-65066122D01*
X101000027Y-65066120D01*
X100994612Y-65063192D01*
X100797063Y-65002040D01*
X100790938Y-65001396D01*
X100790937Y-65001396D01*
X100597526Y-64981068D01*
X100597524Y-64981068D01*
X100591397Y-64980424D01*
X100465229Y-64991906D01*
X100391591Y-64998607D01*
X100391590Y-64998607D01*
X100385450Y-64999166D01*
X100187066Y-65057554D01*
X100181601Y-65060411D01*
X100009261Y-65150508D01*
X100009257Y-65150511D01*
X100003801Y-65153363D01*
X99999001Y-65157223D01*
X99999000Y-65157223D01*
X99997265Y-65158618D01*
X99842635Y-65282943D01*
X99709708Y-65441360D01*
X99610082Y-65622578D01*
X99547553Y-65819696D01*
X99524501Y-66025206D01*
X99541806Y-66231278D01*
X99598807Y-66430066D01*
X99601625Y-66435548D01*
X99601626Y-66435552D01*
X99690514Y-66608509D01*
X99690517Y-66608513D01*
X99693334Y-66613995D01*
X99821786Y-66776061D01*
X99826479Y-66780055D01*
X99826480Y-66780056D01*
X99941783Y-66878186D01*
X99979271Y-66910091D01*
X100079501Y-66966108D01*
X100139971Y-66999904D01*
X100189676Y-67050598D01*
X100204500Y-67109892D01*
X100204500Y-72336080D01*
X100201951Y-72360028D01*
X100201872Y-72361693D01*
X100199680Y-72371876D01*
X100200904Y-72382217D01*
X100203627Y-72405223D01*
X100203977Y-72411154D01*
X100204072Y-72411146D01*
X100204500Y-72416324D01*
X100204500Y-72421524D01*
X100205354Y-72426653D01*
X100205354Y-72426656D01*
X100207669Y-72440565D01*
X100208506Y-72446443D01*
X100208516Y-72446523D01*
X100214530Y-72497341D01*
X100218493Y-72505593D01*
X100219996Y-72514626D01*
X100224943Y-72523795D01*
X100224944Y-72523797D01*
X100244334Y-72559732D01*
X100247031Y-72565025D01*
X100265785Y-72604082D01*
X100265788Y-72604086D01*
X100269219Y-72611232D01*
X100272814Y-72615508D01*
X100274737Y-72617431D01*
X100276509Y-72619363D01*
X100276552Y-72619442D01*
X100276428Y-72619555D01*
X100276904Y-72620095D01*
X100279990Y-72625814D01*
X100287635Y-72632881D01*
X100319586Y-72662416D01*
X100323152Y-72665846D01*
X102707595Y-75050290D01*
X102741621Y-75112602D01*
X102744500Y-75139385D01*
X102744500Y-84964000D01*
X102724498Y-85032121D01*
X102670842Y-85078614D01*
X102618500Y-85090000D01*
X101089500Y-85090000D01*
X101021379Y-85069998D01*
X100974886Y-85016342D01*
X100963500Y-84964000D01*
X100963500Y-74983920D01*
X100966049Y-74959973D01*
X100966128Y-74958307D01*
X100968320Y-74948124D01*
X100967096Y-74937782D01*
X100967096Y-74937779D01*
X100964374Y-74914787D01*
X100964023Y-74908846D01*
X100963928Y-74908854D01*
X100963500Y-74903674D01*
X100963500Y-74898476D01*
X100962453Y-74892183D01*
X100960329Y-74879427D01*
X100959492Y-74873547D01*
X100954693Y-74832997D01*
X100954692Y-74832995D01*
X100953469Y-74822659D01*
X100949508Y-74814410D01*
X100948004Y-74805374D01*
X100938062Y-74786948D01*
X100923652Y-74760240D01*
X100920957Y-74754951D01*
X100902212Y-74715915D01*
X100898780Y-74708768D01*
X100895186Y-74704492D01*
X100893246Y-74702552D01*
X100891493Y-74700641D01*
X100891444Y-74700551D01*
X100891567Y-74700439D01*
X100891095Y-74699904D01*
X100888010Y-74694186D01*
X100848413Y-74657583D01*
X100844848Y-74654154D01*
X98460405Y-72269711D01*
X98426379Y-72207399D01*
X98423500Y-72180616D01*
X98423500Y-67107266D01*
X98443502Y-67039145D01*
X98492690Y-66994800D01*
X98606262Y-66937431D01*
X98606264Y-66937430D01*
X98611763Y-66934652D01*
X98774722Y-66807334D01*
X98778748Y-66802670D01*
X98778751Y-66802667D01*
X98905819Y-66655457D01*
X98905820Y-66655455D01*
X98909848Y-66650789D01*
X99011995Y-66470979D01*
X99077270Y-66274753D01*
X99103189Y-66069586D01*
X99103602Y-66040000D01*
X99083422Y-65834189D01*
X99023651Y-65636217D01*
X98975108Y-65544921D01*
X98929459Y-65459067D01*
X98929457Y-65459064D01*
X98926565Y-65453625D01*
X98922674Y-65448855D01*
X98922672Y-65448851D01*
X98799758Y-65298143D01*
X98799755Y-65298140D01*
X98795863Y-65293368D01*
X98788966Y-65287662D01*
X98641271Y-65165478D01*
X98641266Y-65165475D01*
X98636522Y-65161550D01*
X98631103Y-65158620D01*
X98631100Y-65158618D01*
X98460032Y-65066122D01*
X98460027Y-65066120D01*
X98454612Y-65063192D01*
X98257063Y-65002040D01*
X98250938Y-65001396D01*
X98250937Y-65001396D01*
X98057526Y-64981068D01*
X98057524Y-64981068D01*
X98051397Y-64980424D01*
X97925229Y-64991906D01*
X97851591Y-64998607D01*
X97851590Y-64998607D01*
X97845450Y-64999166D01*
X97647066Y-65057554D01*
X97641601Y-65060411D01*
X97469261Y-65150508D01*
X97469257Y-65150511D01*
X97463801Y-65153363D01*
X97459001Y-65157223D01*
X97459000Y-65157223D01*
X97457265Y-65158618D01*
X97302635Y-65282943D01*
X97169708Y-65441360D01*
X97070082Y-65622578D01*
X97007553Y-65819696D01*
X96984501Y-66025206D01*
X97001806Y-66231278D01*
X97058807Y-66430066D01*
X97061625Y-66435548D01*
X97061626Y-66435552D01*
X97150514Y-66608509D01*
X97150517Y-66608513D01*
X97153334Y-66613995D01*
X97281786Y-66776061D01*
X97286479Y-66780055D01*
X97286480Y-66780056D01*
X97401783Y-66878186D01*
X97439271Y-66910091D01*
X97539501Y-66966108D01*
X97599971Y-66999904D01*
X97649676Y-67050598D01*
X97664500Y-67109892D01*
X97664500Y-72336080D01*
X97661951Y-72360028D01*
X97661872Y-72361693D01*
X97659680Y-72371876D01*
X97660904Y-72382217D01*
X97663627Y-72405223D01*
X97663977Y-72411154D01*
X97664072Y-72411146D01*
X97664500Y-72416324D01*
X97664500Y-72421524D01*
X97665354Y-72426653D01*
X97665354Y-72426656D01*
X97667669Y-72440565D01*
X97668506Y-72446443D01*
X97668516Y-72446523D01*
X97674530Y-72497341D01*
X97678493Y-72505593D01*
X97679996Y-72514626D01*
X97684943Y-72523795D01*
X97684944Y-72523797D01*
X97704334Y-72559732D01*
X97707031Y-72565025D01*
X97725785Y-72604082D01*
X97725788Y-72604086D01*
X97729219Y-72611232D01*
X97732814Y-72615508D01*
X97734737Y-72617431D01*
X97736509Y-72619363D01*
X97736552Y-72619442D01*
X97736428Y-72619555D01*
X97736904Y-72620095D01*
X97739990Y-72625814D01*
X97747635Y-72632881D01*
X97779586Y-72662416D01*
X97783152Y-72665846D01*
X100167595Y-75050290D01*
X100201621Y-75112602D01*
X100204500Y-75139385D01*
X100204500Y-84964000D01*
X100184498Y-85032121D01*
X100130842Y-85078614D01*
X100078500Y-85090000D01*
X98674500Y-85090000D01*
X98606379Y-85069998D01*
X98559886Y-85016342D01*
X98548500Y-84964000D01*
X98548500Y-75000624D01*
X98549841Y-74988619D01*
X98549345Y-74988579D01*
X98550065Y-74979632D01*
X98552046Y-74970876D01*
X98548742Y-74917618D01*
X98548500Y-74909816D01*
X98548500Y-74893774D01*
X98547035Y-74883543D01*
X98546003Y-74873477D01*
X98543654Y-74835600D01*
X98543654Y-74835598D01*
X98543098Y-74826641D01*
X98540051Y-74818201D01*
X98539370Y-74814911D01*
X98535416Y-74799054D01*
X98534473Y-74795829D01*
X98533201Y-74786948D01*
X98525821Y-74770715D01*
X98513773Y-74744218D01*
X98509969Y-74734875D01*
X98494027Y-74690715D01*
X98488732Y-74683467D01*
X98487147Y-74680486D01*
X98478907Y-74666387D01*
X98477103Y-74663567D01*
X98473388Y-74655395D01*
X98442751Y-74619838D01*
X98436469Y-74611926D01*
X98431404Y-74604993D01*
X98431393Y-74604980D01*
X98428526Y-74601056D01*
X98417672Y-74590202D01*
X98411314Y-74583355D01*
X98384916Y-74552718D01*
X98384913Y-74552716D01*
X98379056Y-74545918D01*
X98371523Y-74541036D01*
X98364955Y-74535306D01*
X98353542Y-74526072D01*
X96045405Y-72217934D01*
X96011379Y-72155622D01*
X96008500Y-72128839D01*
X96008500Y-67043357D01*
X96028502Y-66975236D01*
X96066794Y-66937162D01*
X96071763Y-66934652D01*
X96076615Y-66930861D01*
X96076620Y-66930858D01*
X96206952Y-66829030D01*
X96234722Y-66807334D01*
X96238748Y-66802670D01*
X96238751Y-66802667D01*
X96365819Y-66655457D01*
X96365820Y-66655455D01*
X96369848Y-66650789D01*
X96471995Y-66470979D01*
X96537270Y-66274753D01*
X96563189Y-66069586D01*
X96563602Y-66040000D01*
X96543422Y-65834189D01*
X96483651Y-65636217D01*
X96435108Y-65544921D01*
X96389459Y-65459067D01*
X96389457Y-65459064D01*
X96386565Y-65453625D01*
X96382674Y-65448855D01*
X96382672Y-65448851D01*
X96259758Y-65298143D01*
X96259755Y-65298140D01*
X96255863Y-65293368D01*
X96248966Y-65287662D01*
X96101271Y-65165478D01*
X96101266Y-65165475D01*
X96096522Y-65161550D01*
X96091102Y-65158620D01*
X96091097Y-65158616D01*
X96074573Y-65149682D01*
X96024163Y-65099688D01*
X96008500Y-65038846D01*
X96008500Y-62215206D01*
X100794501Y-62215206D01*
X100811806Y-62421278D01*
X100868807Y-62620066D01*
X100871625Y-62625548D01*
X100871626Y-62625552D01*
X100960514Y-62798509D01*
X100960517Y-62798513D01*
X100963334Y-62803995D01*
X101091786Y-62966061D01*
X101249271Y-63100091D01*
X101429789Y-63200980D01*
X101626466Y-63264884D01*
X101831809Y-63289370D01*
X101837944Y-63288898D01*
X101837946Y-63288898D01*
X102031856Y-63273977D01*
X102031860Y-63273976D01*
X102037998Y-63273504D01*
X102237178Y-63217892D01*
X102242682Y-63215112D01*
X102242684Y-63215111D01*
X102416262Y-63127431D01*
X102416264Y-63127430D01*
X102421763Y-63124652D01*
X102584722Y-62997334D01*
X102588748Y-62992670D01*
X102588751Y-62992667D01*
X102715819Y-62845457D01*
X102715820Y-62845455D01*
X102719848Y-62840789D01*
X102821995Y-62660979D01*
X102887270Y-62464753D01*
X102913189Y-62259586D01*
X102913602Y-62230000D01*
X102893422Y-62024189D01*
X102833651Y-61826217D01*
X102736565Y-61643625D01*
X102732674Y-61638855D01*
X102732672Y-61638851D01*
X102609758Y-61488143D01*
X102609755Y-61488140D01*
X102605863Y-61483368D01*
X102598966Y-61477662D01*
X102451271Y-61355478D01*
X102451266Y-61355475D01*
X102446522Y-61351550D01*
X102441103Y-61348620D01*
X102441100Y-61348618D01*
X102270032Y-61256122D01*
X102270027Y-61256120D01*
X102264612Y-61253192D01*
X102067063Y-61192040D01*
X102060938Y-61191396D01*
X102060937Y-61191396D01*
X101867526Y-61171068D01*
X101867524Y-61171068D01*
X101861397Y-61170424D01*
X101735229Y-61181906D01*
X101661591Y-61188607D01*
X101661590Y-61188607D01*
X101655450Y-61189166D01*
X101457066Y-61247554D01*
X101451601Y-61250411D01*
X101279261Y-61340508D01*
X101279257Y-61340511D01*
X101273801Y-61343363D01*
X101269001Y-61347223D01*
X101269000Y-61347223D01*
X101267265Y-61348618D01*
X101112635Y-61472943D01*
X100979708Y-61631360D01*
X100880082Y-61812578D01*
X100817553Y-62009696D01*
X100794501Y-62215206D01*
X96008500Y-62215206D01*
X96008500Y-61221161D01*
X96028502Y-61153040D01*
X96045405Y-61132066D01*
X96946066Y-60231405D01*
X97008378Y-60197379D01*
X97035161Y-60194500D01*
X103763500Y-60194500D01*
X103831621Y-60214502D01*
X103878114Y-60268158D01*
X103889500Y-60320500D01*
X103889500Y-61227480D01*
X103869498Y-61295601D01*
X103824287Y-61336939D01*
X103824416Y-61337136D01*
X103823205Y-61337928D01*
X103821881Y-61339139D01*
X103813801Y-61343363D01*
X103652635Y-61472943D01*
X103519708Y-61631360D01*
X103420082Y-61812578D01*
X103357553Y-62009696D01*
X103334501Y-62215206D01*
X103351806Y-62421278D01*
X103408807Y-62620066D01*
X103411625Y-62625548D01*
X103411626Y-62625552D01*
X103500514Y-62798509D01*
X103500517Y-62798513D01*
X103503334Y-62803995D01*
X103631786Y-62966061D01*
X103789271Y-63100091D01*
X103969789Y-63200980D01*
X104166466Y-63264884D01*
X104371809Y-63289370D01*
X104377944Y-63288898D01*
X104377946Y-63288898D01*
X104571856Y-63273977D01*
X104571860Y-63273976D01*
X104577998Y-63273504D01*
X104777178Y-63217892D01*
X104782682Y-63215112D01*
X104782684Y-63215111D01*
X104956262Y-63127431D01*
X104956264Y-63127430D01*
X104961763Y-63124652D01*
X105124722Y-62997334D01*
X105128748Y-62992670D01*
X105128751Y-62992667D01*
X105255819Y-62845457D01*
X105255820Y-62845455D01*
X105259848Y-62840789D01*
X105361995Y-62660979D01*
X105427270Y-62464753D01*
X105453189Y-62259586D01*
X105453602Y-62230000D01*
X105452151Y-62215206D01*
X105874501Y-62215206D01*
X105891806Y-62421278D01*
X105948807Y-62620066D01*
X105951625Y-62625548D01*
X105951626Y-62625552D01*
X106040514Y-62798509D01*
X106040517Y-62798513D01*
X106043334Y-62803995D01*
X106171786Y-62966061D01*
X106329271Y-63100091D01*
X106509789Y-63200980D01*
X106706466Y-63264884D01*
X106911809Y-63289370D01*
X106917944Y-63288898D01*
X106917946Y-63288898D01*
X107111856Y-63273977D01*
X107111860Y-63273976D01*
X107117998Y-63273504D01*
X107317178Y-63217892D01*
X107322682Y-63215112D01*
X107322684Y-63215111D01*
X107496262Y-63127431D01*
X107496264Y-63127430D01*
X107501763Y-63124652D01*
X107664722Y-62997334D01*
X107668748Y-62992670D01*
X107668751Y-62992667D01*
X107795819Y-62845457D01*
X107795820Y-62845455D01*
X107799848Y-62840789D01*
X107901995Y-62660979D01*
X107967270Y-62464753D01*
X107993189Y-62259586D01*
X107993602Y-62230000D01*
X107973422Y-62024189D01*
X107913651Y-61826217D01*
X107816565Y-61643625D01*
X107812674Y-61638855D01*
X107812672Y-61638851D01*
X107689758Y-61488143D01*
X107689755Y-61488140D01*
X107685863Y-61483368D01*
X107678966Y-61477662D01*
X107531271Y-61355478D01*
X107531266Y-61355475D01*
X107526522Y-61351550D01*
X107521103Y-61348620D01*
X107521100Y-61348618D01*
X107350032Y-61256122D01*
X107350027Y-61256120D01*
X107344612Y-61253192D01*
X107147063Y-61192040D01*
X107140938Y-61191396D01*
X107140937Y-61191396D01*
X106947526Y-61171068D01*
X106947524Y-61171068D01*
X106941397Y-61170424D01*
X106815229Y-61181906D01*
X106741591Y-61188607D01*
X106741590Y-61188607D01*
X106735450Y-61189166D01*
X106537066Y-61247554D01*
X106531601Y-61250411D01*
X106359261Y-61340508D01*
X106359257Y-61340511D01*
X106353801Y-61343363D01*
X106349001Y-61347223D01*
X106349000Y-61347223D01*
X106347265Y-61348618D01*
X106192635Y-61472943D01*
X106059708Y-61631360D01*
X105960082Y-61812578D01*
X105897553Y-62009696D01*
X105874501Y-62215206D01*
X105452151Y-62215206D01*
X105433422Y-62024189D01*
X105373651Y-61826217D01*
X105276565Y-61643625D01*
X105272674Y-61638855D01*
X105272672Y-61638851D01*
X105149758Y-61488143D01*
X105149755Y-61488140D01*
X105145863Y-61483368D01*
X105138966Y-61477662D01*
X104991271Y-61355478D01*
X104991266Y-61355475D01*
X104986522Y-61351550D01*
X104981102Y-61348620D01*
X104981097Y-61348616D01*
X104964573Y-61339682D01*
X104914163Y-61289688D01*
X104898500Y-61228846D01*
X104898500Y-60320500D01*
X104918502Y-60252379D01*
X104972158Y-60205886D01*
X105024500Y-60194500D01*
X106925398Y-60194500D01*
X106926166Y-60194502D01*
X107003173Y-60194972D01*
X107004508Y-60194590D01*
X107005836Y-60194500D01*
X108843500Y-60194500D01*
X108911621Y-60214502D01*
X108958114Y-60268158D01*
X108969500Y-60320500D01*
X108969500Y-61227480D01*
X108949498Y-61295601D01*
X108904287Y-61336939D01*
X108904416Y-61337136D01*
X108903205Y-61337928D01*
X108901881Y-61339139D01*
X108893801Y-61343363D01*
X108732635Y-61472943D01*
X108599708Y-61631360D01*
X108500082Y-61812578D01*
X108437553Y-62009696D01*
X108414501Y-62215206D01*
X108431806Y-62421278D01*
X108488807Y-62620066D01*
X108491625Y-62625548D01*
X108491626Y-62625552D01*
X108580514Y-62798509D01*
X108580517Y-62798513D01*
X108583334Y-62803995D01*
X108711786Y-62966061D01*
X108869271Y-63100091D01*
X109049789Y-63200980D01*
X109246466Y-63264884D01*
X109451809Y-63289370D01*
X109457944Y-63288898D01*
X109457946Y-63288898D01*
X109651856Y-63273977D01*
X109651860Y-63273976D01*
X109657998Y-63273504D01*
X109857178Y-63217892D01*
X109862682Y-63215112D01*
X109862684Y-63215111D01*
X110036262Y-63127431D01*
X110036264Y-63127430D01*
X110041763Y-63124652D01*
X110204722Y-62997334D01*
X110208748Y-62992670D01*
X110208751Y-62992667D01*
X110335819Y-62845457D01*
X110335820Y-62845455D01*
X110339848Y-62840789D01*
X110441995Y-62660979D01*
X110507270Y-62464753D01*
X110533189Y-62259586D01*
X110533602Y-62230000D01*
X110513422Y-62024189D01*
X110453651Y-61826217D01*
X110356565Y-61643625D01*
X110352674Y-61638855D01*
X110352672Y-61638851D01*
X110229758Y-61488143D01*
X110229755Y-61488140D01*
X110225863Y-61483368D01*
X110218966Y-61477662D01*
X110071271Y-61355478D01*
X110071266Y-61355475D01*
X110066522Y-61351550D01*
X110061102Y-61348620D01*
X110061097Y-61348616D01*
X110044573Y-61339682D01*
X109994163Y-61289688D01*
X109978500Y-61228846D01*
X109978500Y-60320500D01*
X109998502Y-60252379D01*
X110052158Y-60205886D01*
X110104500Y-60194500D01*
X112005398Y-60194500D01*
X112006166Y-60194502D01*
X112083173Y-60194972D01*
X112084508Y-60194590D01*
X112085836Y-60194500D01*
X116463500Y-60194500D01*
X116531621Y-60214502D01*
X116578114Y-60268158D01*
X116589500Y-60320500D01*
X116589500Y-61227480D01*
X116569498Y-61295601D01*
X116524287Y-61336939D01*
X116524416Y-61337136D01*
X116523205Y-61337928D01*
X116521881Y-61339139D01*
X116513801Y-61343363D01*
X116352635Y-61472943D01*
X116219708Y-61631360D01*
X116120082Y-61812578D01*
X116057553Y-62009696D01*
X116034501Y-62215206D01*
X116051806Y-62421278D01*
X116108807Y-62620066D01*
X116111625Y-62625548D01*
X116111626Y-62625552D01*
X116200514Y-62798509D01*
X116200517Y-62798513D01*
X116203334Y-62803995D01*
X116331786Y-62966061D01*
X116489271Y-63100091D01*
X116669789Y-63200980D01*
X116866466Y-63264884D01*
X117071809Y-63289370D01*
X117077944Y-63288898D01*
X117077946Y-63288898D01*
X117271856Y-63273977D01*
X117271860Y-63273976D01*
X117277998Y-63273504D01*
X117477178Y-63217892D01*
X117482682Y-63215112D01*
X117482684Y-63215111D01*
X117656262Y-63127431D01*
X117656264Y-63127430D01*
X117661763Y-63124652D01*
X117824722Y-62997334D01*
X117828748Y-62992670D01*
X117828751Y-62992667D01*
X117955819Y-62845457D01*
X117955820Y-62845455D01*
X117959848Y-62840789D01*
X118061995Y-62660979D01*
X118127270Y-62464753D01*
X118153189Y-62259586D01*
X118153602Y-62230000D01*
X118133422Y-62024189D01*
X118073651Y-61826217D01*
X117976565Y-61643625D01*
X117972674Y-61638855D01*
X117972672Y-61638851D01*
X117849758Y-61488143D01*
X117849755Y-61488140D01*
X117845863Y-61483368D01*
X117838966Y-61477662D01*
X117691271Y-61355478D01*
X117691266Y-61355475D01*
X117686522Y-61351550D01*
X117681102Y-61348620D01*
X117681097Y-61348616D01*
X117664573Y-61339682D01*
X117614163Y-61289688D01*
X117598500Y-61228846D01*
X117598500Y-60320500D01*
X117618502Y-60252379D01*
X117672158Y-60205886D01*
X117724500Y-60194500D01*
X122440708Y-60194500D01*
X122508829Y-60214502D01*
X122545223Y-60254594D01*
X122547179Y-60253334D01*
X122550516Y-60258512D01*
X122553334Y-60263995D01*
X122557163Y-60268826D01*
X122582497Y-60300789D01*
X122681786Y-60426061D01*
X122686479Y-60430055D01*
X122686480Y-60430056D01*
X122831319Y-60553323D01*
X122839271Y-60560091D01*
X123019789Y-60660980D01*
X123216466Y-60724884D01*
X123421809Y-60749370D01*
X123427944Y-60748898D01*
X123427946Y-60748898D01*
X123621856Y-60733977D01*
X123621860Y-60733976D01*
X123627998Y-60733504D01*
X123827178Y-60677892D01*
X123832682Y-60675112D01*
X123832684Y-60675111D01*
X124006262Y-60587431D01*
X124006264Y-60587430D01*
X124011763Y-60584652D01*
X124174722Y-60457334D01*
X124178748Y-60452670D01*
X124178751Y-60452667D01*
X124305819Y-60305457D01*
X124305820Y-60305455D01*
X124309848Y-60300789D01*
X124363761Y-60205886D01*
X124408950Y-60126340D01*
X124408952Y-60126336D01*
X124411995Y-60120979D01*
X124477270Y-59924753D01*
X124503189Y-59719586D01*
X124503602Y-59690000D01*
X124483422Y-59484189D01*
X124423651Y-59286217D01*
X124371426Y-59187997D01*
X124329459Y-59109067D01*
X124329457Y-59109064D01*
X124326565Y-59103625D01*
X124322674Y-59098855D01*
X124322672Y-59098851D01*
X124199758Y-58948143D01*
X124199755Y-58948140D01*
X124195863Y-58943368D01*
X124188966Y-58937662D01*
X124041271Y-58815478D01*
X124041266Y-58815475D01*
X124036522Y-58811550D01*
X124031103Y-58808620D01*
X124031100Y-58808618D01*
X123860032Y-58716122D01*
X123860027Y-58716120D01*
X123854612Y-58713192D01*
X123788382Y-58692690D01*
X123729224Y-58653440D01*
X123700676Y-58588436D01*
X123711804Y-58518317D01*
X123759075Y-58465345D01*
X123793030Y-58450619D01*
X123887764Y-58425235D01*
X123898053Y-58421490D01*
X124095511Y-58329414D01*
X124105006Y-58323931D01*
X124157048Y-58287491D01*
X124165424Y-58277012D01*
X124158356Y-58263566D01*
X123456812Y-57562022D01*
X123442868Y-57554408D01*
X123441035Y-57554539D01*
X123434420Y-57558790D01*
X122728923Y-58264287D01*
X122722493Y-58276062D01*
X122731789Y-58288077D01*
X122782994Y-58323931D01*
X122792489Y-58329414D01*
X122989947Y-58421490D01*
X123000239Y-58425236D01*
X123093874Y-58450325D01*
X123154497Y-58487277D01*
X123185518Y-58551137D01*
X123177090Y-58621632D01*
X123131887Y-58676379D01*
X123096840Y-58692905D01*
X123047066Y-58707554D01*
X123041601Y-58710411D01*
X122869261Y-58800508D01*
X122869257Y-58800511D01*
X122863801Y-58803363D01*
X122702635Y-58932943D01*
X122569708Y-59091360D01*
X122566744Y-59096752D01*
X122566741Y-59096756D01*
X122553851Y-59120203D01*
X122503505Y-59170260D01*
X122443437Y-59185500D01*
X117724500Y-59185500D01*
X117656379Y-59165498D01*
X117609886Y-59111842D01*
X117598500Y-59059500D01*
X117598500Y-57195475D01*
X122131483Y-57195475D01*
X122150472Y-57412519D01*
X122152375Y-57423312D01*
X122208764Y-57633761D01*
X122212510Y-57644053D01*
X122304586Y-57841511D01*
X122310069Y-57851006D01*
X122346509Y-57903048D01*
X122356988Y-57911424D01*
X122370434Y-57904356D01*
X123071978Y-57202812D01*
X123078356Y-57191132D01*
X123808408Y-57191132D01*
X123808539Y-57192965D01*
X123812790Y-57199580D01*
X124518287Y-57905077D01*
X124530062Y-57911507D01*
X124542077Y-57902211D01*
X124577931Y-57851006D01*
X124583414Y-57841511D01*
X124675490Y-57644053D01*
X124679236Y-57633761D01*
X124735625Y-57423312D01*
X124737528Y-57412519D01*
X124756517Y-57195475D01*
X124756517Y-57184525D01*
X124737528Y-56967481D01*
X124735625Y-56956688D01*
X124679236Y-56746239D01*
X124675490Y-56735947D01*
X124583414Y-56538489D01*
X124577931Y-56528994D01*
X124541491Y-56476952D01*
X124531012Y-56468576D01*
X124517566Y-56475644D01*
X123816022Y-57177188D01*
X123808408Y-57191132D01*
X123078356Y-57191132D01*
X123079592Y-57188868D01*
X123079461Y-57187035D01*
X123075210Y-57180420D01*
X122369713Y-56474923D01*
X122357938Y-56468493D01*
X122345923Y-56477789D01*
X122310069Y-56528994D01*
X122304586Y-56538489D01*
X122212510Y-56735947D01*
X122208764Y-56746239D01*
X122152375Y-56956688D01*
X122150472Y-56967481D01*
X122131483Y-57184525D01*
X122131483Y-57195475D01*
X117598500Y-57195475D01*
X117598500Y-56102988D01*
X122722576Y-56102988D01*
X122729644Y-56116434D01*
X123431188Y-56817978D01*
X123445132Y-56825592D01*
X123446965Y-56825461D01*
X123453580Y-56821210D01*
X124159077Y-56115713D01*
X124165507Y-56103938D01*
X124156211Y-56091923D01*
X124105006Y-56056069D01*
X124095511Y-56050586D01*
X123898053Y-55958510D01*
X123887761Y-55954764D01*
X123677312Y-55898375D01*
X123666519Y-55896472D01*
X123449475Y-55877483D01*
X123438525Y-55877483D01*
X123221481Y-55896472D01*
X123210688Y-55898375D01*
X123000239Y-55954764D01*
X122989947Y-55958510D01*
X122792489Y-56050586D01*
X122782994Y-56056069D01*
X122730952Y-56092509D01*
X122722576Y-56102988D01*
X117598500Y-56102988D01*
X117598500Y-55790499D01*
X117618502Y-55722378D01*
X117672158Y-55675885D01*
X117724500Y-55664499D01*
X117919066Y-55664499D01*
X117954818Y-55657388D01*
X117981126Y-55652156D01*
X117981128Y-55652155D01*
X117993301Y-55649734D01*
X118003621Y-55642839D01*
X118003622Y-55642838D01*
X118067168Y-55600377D01*
X118077484Y-55593484D01*
X118133734Y-55509301D01*
X118148500Y-55435067D01*
X118148499Y-53784934D01*
X118141388Y-53749182D01*
X118136156Y-53722874D01*
X118136155Y-53722872D01*
X118133734Y-53710699D01*
X118118417Y-53687775D01*
X118084377Y-53636832D01*
X118077484Y-53626516D01*
X117993301Y-53570266D01*
X117919067Y-53555500D01*
X117094134Y-53555500D01*
X116268934Y-53555501D01*
X116233182Y-53562612D01*
X116206874Y-53567844D01*
X116206872Y-53567845D01*
X116194699Y-53570266D01*
X116184379Y-53577161D01*
X116184378Y-53577162D01*
X116123985Y-53617516D01*
X116110516Y-53626516D01*
X116054266Y-53710699D01*
X116039500Y-53784933D01*
X116039501Y-55435066D01*
X116044038Y-55457875D01*
X116049055Y-55483099D01*
X116054266Y-55509301D01*
X116110516Y-55593484D01*
X116194699Y-55649734D01*
X116268933Y-55664500D01*
X116463500Y-55664500D01*
X116531621Y-55684502D01*
X116578114Y-55738158D01*
X116589500Y-55790500D01*
X116589500Y-59059500D01*
X116569498Y-59127621D01*
X116515842Y-59174114D01*
X116463500Y-59185500D01*
X112644500Y-59185500D01*
X112576379Y-59165498D01*
X112529886Y-59111842D01*
X112518500Y-59059500D01*
X112518500Y-55613357D01*
X112538502Y-55545236D01*
X112576794Y-55507162D01*
X112581763Y-55504652D01*
X112586615Y-55500861D01*
X112586620Y-55500858D01*
X112678750Y-55428877D01*
X112744722Y-55377334D01*
X112748748Y-55372670D01*
X112748751Y-55372667D01*
X112875819Y-55225457D01*
X112875820Y-55225455D01*
X112879848Y-55220789D01*
X112981995Y-55040979D01*
X113033342Y-54886624D01*
X113045325Y-54850601D01*
X113045326Y-54850598D01*
X113047270Y-54844753D01*
X113073189Y-54639586D01*
X113073602Y-54610000D01*
X113072151Y-54595206D01*
X113494501Y-54595206D01*
X113511806Y-54801278D01*
X113568807Y-55000066D01*
X113571625Y-55005548D01*
X113571626Y-55005552D01*
X113660514Y-55178509D01*
X113660517Y-55178513D01*
X113663334Y-55183995D01*
X113791786Y-55346061D01*
X113796479Y-55350055D01*
X113796480Y-55350056D01*
X113889095Y-55428877D01*
X113949271Y-55480091D01*
X114129789Y-55580980D01*
X114326466Y-55644884D01*
X114531809Y-55669370D01*
X114537944Y-55668898D01*
X114537946Y-55668898D01*
X114731856Y-55653977D01*
X114731860Y-55653976D01*
X114737998Y-55653504D01*
X114937178Y-55597892D01*
X114942682Y-55595112D01*
X114942684Y-55595111D01*
X115116262Y-55507431D01*
X115116264Y-55507430D01*
X115121763Y-55504652D01*
X115284722Y-55377334D01*
X115288748Y-55372670D01*
X115288751Y-55372667D01*
X115415819Y-55225457D01*
X115415820Y-55225455D01*
X115419848Y-55220789D01*
X115521995Y-55040979D01*
X115573342Y-54886624D01*
X115585325Y-54850601D01*
X115585326Y-54850598D01*
X115587270Y-54844753D01*
X115613189Y-54639586D01*
X115613602Y-54610000D01*
X115593422Y-54404189D01*
X115533651Y-54206217D01*
X115436565Y-54023625D01*
X115432674Y-54018855D01*
X115432672Y-54018851D01*
X115309758Y-53868143D01*
X115309755Y-53868140D01*
X115305863Y-53863368D01*
X115298966Y-53857662D01*
X115151271Y-53735478D01*
X115151266Y-53735475D01*
X115146522Y-53731550D01*
X115141103Y-53728620D01*
X115141100Y-53728618D01*
X114970032Y-53636122D01*
X114970027Y-53636120D01*
X114964612Y-53633192D01*
X114767063Y-53572040D01*
X114760938Y-53571396D01*
X114760937Y-53571396D01*
X114567526Y-53551068D01*
X114567524Y-53551068D01*
X114561397Y-53550424D01*
X114435229Y-53561906D01*
X114361591Y-53568607D01*
X114361590Y-53568607D01*
X114355450Y-53569166D01*
X114157066Y-53627554D01*
X114151601Y-53630411D01*
X113979261Y-53720508D01*
X113979257Y-53720511D01*
X113973801Y-53723363D01*
X113812635Y-53852943D01*
X113679708Y-54011360D01*
X113580082Y-54192578D01*
X113517553Y-54389696D01*
X113494501Y-54595206D01*
X113072151Y-54595206D01*
X113053422Y-54404189D01*
X112993651Y-54206217D01*
X112896565Y-54023625D01*
X112892674Y-54018855D01*
X112892672Y-54018851D01*
X112769758Y-53868143D01*
X112769755Y-53868140D01*
X112765863Y-53863368D01*
X112758966Y-53857662D01*
X112611271Y-53735478D01*
X112611266Y-53735475D01*
X112606522Y-53731550D01*
X112601103Y-53728620D01*
X112601100Y-53728618D01*
X112430032Y-53636122D01*
X112430027Y-53636120D01*
X112424612Y-53633192D01*
X112227063Y-53572040D01*
X112220938Y-53571396D01*
X112220937Y-53571396D01*
X112027526Y-53551068D01*
X112027524Y-53551068D01*
X112021397Y-53550424D01*
X111895229Y-53561906D01*
X111821591Y-53568607D01*
X111821590Y-53568607D01*
X111815450Y-53569166D01*
X111617066Y-53627554D01*
X111611601Y-53630411D01*
X111439261Y-53720508D01*
X111439257Y-53720511D01*
X111433801Y-53723363D01*
X111272635Y-53852943D01*
X111139708Y-54011360D01*
X111040082Y-54192578D01*
X110977553Y-54389696D01*
X110954501Y-54595206D01*
X110971806Y-54801278D01*
X111028807Y-55000066D01*
X111031625Y-55005548D01*
X111031626Y-55005552D01*
X111120514Y-55178509D01*
X111120517Y-55178513D01*
X111123334Y-55183995D01*
X111251786Y-55346061D01*
X111256479Y-55350055D01*
X111256480Y-55350056D01*
X111349095Y-55428877D01*
X111409271Y-55480091D01*
X111414648Y-55483096D01*
X111414652Y-55483099D01*
X111444970Y-55500043D01*
X111494676Y-55550736D01*
X111509500Y-55610031D01*
X111509500Y-59059500D01*
X111489498Y-59127621D01*
X111435842Y-59174114D01*
X111383500Y-59185500D01*
X109482602Y-59185500D01*
X109481833Y-59185498D01*
X109404827Y-59185028D01*
X109403492Y-59185410D01*
X109402164Y-59185500D01*
X107564500Y-59185500D01*
X107496379Y-59165498D01*
X107449886Y-59111842D01*
X107438500Y-59059500D01*
X107438500Y-55613357D01*
X107458502Y-55545236D01*
X107496794Y-55507162D01*
X107501763Y-55504652D01*
X107506615Y-55500861D01*
X107506620Y-55500858D01*
X107598750Y-55428877D01*
X107664722Y-55377334D01*
X107668748Y-55372670D01*
X107668751Y-55372667D01*
X107795819Y-55225457D01*
X107795820Y-55225455D01*
X107799848Y-55220789D01*
X107901995Y-55040979D01*
X107953342Y-54886624D01*
X107965325Y-54850601D01*
X107965326Y-54850598D01*
X107967270Y-54844753D01*
X107993189Y-54639586D01*
X107993602Y-54610000D01*
X107992151Y-54595206D01*
X108414501Y-54595206D01*
X108431806Y-54801278D01*
X108488807Y-55000066D01*
X108491625Y-55005548D01*
X108491626Y-55005552D01*
X108580514Y-55178509D01*
X108580517Y-55178513D01*
X108583334Y-55183995D01*
X108711786Y-55346061D01*
X108716479Y-55350055D01*
X108716480Y-55350056D01*
X108809095Y-55428877D01*
X108869271Y-55480091D01*
X109049789Y-55580980D01*
X109246466Y-55644884D01*
X109451809Y-55669370D01*
X109457944Y-55668898D01*
X109457946Y-55668898D01*
X109651856Y-55653977D01*
X109651860Y-55653976D01*
X109657998Y-55653504D01*
X109857178Y-55597892D01*
X109862682Y-55595112D01*
X109862684Y-55595111D01*
X110036262Y-55507431D01*
X110036264Y-55507430D01*
X110041763Y-55504652D01*
X110204722Y-55377334D01*
X110208748Y-55372670D01*
X110208751Y-55372667D01*
X110335819Y-55225457D01*
X110335820Y-55225455D01*
X110339848Y-55220789D01*
X110441995Y-55040979D01*
X110493342Y-54886624D01*
X110505325Y-54850601D01*
X110505326Y-54850598D01*
X110507270Y-54844753D01*
X110533189Y-54639586D01*
X110533602Y-54610000D01*
X110513422Y-54404189D01*
X110453651Y-54206217D01*
X110356565Y-54023625D01*
X110352674Y-54018855D01*
X110352672Y-54018851D01*
X110229758Y-53868143D01*
X110229755Y-53868140D01*
X110225863Y-53863368D01*
X110218966Y-53857662D01*
X110071271Y-53735478D01*
X110071266Y-53735475D01*
X110066522Y-53731550D01*
X110061103Y-53728620D01*
X110061100Y-53728618D01*
X109890032Y-53636122D01*
X109890027Y-53636120D01*
X109884612Y-53633192D01*
X109687063Y-53572040D01*
X109680938Y-53571396D01*
X109680937Y-53571396D01*
X109487526Y-53551068D01*
X109487524Y-53551068D01*
X109481397Y-53550424D01*
X109355229Y-53561906D01*
X109281591Y-53568607D01*
X109281590Y-53568607D01*
X109275450Y-53569166D01*
X109077066Y-53627554D01*
X109071601Y-53630411D01*
X108899261Y-53720508D01*
X108899257Y-53720511D01*
X108893801Y-53723363D01*
X108732635Y-53852943D01*
X108599708Y-54011360D01*
X108500082Y-54192578D01*
X108437553Y-54389696D01*
X108414501Y-54595206D01*
X107992151Y-54595206D01*
X107973422Y-54404189D01*
X107913651Y-54206217D01*
X107816565Y-54023625D01*
X107812674Y-54018855D01*
X107812672Y-54018851D01*
X107689758Y-53868143D01*
X107689755Y-53868140D01*
X107685863Y-53863368D01*
X107678966Y-53857662D01*
X107531271Y-53735478D01*
X107531266Y-53735475D01*
X107526522Y-53731550D01*
X107521103Y-53728620D01*
X107521100Y-53728618D01*
X107350032Y-53636122D01*
X107350027Y-53636120D01*
X107344612Y-53633192D01*
X107147063Y-53572040D01*
X107140938Y-53571396D01*
X107140937Y-53571396D01*
X106947526Y-53551068D01*
X106947524Y-53551068D01*
X106941397Y-53550424D01*
X106815229Y-53561906D01*
X106741591Y-53568607D01*
X106741590Y-53568607D01*
X106735450Y-53569166D01*
X106537066Y-53627554D01*
X106531601Y-53630411D01*
X106359261Y-53720508D01*
X106359257Y-53720511D01*
X106353801Y-53723363D01*
X106192635Y-53852943D01*
X106059708Y-54011360D01*
X105960082Y-54192578D01*
X105897553Y-54389696D01*
X105874501Y-54595206D01*
X105891806Y-54801278D01*
X105948807Y-55000066D01*
X105951625Y-55005548D01*
X105951626Y-55005552D01*
X106040514Y-55178509D01*
X106040517Y-55178513D01*
X106043334Y-55183995D01*
X106171786Y-55346061D01*
X106176479Y-55350055D01*
X106176480Y-55350056D01*
X106269095Y-55428877D01*
X106329271Y-55480091D01*
X106334648Y-55483096D01*
X106334652Y-55483099D01*
X106364970Y-55500043D01*
X106414676Y-55550736D01*
X106429500Y-55610031D01*
X106429500Y-59059500D01*
X106409498Y-59127621D01*
X106355842Y-59174114D01*
X106303500Y-59185500D01*
X104402602Y-59185500D01*
X104401833Y-59185498D01*
X104324827Y-59185028D01*
X104323492Y-59185410D01*
X104322164Y-59185500D01*
X96844624Y-59185500D01*
X96832619Y-59184159D01*
X96832579Y-59184655D01*
X96823632Y-59183935D01*
X96814876Y-59181954D01*
X96761618Y-59185258D01*
X96753816Y-59185500D01*
X96737774Y-59185500D01*
X96733343Y-59186135D01*
X96733338Y-59186135D01*
X96729313Y-59186712D01*
X96727543Y-59186965D01*
X96717486Y-59187996D01*
X96695024Y-59189389D01*
X96679600Y-59190346D01*
X96679598Y-59190346D01*
X96670641Y-59190902D01*
X96662201Y-59193949D01*
X96658911Y-59194630D01*
X96643062Y-59198582D01*
X96639832Y-59199527D01*
X96630948Y-59200799D01*
X96588222Y-59220225D01*
X96578860Y-59224036D01*
X96543158Y-59236925D01*
X96543157Y-59236926D01*
X96534716Y-59239973D01*
X96527467Y-59245269D01*
X96524486Y-59246854D01*
X96510408Y-59255080D01*
X96507569Y-59256896D01*
X96499395Y-59260612D01*
X96492591Y-59266475D01*
X96463848Y-59291242D01*
X96455930Y-59297530D01*
X96445056Y-59305473D01*
X96434194Y-59316335D01*
X96427348Y-59322693D01*
X96389918Y-59354944D01*
X96385034Y-59362479D01*
X96379301Y-59369051D01*
X96370074Y-59380455D01*
X95197206Y-60553323D01*
X95187766Y-60560865D01*
X95188089Y-60561245D01*
X95181253Y-60567063D01*
X95173661Y-60571853D01*
X95167719Y-60578581D01*
X95138329Y-60611859D01*
X95132983Y-60617546D01*
X95121649Y-60628880D01*
X95118964Y-60632463D01*
X95118962Y-60632465D01*
X95115447Y-60637155D01*
X95109062Y-60644998D01*
X95077999Y-60680170D01*
X95074186Y-60688292D01*
X95072346Y-60691093D01*
X95063937Y-60705088D01*
X95062315Y-60708051D01*
X95056930Y-60715236D01*
X95053777Y-60723646D01*
X95053776Y-60723648D01*
X95040454Y-60759182D01*
X95036530Y-60768495D01*
X95016583Y-60810982D01*
X95015201Y-60819856D01*
X95014215Y-60823083D01*
X95010075Y-60838866D01*
X95009354Y-60842144D01*
X95006202Y-60850552D01*
X95005537Y-60859503D01*
X95002724Y-60897357D01*
X95001570Y-60907404D01*
X94999500Y-60920697D01*
X94999500Y-60936062D01*
X94999154Y-60945399D01*
X94995493Y-60994667D01*
X94997366Y-61003442D01*
X94997959Y-61012138D01*
X94999500Y-61026738D01*
X94999500Y-65037480D01*
X94979498Y-65105601D01*
X94934287Y-65146939D01*
X94934416Y-65147136D01*
X94933205Y-65147928D01*
X94931881Y-65149139D01*
X94923801Y-65153363D01*
X94762635Y-65282943D01*
X94629708Y-65441360D01*
X94530082Y-65622578D01*
X94467553Y-65819696D01*
X94444501Y-66025206D01*
X94461806Y-66231278D01*
X94518807Y-66430066D01*
X94521625Y-66435548D01*
X94521626Y-66435552D01*
X94610514Y-66608509D01*
X94610517Y-66608513D01*
X94613334Y-66613995D01*
X94741786Y-66776061D01*
X94746479Y-66780055D01*
X94746480Y-66780056D01*
X94861783Y-66878186D01*
X94899271Y-66910091D01*
X94904648Y-66913096D01*
X94904652Y-66913099D01*
X94934970Y-66930043D01*
X94984676Y-66980736D01*
X94999500Y-67040031D01*
X94999500Y-72319376D01*
X94998159Y-72331381D01*
X94998655Y-72331421D01*
X94997935Y-72340368D01*
X94995954Y-72349124D01*
X94998007Y-72382217D01*
X94999258Y-72402382D01*
X94999500Y-72410184D01*
X94999500Y-72426226D01*
X95000135Y-72430657D01*
X95000135Y-72430662D01*
X95000965Y-72436453D01*
X95001996Y-72446514D01*
X95004902Y-72493359D01*
X95007949Y-72501799D01*
X95008630Y-72505089D01*
X95012582Y-72520938D01*
X95013527Y-72524168D01*
X95014799Y-72533052D01*
X95018514Y-72541223D01*
X95034218Y-72575763D01*
X95038030Y-72585128D01*
X95050922Y-72620837D01*
X95050924Y-72620840D01*
X95053972Y-72629284D01*
X95059268Y-72636533D01*
X95060840Y-72639490D01*
X95069093Y-72653614D01*
X95070898Y-72656437D01*
X95074612Y-72664605D01*
X95080469Y-72671402D01*
X95080470Y-72671404D01*
X95105243Y-72700153D01*
X95111525Y-72708064D01*
X95119473Y-72718944D01*
X95130335Y-72729806D01*
X95136693Y-72736652D01*
X95168944Y-72774082D01*
X95176479Y-72778966D01*
X95183051Y-72784699D01*
X95194455Y-72793926D01*
X97502595Y-75102066D01*
X97536621Y-75164378D01*
X97539500Y-75191161D01*
X97539500Y-84964000D01*
X97519498Y-85032121D01*
X97465842Y-85078614D01*
X97413500Y-85090000D01*
X93674200Y-85090000D01*
X93606079Y-85069998D01*
X93559586Y-85016342D01*
X93548200Y-84964000D01*
X93548200Y-76879900D01*
X93549695Y-76867249D01*
X93550089Y-76857133D01*
X93552981Y-76845064D01*
X93548470Y-76816655D01*
X93548200Y-76814554D01*
X93548200Y-76809983D01*
X93544758Y-76792678D01*
X93543901Y-76787884D01*
X93538900Y-76756386D01*
X93538899Y-76756383D01*
X93537134Y-76745267D01*
X93534460Y-76740908D01*
X93533463Y-76735894D01*
X93526578Y-76725589D01*
X93509494Y-76700022D01*
X93506853Y-76695898D01*
X93500876Y-76686153D01*
X93500876Y-76686152D01*
X93497638Y-76680874D01*
X93494535Y-76677520D01*
X93493304Y-76675791D01*
X93484218Y-76662193D01*
X93484216Y-76662191D01*
X93477324Y-76651876D01*
X93467008Y-76644983D01*
X93459856Y-76637831D01*
X93450156Y-76629549D01*
X89746166Y-72625814D01*
X89187510Y-72021949D01*
X89155932Y-71958362D01*
X89154000Y-71936383D01*
X89154000Y-58165000D01*
X89174002Y-58096879D01*
X89227658Y-58050386D01*
X89280000Y-58039000D01*
X90742175Y-58039000D01*
X90766753Y-58041421D01*
X90779600Y-58043976D01*
X90878706Y-58024263D01*
X90962724Y-57968124D01*
X91018863Y-57884106D01*
X91033600Y-57810017D01*
X91038576Y-57785000D01*
X91036021Y-57772153D01*
X91033600Y-57747575D01*
X91033600Y-54876522D01*
X100571273Y-54876522D01*
X100618764Y-55053761D01*
X100622510Y-55064053D01*
X100714586Y-55261511D01*
X100720069Y-55271007D01*
X100845028Y-55449467D01*
X100852084Y-55457875D01*
X101006125Y-55611916D01*
X101014533Y-55618972D01*
X101192993Y-55743931D01*
X101202489Y-55749414D01*
X101399947Y-55841490D01*
X101410239Y-55845236D01*
X101582503Y-55891394D01*
X101596599Y-55891058D01*
X101600000Y-55883116D01*
X101600000Y-55877967D01*
X102108000Y-55877967D01*
X102111973Y-55891498D01*
X102120522Y-55892727D01*
X102297761Y-55845236D01*
X102308053Y-55841490D01*
X102505511Y-55749414D01*
X102515007Y-55743931D01*
X102693467Y-55618972D01*
X102701875Y-55611916D01*
X102855916Y-55457875D01*
X102862972Y-55449467D01*
X102987931Y-55271007D01*
X102993414Y-55261511D01*
X103085490Y-55064053D01*
X103089236Y-55053761D01*
X103133452Y-54888743D01*
X103170404Y-54828120D01*
X103234264Y-54797099D01*
X103304759Y-54805527D01*
X103359506Y-54850730D01*
X103376278Y-54886624D01*
X103408807Y-55000066D01*
X103411625Y-55005548D01*
X103411626Y-55005552D01*
X103500514Y-55178509D01*
X103500517Y-55178513D01*
X103503334Y-55183995D01*
X103631786Y-55346061D01*
X103636479Y-55350055D01*
X103636480Y-55350056D01*
X103729095Y-55428877D01*
X103789271Y-55480091D01*
X103969789Y-55580980D01*
X104166466Y-55644884D01*
X104371809Y-55669370D01*
X104377944Y-55668898D01*
X104377946Y-55668898D01*
X104571856Y-55653977D01*
X104571860Y-55653976D01*
X104577998Y-55653504D01*
X104777178Y-55597892D01*
X104782682Y-55595112D01*
X104782684Y-55595111D01*
X104956262Y-55507431D01*
X104956264Y-55507430D01*
X104961763Y-55504652D01*
X105124722Y-55377334D01*
X105128748Y-55372670D01*
X105128751Y-55372667D01*
X105255819Y-55225457D01*
X105255820Y-55225455D01*
X105259848Y-55220789D01*
X105361995Y-55040979D01*
X105413342Y-54886624D01*
X105425325Y-54850601D01*
X105425326Y-54850598D01*
X105427270Y-54844753D01*
X105453189Y-54639586D01*
X105453602Y-54610000D01*
X105433422Y-54404189D01*
X105373651Y-54206217D01*
X105276565Y-54023625D01*
X105272674Y-54018855D01*
X105272672Y-54018851D01*
X105149758Y-53868143D01*
X105149755Y-53868140D01*
X105145863Y-53863368D01*
X105138966Y-53857662D01*
X104991271Y-53735478D01*
X104991266Y-53735475D01*
X104986522Y-53731550D01*
X104981103Y-53728620D01*
X104981100Y-53728618D01*
X104810032Y-53636122D01*
X104810027Y-53636120D01*
X104804612Y-53633192D01*
X104607063Y-53572040D01*
X104600938Y-53571396D01*
X104600937Y-53571396D01*
X104407526Y-53551068D01*
X104407524Y-53551068D01*
X104401397Y-53550424D01*
X104275229Y-53561906D01*
X104201591Y-53568607D01*
X104201590Y-53568607D01*
X104195450Y-53569166D01*
X103997066Y-53627554D01*
X103991601Y-53630411D01*
X103819261Y-53720508D01*
X103819257Y-53720511D01*
X103813801Y-53723363D01*
X103652635Y-53852943D01*
X103519708Y-54011360D01*
X103420082Y-54192578D01*
X103418219Y-54198451D01*
X103374844Y-54335187D01*
X103335181Y-54394072D01*
X103269979Y-54422164D01*
X103199939Y-54410547D01*
X103147299Y-54362907D01*
X103133035Y-54329700D01*
X103089236Y-54166239D01*
X103085490Y-54155947D01*
X102993414Y-53958489D01*
X102987931Y-53948993D01*
X102862972Y-53770533D01*
X102855916Y-53762125D01*
X102701875Y-53608084D01*
X102693467Y-53601028D01*
X102515007Y-53476069D01*
X102505511Y-53470586D01*
X102308053Y-53378510D01*
X102297761Y-53374764D01*
X102125497Y-53328606D01*
X102111401Y-53328942D01*
X102108000Y-53336884D01*
X102108000Y-55877967D01*
X101600000Y-55877967D01*
X101600000Y-54882115D01*
X101595525Y-54866876D01*
X101594135Y-54865671D01*
X101586452Y-54864000D01*
X100586033Y-54864000D01*
X100572502Y-54867973D01*
X100571273Y-54876522D01*
X91033600Y-54876522D01*
X91033600Y-54338503D01*
X100572606Y-54338503D01*
X100572942Y-54352599D01*
X100580884Y-54356000D01*
X101581885Y-54356000D01*
X101597124Y-54351525D01*
X101598329Y-54350135D01*
X101600000Y-54342452D01*
X101600000Y-53342033D01*
X101596027Y-53328502D01*
X101587478Y-53327273D01*
X101410239Y-53374764D01*
X101399947Y-53378510D01*
X101202489Y-53470586D01*
X101192993Y-53476069D01*
X101014533Y-53601028D01*
X101006125Y-53608084D01*
X100852084Y-53762125D01*
X100845028Y-53770533D01*
X100720069Y-53948993D01*
X100714586Y-53958489D01*
X100622510Y-54155947D01*
X100618764Y-54166239D01*
X100572606Y-54338503D01*
X91033600Y-54338503D01*
X91033600Y-53834625D01*
X91036021Y-53810044D01*
X91036155Y-53809370D01*
X91038576Y-53797200D01*
X91018863Y-53698094D01*
X90975497Y-53633192D01*
X90969617Y-53624392D01*
X90962724Y-53614076D01*
X90878706Y-53557937D01*
X90804617Y-53543200D01*
X90791772Y-53540645D01*
X90779600Y-53538224D01*
X90766753Y-53540779D01*
X90742175Y-53543200D01*
X89280000Y-53543200D01*
X89211879Y-53523198D01*
X89165386Y-53469542D01*
X89154000Y-53417200D01*
X89154000Y-49974933D01*
X94449500Y-49974933D01*
X94449501Y-51625066D01*
X94464266Y-51699301D01*
X94520516Y-51783484D01*
X94604699Y-51839734D01*
X94678933Y-51854500D01*
X95503866Y-51854500D01*
X96329066Y-51854499D01*
X96364818Y-51847388D01*
X96391126Y-51842156D01*
X96391128Y-51842155D01*
X96403301Y-51839734D01*
X96413621Y-51832839D01*
X96413622Y-51832838D01*
X96477168Y-51790377D01*
X96487484Y-51783484D01*
X96543734Y-51699301D01*
X96558500Y-51625067D01*
X96558499Y-50785206D01*
X96984501Y-50785206D01*
X97001806Y-50991278D01*
X97058807Y-51190066D01*
X97061625Y-51195548D01*
X97061626Y-51195552D01*
X97150514Y-51368509D01*
X97150517Y-51368513D01*
X97153334Y-51373995D01*
X97281786Y-51536061D01*
X97286479Y-51540055D01*
X97286480Y-51540056D01*
X97379095Y-51618877D01*
X97439271Y-51670091D01*
X97619789Y-51770980D01*
X97816466Y-51834884D01*
X98021809Y-51859370D01*
X98027944Y-51858898D01*
X98027946Y-51858898D01*
X98221856Y-51843977D01*
X98221860Y-51843976D01*
X98227998Y-51843504D01*
X98427178Y-51787892D01*
X98432682Y-51785112D01*
X98432684Y-51785111D01*
X98606262Y-51697431D01*
X98606264Y-51697430D01*
X98611763Y-51694652D01*
X98774722Y-51567334D01*
X98778748Y-51562670D01*
X98778751Y-51562667D01*
X98905819Y-51415457D01*
X98905820Y-51415455D01*
X98909848Y-51410789D01*
X99011995Y-51230979D01*
X99066361Y-51067548D01*
X99075325Y-51040601D01*
X99075326Y-51040598D01*
X99077270Y-51034753D01*
X99103189Y-50829586D01*
X99103602Y-50800000D01*
X99102151Y-50785206D01*
X99524501Y-50785206D01*
X99541806Y-50991278D01*
X99598807Y-51190066D01*
X99601625Y-51195548D01*
X99601626Y-51195552D01*
X99690514Y-51368509D01*
X99690517Y-51368513D01*
X99693334Y-51373995D01*
X99821786Y-51536061D01*
X99826479Y-51540055D01*
X99826480Y-51540056D01*
X99919095Y-51618877D01*
X99979271Y-51670091D01*
X100159789Y-51770980D01*
X100356466Y-51834884D01*
X100561809Y-51859370D01*
X100567944Y-51858898D01*
X100567946Y-51858898D01*
X100761856Y-51843977D01*
X100761860Y-51843976D01*
X100767998Y-51843504D01*
X100967178Y-51787892D01*
X100972682Y-51785112D01*
X100972684Y-51785111D01*
X101146262Y-51697431D01*
X101146264Y-51697430D01*
X101151763Y-51694652D01*
X101314722Y-51567334D01*
X101318748Y-51562670D01*
X101318751Y-51562667D01*
X101445819Y-51415457D01*
X101445820Y-51415455D01*
X101449848Y-51410789D01*
X101551995Y-51230979D01*
X101606361Y-51067548D01*
X101615325Y-51040601D01*
X101615326Y-51040598D01*
X101617270Y-51034753D01*
X101643189Y-50829586D01*
X101643602Y-50800000D01*
X101642151Y-50785206D01*
X102064501Y-50785206D01*
X102081806Y-50991278D01*
X102138807Y-51190066D01*
X102141625Y-51195548D01*
X102141626Y-51195552D01*
X102230514Y-51368509D01*
X102230517Y-51368513D01*
X102233334Y-51373995D01*
X102361786Y-51536061D01*
X102366479Y-51540055D01*
X102366480Y-51540056D01*
X102459095Y-51618877D01*
X102519271Y-51670091D01*
X102699789Y-51770980D01*
X102896466Y-51834884D01*
X103101809Y-51859370D01*
X103107944Y-51858898D01*
X103107946Y-51858898D01*
X103301856Y-51843977D01*
X103301860Y-51843976D01*
X103307998Y-51843504D01*
X103507178Y-51787892D01*
X103512682Y-51785112D01*
X103512684Y-51785111D01*
X103686262Y-51697431D01*
X103686264Y-51697430D01*
X103691763Y-51694652D01*
X103854722Y-51567334D01*
X103858748Y-51562670D01*
X103858751Y-51562667D01*
X103985819Y-51415457D01*
X103985820Y-51415455D01*
X103989848Y-51410789D01*
X104091995Y-51230979D01*
X104146361Y-51067548D01*
X104155325Y-51040601D01*
X104155326Y-51040598D01*
X104157270Y-51034753D01*
X104183189Y-50829586D01*
X104183602Y-50800000D01*
X104182151Y-50785206D01*
X104604501Y-50785206D01*
X104621806Y-50991278D01*
X104678807Y-51190066D01*
X104681625Y-51195548D01*
X104681626Y-51195552D01*
X104770514Y-51368509D01*
X104770517Y-51368513D01*
X104773334Y-51373995D01*
X104901786Y-51536061D01*
X104906479Y-51540055D01*
X104906480Y-51540056D01*
X104999095Y-51618877D01*
X105059271Y-51670091D01*
X105239789Y-51770980D01*
X105436466Y-51834884D01*
X105641809Y-51859370D01*
X105647944Y-51858898D01*
X105647946Y-51858898D01*
X105841856Y-51843977D01*
X105841860Y-51843976D01*
X105847998Y-51843504D01*
X106047178Y-51787892D01*
X106052682Y-51785112D01*
X106052684Y-51785111D01*
X106226262Y-51697431D01*
X106226264Y-51697430D01*
X106231763Y-51694652D01*
X106394722Y-51567334D01*
X106398748Y-51562670D01*
X106398751Y-51562667D01*
X106525819Y-51415457D01*
X106525820Y-51415455D01*
X106529848Y-51410789D01*
X106631995Y-51230979D01*
X106686361Y-51067548D01*
X106695325Y-51040601D01*
X106695326Y-51040598D01*
X106697270Y-51034753D01*
X106723189Y-50829586D01*
X106723602Y-50800000D01*
X106722151Y-50785206D01*
X107144501Y-50785206D01*
X107161806Y-50991278D01*
X107218807Y-51190066D01*
X107221625Y-51195548D01*
X107221626Y-51195552D01*
X107310514Y-51368509D01*
X107310517Y-51368513D01*
X107313334Y-51373995D01*
X107441786Y-51536061D01*
X107446479Y-51540055D01*
X107446480Y-51540056D01*
X107539095Y-51618877D01*
X107599271Y-51670091D01*
X107779789Y-51770980D01*
X107976466Y-51834884D01*
X108181809Y-51859370D01*
X108187944Y-51858898D01*
X108187946Y-51858898D01*
X108381856Y-51843977D01*
X108381860Y-51843976D01*
X108387998Y-51843504D01*
X108587178Y-51787892D01*
X108592682Y-51785112D01*
X108592684Y-51785111D01*
X108766262Y-51697431D01*
X108766264Y-51697430D01*
X108771763Y-51694652D01*
X108934722Y-51567334D01*
X108938748Y-51562670D01*
X108938751Y-51562667D01*
X109065819Y-51415457D01*
X109065820Y-51415455D01*
X109069848Y-51410789D01*
X109171995Y-51230979D01*
X109226361Y-51067548D01*
X109235325Y-51040601D01*
X109235326Y-51040598D01*
X109237270Y-51034753D01*
X109263189Y-50829586D01*
X109263602Y-50800000D01*
X109262151Y-50785206D01*
X109684501Y-50785206D01*
X109701806Y-50991278D01*
X109758807Y-51190066D01*
X109761625Y-51195548D01*
X109761626Y-51195552D01*
X109850514Y-51368509D01*
X109850517Y-51368513D01*
X109853334Y-51373995D01*
X109981786Y-51536061D01*
X109986479Y-51540055D01*
X109986480Y-51540056D01*
X110079095Y-51618877D01*
X110139271Y-51670091D01*
X110319789Y-51770980D01*
X110516466Y-51834884D01*
X110721809Y-51859370D01*
X110727944Y-51858898D01*
X110727946Y-51858898D01*
X110921856Y-51843977D01*
X110921860Y-51843976D01*
X110927998Y-51843504D01*
X111127178Y-51787892D01*
X111132682Y-51785112D01*
X111132684Y-51785111D01*
X111306262Y-51697431D01*
X111306264Y-51697430D01*
X111311763Y-51694652D01*
X111474722Y-51567334D01*
X111478748Y-51562670D01*
X111478751Y-51562667D01*
X111605819Y-51415457D01*
X111605820Y-51415455D01*
X111609848Y-51410789D01*
X111711995Y-51230979D01*
X111766361Y-51067548D01*
X111775325Y-51040601D01*
X111775326Y-51040598D01*
X111777270Y-51034753D01*
X111803189Y-50829586D01*
X111803602Y-50800000D01*
X111802151Y-50785206D01*
X112224501Y-50785206D01*
X112241806Y-50991278D01*
X112298807Y-51190066D01*
X112301625Y-51195548D01*
X112301626Y-51195552D01*
X112390514Y-51368509D01*
X112390517Y-51368513D01*
X112393334Y-51373995D01*
X112521786Y-51536061D01*
X112526479Y-51540055D01*
X112526480Y-51540056D01*
X112619095Y-51618877D01*
X112679271Y-51670091D01*
X112859789Y-51770980D01*
X113056466Y-51834884D01*
X113261809Y-51859370D01*
X113267944Y-51858898D01*
X113267946Y-51858898D01*
X113461856Y-51843977D01*
X113461860Y-51843976D01*
X113467998Y-51843504D01*
X113667178Y-51787892D01*
X113672682Y-51785112D01*
X113672684Y-51785111D01*
X113846262Y-51697431D01*
X113846264Y-51697430D01*
X113851763Y-51694652D01*
X114014722Y-51567334D01*
X114018748Y-51562670D01*
X114018751Y-51562667D01*
X114145819Y-51415457D01*
X114145820Y-51415455D01*
X114149848Y-51410789D01*
X114251995Y-51230979D01*
X114306361Y-51067548D01*
X114315325Y-51040601D01*
X114315326Y-51040598D01*
X114317270Y-51034753D01*
X114343189Y-50829586D01*
X114343602Y-50800000D01*
X114342151Y-50785206D01*
X114764501Y-50785206D01*
X114781806Y-50991278D01*
X114838807Y-51190066D01*
X114841625Y-51195548D01*
X114841626Y-51195552D01*
X114930514Y-51368509D01*
X114930517Y-51368513D01*
X114933334Y-51373995D01*
X115061786Y-51536061D01*
X115066479Y-51540055D01*
X115066480Y-51540056D01*
X115159095Y-51618877D01*
X115219271Y-51670091D01*
X115399789Y-51770980D01*
X115596466Y-51834884D01*
X115801809Y-51859370D01*
X115807944Y-51858898D01*
X115807946Y-51858898D01*
X116001856Y-51843977D01*
X116001860Y-51843976D01*
X116007998Y-51843504D01*
X116207178Y-51787892D01*
X116212682Y-51785112D01*
X116212684Y-51785111D01*
X116386262Y-51697431D01*
X116386264Y-51697430D01*
X116391763Y-51694652D01*
X116554722Y-51567334D01*
X116558748Y-51562670D01*
X116558751Y-51562667D01*
X116685819Y-51415457D01*
X116685820Y-51415455D01*
X116689848Y-51410789D01*
X116791995Y-51230979D01*
X116846361Y-51067548D01*
X116855325Y-51040601D01*
X116855326Y-51040598D01*
X116857270Y-51034753D01*
X116883189Y-50829586D01*
X116883602Y-50800000D01*
X116882151Y-50785206D01*
X117304501Y-50785206D01*
X117321806Y-50991278D01*
X117378807Y-51190066D01*
X117381625Y-51195548D01*
X117381626Y-51195552D01*
X117470514Y-51368509D01*
X117470517Y-51368513D01*
X117473334Y-51373995D01*
X117601786Y-51536061D01*
X117606479Y-51540055D01*
X117606480Y-51540056D01*
X117699095Y-51618877D01*
X117759271Y-51670091D01*
X117939789Y-51770980D01*
X118136466Y-51834884D01*
X118341809Y-51859370D01*
X118347944Y-51858898D01*
X118347946Y-51858898D01*
X118541856Y-51843977D01*
X118541860Y-51843976D01*
X118547998Y-51843504D01*
X118747178Y-51787892D01*
X118752682Y-51785112D01*
X118752684Y-51785111D01*
X118926262Y-51697431D01*
X118926264Y-51697430D01*
X118931763Y-51694652D01*
X119094722Y-51567334D01*
X119098748Y-51562670D01*
X119098751Y-51562667D01*
X119225819Y-51415457D01*
X119225820Y-51415455D01*
X119229848Y-51410789D01*
X119331995Y-51230979D01*
X119386361Y-51067548D01*
X119395325Y-51040601D01*
X119395326Y-51040598D01*
X119397270Y-51034753D01*
X119423189Y-50829586D01*
X119423602Y-50800000D01*
X119422151Y-50785206D01*
X119844501Y-50785206D01*
X119861806Y-50991278D01*
X119918807Y-51190066D01*
X119921625Y-51195548D01*
X119921626Y-51195552D01*
X120010514Y-51368509D01*
X120010517Y-51368513D01*
X120013334Y-51373995D01*
X120141786Y-51536061D01*
X120146479Y-51540055D01*
X120146480Y-51540056D01*
X120239095Y-51618877D01*
X120299271Y-51670091D01*
X120479789Y-51770980D01*
X120676466Y-51834884D01*
X120881809Y-51859370D01*
X120887944Y-51858898D01*
X120887946Y-51858898D01*
X121081856Y-51843977D01*
X121081860Y-51843976D01*
X121087998Y-51843504D01*
X121287178Y-51787892D01*
X121292682Y-51785112D01*
X121292684Y-51785111D01*
X121466262Y-51697431D01*
X121466264Y-51697430D01*
X121471763Y-51694652D01*
X121634722Y-51567334D01*
X121638748Y-51562670D01*
X121638751Y-51562667D01*
X121765819Y-51415457D01*
X121765820Y-51415455D01*
X121769848Y-51410789D01*
X121871995Y-51230979D01*
X121873940Y-51225131D01*
X121873943Y-51225125D01*
X121924058Y-51074473D01*
X121964539Y-51016149D01*
X122030127Y-50988969D01*
X122099998Y-51001564D01*
X122151967Y-51049934D01*
X122165323Y-51081634D01*
X122208764Y-51243761D01*
X122212510Y-51254053D01*
X122304586Y-51451511D01*
X122310069Y-51461007D01*
X122435028Y-51639467D01*
X122442084Y-51647875D01*
X122596125Y-51801916D01*
X122604533Y-51808972D01*
X122782993Y-51933931D01*
X122792489Y-51939414D01*
X122989947Y-52031490D01*
X123000239Y-52035236D01*
X123172503Y-52081394D01*
X123186599Y-52081058D01*
X123190000Y-52073116D01*
X123190000Y-52067967D01*
X123698000Y-52067967D01*
X123701973Y-52081498D01*
X123710522Y-52082727D01*
X123887761Y-52035236D01*
X123898053Y-52031490D01*
X124095511Y-51939414D01*
X124105007Y-51933931D01*
X124283467Y-51808972D01*
X124291875Y-51801916D01*
X124445916Y-51647875D01*
X124452972Y-51639467D01*
X124577931Y-51461007D01*
X124583414Y-51451511D01*
X124675490Y-51254053D01*
X124679236Y-51243761D01*
X124725394Y-51071497D01*
X124725058Y-51057401D01*
X124717116Y-51054000D01*
X123716115Y-51054000D01*
X123700876Y-51058475D01*
X123699671Y-51059865D01*
X123698000Y-51067548D01*
X123698000Y-52067967D01*
X123190000Y-52067967D01*
X123190000Y-50527885D01*
X123698000Y-50527885D01*
X123702475Y-50543124D01*
X123703865Y-50544329D01*
X123711548Y-50546000D01*
X124711967Y-50546000D01*
X124725498Y-50542027D01*
X124726727Y-50533478D01*
X124679236Y-50356239D01*
X124675490Y-50345947D01*
X124583414Y-50148489D01*
X124577931Y-50138993D01*
X124452972Y-49960533D01*
X124445916Y-49952125D01*
X124291875Y-49798084D01*
X124283467Y-49791028D01*
X124105007Y-49666069D01*
X124095511Y-49660586D01*
X123898053Y-49568510D01*
X123887761Y-49564764D01*
X123715497Y-49518606D01*
X123701401Y-49518942D01*
X123698000Y-49526884D01*
X123698000Y-50527885D01*
X123190000Y-50527885D01*
X123190000Y-49532033D01*
X123186027Y-49518502D01*
X123177478Y-49517273D01*
X123000239Y-49564764D01*
X122989947Y-49568510D01*
X122792489Y-49660586D01*
X122782993Y-49666069D01*
X122604533Y-49791028D01*
X122596125Y-49798084D01*
X122442084Y-49952125D01*
X122435028Y-49960533D01*
X122310069Y-50138993D01*
X122304586Y-50148489D01*
X122212510Y-50345947D01*
X122208765Y-50356236D01*
X122164704Y-50520673D01*
X122127752Y-50581295D01*
X122063891Y-50612317D01*
X121993397Y-50603888D01*
X121938650Y-50558685D01*
X121922375Y-50524479D01*
X121885432Y-50402116D01*
X121883651Y-50396217D01*
X121786565Y-50213625D01*
X121782674Y-50208855D01*
X121782672Y-50208851D01*
X121659758Y-50058143D01*
X121659755Y-50058140D01*
X121655863Y-50053368D01*
X121648966Y-50047662D01*
X121501271Y-49925478D01*
X121501266Y-49925475D01*
X121496522Y-49921550D01*
X121491103Y-49918620D01*
X121491100Y-49918618D01*
X121320032Y-49826122D01*
X121320027Y-49826120D01*
X121314612Y-49823192D01*
X121117063Y-49762040D01*
X121110938Y-49761396D01*
X121110937Y-49761396D01*
X120917526Y-49741068D01*
X120917524Y-49741068D01*
X120911397Y-49740424D01*
X120785229Y-49751906D01*
X120711591Y-49758607D01*
X120711590Y-49758607D01*
X120705450Y-49759166D01*
X120507066Y-49817554D01*
X120501601Y-49820411D01*
X120329261Y-49910508D01*
X120329257Y-49910511D01*
X120323801Y-49913363D01*
X120162635Y-50042943D01*
X120029708Y-50201360D01*
X119930082Y-50382578D01*
X119867553Y-50579696D01*
X119844501Y-50785206D01*
X119422151Y-50785206D01*
X119403422Y-50594189D01*
X119343651Y-50396217D01*
X119246565Y-50213625D01*
X119242674Y-50208855D01*
X119242672Y-50208851D01*
X119119758Y-50058143D01*
X119119755Y-50058140D01*
X119115863Y-50053368D01*
X119108966Y-50047662D01*
X118961271Y-49925478D01*
X118961266Y-49925475D01*
X118956522Y-49921550D01*
X118951103Y-49918620D01*
X118951100Y-49918618D01*
X118780032Y-49826122D01*
X118780027Y-49826120D01*
X118774612Y-49823192D01*
X118577063Y-49762040D01*
X118570938Y-49761396D01*
X118570937Y-49761396D01*
X118377526Y-49741068D01*
X118377524Y-49741068D01*
X118371397Y-49740424D01*
X118245229Y-49751906D01*
X118171591Y-49758607D01*
X118171590Y-49758607D01*
X118165450Y-49759166D01*
X117967066Y-49817554D01*
X117961601Y-49820411D01*
X117789261Y-49910508D01*
X117789257Y-49910511D01*
X117783801Y-49913363D01*
X117622635Y-50042943D01*
X117489708Y-50201360D01*
X117390082Y-50382578D01*
X117327553Y-50579696D01*
X117304501Y-50785206D01*
X116882151Y-50785206D01*
X116863422Y-50594189D01*
X116803651Y-50396217D01*
X116706565Y-50213625D01*
X116702674Y-50208855D01*
X116702672Y-50208851D01*
X116579758Y-50058143D01*
X116579755Y-50058140D01*
X116575863Y-50053368D01*
X116568966Y-50047662D01*
X116421271Y-49925478D01*
X116421266Y-49925475D01*
X116416522Y-49921550D01*
X116411103Y-49918620D01*
X116411100Y-49918618D01*
X116240032Y-49826122D01*
X116240027Y-49826120D01*
X116234612Y-49823192D01*
X116037063Y-49762040D01*
X116030938Y-49761396D01*
X116030937Y-49761396D01*
X115837526Y-49741068D01*
X115837524Y-49741068D01*
X115831397Y-49740424D01*
X115705229Y-49751906D01*
X115631591Y-49758607D01*
X115631590Y-49758607D01*
X115625450Y-49759166D01*
X115427066Y-49817554D01*
X115421601Y-49820411D01*
X115249261Y-49910508D01*
X115249257Y-49910511D01*
X115243801Y-49913363D01*
X115082635Y-50042943D01*
X114949708Y-50201360D01*
X114850082Y-50382578D01*
X114787553Y-50579696D01*
X114764501Y-50785206D01*
X114342151Y-50785206D01*
X114323422Y-50594189D01*
X114263651Y-50396217D01*
X114166565Y-50213625D01*
X114162674Y-50208855D01*
X114162672Y-50208851D01*
X114039758Y-50058143D01*
X114039755Y-50058140D01*
X114035863Y-50053368D01*
X114028966Y-50047662D01*
X113881271Y-49925478D01*
X113881266Y-49925475D01*
X113876522Y-49921550D01*
X113871103Y-49918620D01*
X113871100Y-49918618D01*
X113700032Y-49826122D01*
X113700027Y-49826120D01*
X113694612Y-49823192D01*
X113497063Y-49762040D01*
X113490938Y-49761396D01*
X113490937Y-49761396D01*
X113297526Y-49741068D01*
X113297524Y-49741068D01*
X113291397Y-49740424D01*
X113165229Y-49751906D01*
X113091591Y-49758607D01*
X113091590Y-49758607D01*
X113085450Y-49759166D01*
X112887066Y-49817554D01*
X112881601Y-49820411D01*
X112709261Y-49910508D01*
X112709257Y-49910511D01*
X112703801Y-49913363D01*
X112542635Y-50042943D01*
X112409708Y-50201360D01*
X112310082Y-50382578D01*
X112247553Y-50579696D01*
X112224501Y-50785206D01*
X111802151Y-50785206D01*
X111783422Y-50594189D01*
X111723651Y-50396217D01*
X111626565Y-50213625D01*
X111622674Y-50208855D01*
X111622672Y-50208851D01*
X111499758Y-50058143D01*
X111499755Y-50058140D01*
X111495863Y-50053368D01*
X111488966Y-50047662D01*
X111341271Y-49925478D01*
X111341266Y-49925475D01*
X111336522Y-49921550D01*
X111331103Y-49918620D01*
X111331100Y-49918618D01*
X111160032Y-49826122D01*
X111160027Y-49826120D01*
X111154612Y-49823192D01*
X110957063Y-49762040D01*
X110950938Y-49761396D01*
X110950937Y-49761396D01*
X110757526Y-49741068D01*
X110757524Y-49741068D01*
X110751397Y-49740424D01*
X110625229Y-49751906D01*
X110551591Y-49758607D01*
X110551590Y-49758607D01*
X110545450Y-49759166D01*
X110347066Y-49817554D01*
X110341601Y-49820411D01*
X110169261Y-49910508D01*
X110169257Y-49910511D01*
X110163801Y-49913363D01*
X110002635Y-50042943D01*
X109869708Y-50201360D01*
X109770082Y-50382578D01*
X109707553Y-50579696D01*
X109684501Y-50785206D01*
X109262151Y-50785206D01*
X109243422Y-50594189D01*
X109183651Y-50396217D01*
X109086565Y-50213625D01*
X109082674Y-50208855D01*
X109082672Y-50208851D01*
X108959758Y-50058143D01*
X108959755Y-50058140D01*
X108955863Y-50053368D01*
X108948966Y-50047662D01*
X108801271Y-49925478D01*
X108801266Y-49925475D01*
X108796522Y-49921550D01*
X108791103Y-49918620D01*
X108791100Y-49918618D01*
X108620032Y-49826122D01*
X108620027Y-49826120D01*
X108614612Y-49823192D01*
X108417063Y-49762040D01*
X108410938Y-49761396D01*
X108410937Y-49761396D01*
X108217526Y-49741068D01*
X108217524Y-49741068D01*
X108211397Y-49740424D01*
X108085229Y-49751906D01*
X108011591Y-49758607D01*
X108011590Y-49758607D01*
X108005450Y-49759166D01*
X107807066Y-49817554D01*
X107801601Y-49820411D01*
X107629261Y-49910508D01*
X107629257Y-49910511D01*
X107623801Y-49913363D01*
X107462635Y-50042943D01*
X107329708Y-50201360D01*
X107230082Y-50382578D01*
X107167553Y-50579696D01*
X107144501Y-50785206D01*
X106722151Y-50785206D01*
X106703422Y-50594189D01*
X106643651Y-50396217D01*
X106546565Y-50213625D01*
X106542674Y-50208855D01*
X106542672Y-50208851D01*
X106419758Y-50058143D01*
X106419755Y-50058140D01*
X106415863Y-50053368D01*
X106408966Y-50047662D01*
X106261271Y-49925478D01*
X106261266Y-49925475D01*
X106256522Y-49921550D01*
X106251103Y-49918620D01*
X106251100Y-49918618D01*
X106080032Y-49826122D01*
X106080027Y-49826120D01*
X106074612Y-49823192D01*
X105877063Y-49762040D01*
X105870938Y-49761396D01*
X105870937Y-49761396D01*
X105677526Y-49741068D01*
X105677524Y-49741068D01*
X105671397Y-49740424D01*
X105545229Y-49751906D01*
X105471591Y-49758607D01*
X105471590Y-49758607D01*
X105465450Y-49759166D01*
X105267066Y-49817554D01*
X105261601Y-49820411D01*
X105089261Y-49910508D01*
X105089257Y-49910511D01*
X105083801Y-49913363D01*
X104922635Y-50042943D01*
X104789708Y-50201360D01*
X104690082Y-50382578D01*
X104627553Y-50579696D01*
X104604501Y-50785206D01*
X104182151Y-50785206D01*
X104163422Y-50594189D01*
X104103651Y-50396217D01*
X104006565Y-50213625D01*
X104002674Y-50208855D01*
X104002672Y-50208851D01*
X103879758Y-50058143D01*
X103879755Y-50058140D01*
X103875863Y-50053368D01*
X103868966Y-50047662D01*
X103721271Y-49925478D01*
X103721266Y-49925475D01*
X103716522Y-49921550D01*
X103711103Y-49918620D01*
X103711100Y-49918618D01*
X103540032Y-49826122D01*
X103540027Y-49826120D01*
X103534612Y-49823192D01*
X103337063Y-49762040D01*
X103330938Y-49761396D01*
X103330937Y-49761396D01*
X103137526Y-49741068D01*
X103137524Y-49741068D01*
X103131397Y-49740424D01*
X103005229Y-49751906D01*
X102931591Y-49758607D01*
X102931590Y-49758607D01*
X102925450Y-49759166D01*
X102727066Y-49817554D01*
X102721601Y-49820411D01*
X102549261Y-49910508D01*
X102549257Y-49910511D01*
X102543801Y-49913363D01*
X102382635Y-50042943D01*
X102249708Y-50201360D01*
X102150082Y-50382578D01*
X102087553Y-50579696D01*
X102064501Y-50785206D01*
X101642151Y-50785206D01*
X101623422Y-50594189D01*
X101563651Y-50396217D01*
X101466565Y-50213625D01*
X101462674Y-50208855D01*
X101462672Y-50208851D01*
X101339758Y-50058143D01*
X101339755Y-50058140D01*
X101335863Y-50053368D01*
X101328966Y-50047662D01*
X101181271Y-49925478D01*
X101181266Y-49925475D01*
X101176522Y-49921550D01*
X101171103Y-49918620D01*
X101171100Y-49918618D01*
X101000032Y-49826122D01*
X101000027Y-49826120D01*
X100994612Y-49823192D01*
X100797063Y-49762040D01*
X100790938Y-49761396D01*
X100790937Y-49761396D01*
X100597526Y-49741068D01*
X100597524Y-49741068D01*
X100591397Y-49740424D01*
X100465229Y-49751906D01*
X100391591Y-49758607D01*
X100391590Y-49758607D01*
X100385450Y-49759166D01*
X100187066Y-49817554D01*
X100181601Y-49820411D01*
X100009261Y-49910508D01*
X100009257Y-49910511D01*
X100003801Y-49913363D01*
X99842635Y-50042943D01*
X99709708Y-50201360D01*
X99610082Y-50382578D01*
X99547553Y-50579696D01*
X99524501Y-50785206D01*
X99102151Y-50785206D01*
X99083422Y-50594189D01*
X99023651Y-50396217D01*
X98926565Y-50213625D01*
X98922674Y-50208855D01*
X98922672Y-50208851D01*
X98799758Y-50058143D01*
X98799755Y-50058140D01*
X98795863Y-50053368D01*
X98788966Y-50047662D01*
X98641271Y-49925478D01*
X98641266Y-49925475D01*
X98636522Y-49921550D01*
X98631103Y-49918620D01*
X98631100Y-49918618D01*
X98460032Y-49826122D01*
X98460027Y-49826120D01*
X98454612Y-49823192D01*
X98257063Y-49762040D01*
X98250938Y-49761396D01*
X98250937Y-49761396D01*
X98057526Y-49741068D01*
X98057524Y-49741068D01*
X98051397Y-49740424D01*
X97925229Y-49751906D01*
X97851591Y-49758607D01*
X97851590Y-49758607D01*
X97845450Y-49759166D01*
X97647066Y-49817554D01*
X97641601Y-49820411D01*
X97469261Y-49910508D01*
X97469257Y-49910511D01*
X97463801Y-49913363D01*
X97302635Y-50042943D01*
X97169708Y-50201360D01*
X97070082Y-50382578D01*
X97007553Y-50579696D01*
X96984501Y-50785206D01*
X96558499Y-50785206D01*
X96558499Y-49974934D01*
X96551388Y-49939182D01*
X96546156Y-49912874D01*
X96546155Y-49912872D01*
X96543734Y-49900699D01*
X96487484Y-49816516D01*
X96403301Y-49760266D01*
X96329067Y-49745500D01*
X95504134Y-49745500D01*
X94678934Y-49745501D01*
X94643182Y-49752612D01*
X94616874Y-49757844D01*
X94616872Y-49757845D01*
X94604699Y-49760266D01*
X94594379Y-49767161D01*
X94594378Y-49767162D01*
X94558661Y-49791028D01*
X94520516Y-49816516D01*
X94464266Y-49900699D01*
X94449500Y-49974933D01*
X89154000Y-49974933D01*
X89154000Y-46227000D01*
X89174002Y-46158879D01*
X89227658Y-46112386D01*
X89280000Y-46101000D01*
X129795000Y-46101000D01*
X129863121Y-46121002D01*
G37*
G04 #@! TD.AperFunction*
M02*
