M48
; DRILL file {KiCad 6.0.2+dfsg-1} date Mon 30 Jun 2025 10:41:36 PM CEST
; FORMAT={-:-/ absolute / metric / decimal}
; #@! TF.CreationDate,2025-06-30T22:41:36+02:00
; #@! TF.GenerationSoftware,Kicad,Pcbnew,6.0.2+dfsg-1
; #@! TF.FileFunction,Plated,1,2,PTH
FMAT,2
METRIC
; #@! TA.AperFunction,Plated,PTH,ComponentDrill
T1C0.800
%
G90
G05
T1
X95.504Y-50.8
X95.504Y-66.04
X98.044Y-50.8
X98.044Y-66.04
X100.584Y-50.8
X100.584Y-66.04
X101.854Y-54.61
X101.854Y-62.23
X103.124Y-50.8
X103.124Y-66.04
X104.394Y-54.61
X104.394Y-62.23
X105.664Y-50.8
X105.664Y-66.04
X106.934Y-54.61
X106.934Y-62.23
X108.204Y-50.8
X108.204Y-66.04
X109.474Y-54.61
X109.474Y-62.23
X110.744Y-50.8
X110.744Y-66.04
X112.014Y-54.61
X112.014Y-62.23
X113.284Y-50.8
X113.284Y-66.04
X114.554Y-54.61
X114.554Y-62.23
X115.824Y-50.8
X115.824Y-66.04
X117.094Y-54.61
X117.094Y-62.23
X118.364Y-50.8
X118.364Y-66.04
X120.904Y-50.8
X120.904Y-66.04
X123.444Y-50.8
X123.444Y-57.19
X123.444Y-59.69
X123.444Y-66.04
T0
M30
