%TF.GenerationSoftware,KiCad,Pcbnew,5.1.9+dfsg1-1+deb11u1*%
%TF.CreationDate,2022-09-21T21:13:03+02:00*%
%TF.ProjectId,outline+2600cart,6f75746c-696e-4652-9b32-363030636172,rev?*%
%TF.SameCoordinates,Original*%
%TF.FileFunction,Legend,Top*%
%TF.FilePolarity,Positive*%
%FSLAX46Y46*%
G04 Gerber Fmt 4.6, Leading zero omitted, Abs format (unit mm)*
G04 Created by KiCad (PCBNEW 5.1.9+dfsg1-1+deb11u1) date 2022-09-21 21:13:03*
%MOMM*%
%LPD*%
G01*
G04 APERTURE LIST*
%ADD10C,0.200000*%
%ADD11C,0.250000*%
%ADD12C,0.300000*%
%ADD13C,0.150000*%
G04 APERTURE END LIST*
D10*
X107688285Y-83748571D02*
X107354952Y-83748571D01*
X107354952Y-84272380D02*
X107354952Y-83272380D01*
X107831142Y-83272380D01*
X108783523Y-84272380D02*
X108450190Y-83796190D01*
X108212095Y-84272380D02*
X108212095Y-83272380D01*
X108593047Y-83272380D01*
X108688285Y-83320000D01*
X108735904Y-83367619D01*
X108783523Y-83462857D01*
X108783523Y-83605714D01*
X108735904Y-83700952D01*
X108688285Y-83748571D01*
X108593047Y-83796190D01*
X108212095Y-83796190D01*
X109402571Y-83272380D02*
X109593047Y-83272380D01*
X109688285Y-83320000D01*
X109783523Y-83415238D01*
X109831142Y-83605714D01*
X109831142Y-83939047D01*
X109783523Y-84129523D01*
X109688285Y-84224761D01*
X109593047Y-84272380D01*
X109402571Y-84272380D01*
X109307333Y-84224761D01*
X109212095Y-84129523D01*
X109164476Y-83939047D01*
X109164476Y-83605714D01*
X109212095Y-83415238D01*
X109307333Y-83320000D01*
X109402571Y-83272380D01*
X110259714Y-84272380D02*
X110259714Y-83272380D01*
X110831142Y-84272380D01*
X110831142Y-83272380D01*
X111164476Y-83272380D02*
X111735904Y-83272380D01*
X111450190Y-84272380D02*
X111450190Y-83272380D01*
D11*
X99335142Y-69679428D02*
X99406571Y-69608000D01*
X99549428Y-69536571D01*
X99906571Y-69536571D01*
X100049428Y-69608000D01*
X100120857Y-69679428D01*
X100192285Y-69822285D01*
X100192285Y-69965142D01*
X100120857Y-70179428D01*
X99263714Y-71036571D01*
X100192285Y-71036571D01*
X100835142Y-71036571D02*
X100835142Y-69536571D01*
X101692285Y-71036571D02*
X101049428Y-70179428D01*
X101692285Y-69536571D02*
X100835142Y-70393714D01*
X103406571Y-69465142D02*
X102120857Y-71393714D01*
X104549428Y-70036571D02*
X104549428Y-71036571D01*
X104192285Y-69465142D02*
X103835142Y-70536571D01*
X104763714Y-70536571D01*
X105335142Y-71036571D02*
X105335142Y-69536571D01*
X106192285Y-71036571D02*
X105549428Y-70179428D01*
X106192285Y-69536571D02*
X105335142Y-70393714D01*
X107906571Y-70608000D02*
X108620857Y-70608000D01*
X107763714Y-71036571D02*
X108263714Y-69536571D01*
X108763714Y-71036571D01*
X109049428Y-69536571D02*
X109906571Y-69536571D01*
X109478000Y-71036571D02*
X109478000Y-69536571D01*
X110335142Y-70608000D02*
X111049428Y-70608000D01*
X110192285Y-71036571D02*
X110692285Y-69536571D01*
X111192285Y-71036571D01*
X112549428Y-71036571D02*
X112049428Y-70322285D01*
X111692285Y-71036571D02*
X111692285Y-69536571D01*
X112263714Y-69536571D01*
X112406571Y-69608000D01*
X112478000Y-69679428D01*
X112549428Y-69822285D01*
X112549428Y-70036571D01*
X112478000Y-70179428D01*
X112406571Y-70250857D01*
X112263714Y-70322285D01*
X111692285Y-70322285D01*
X113192285Y-71036571D02*
X113192285Y-69536571D01*
X114978000Y-69679428D02*
X115049428Y-69608000D01*
X115192285Y-69536571D01*
X115549428Y-69536571D01*
X115692285Y-69608000D01*
X115763714Y-69679428D01*
X115835142Y-69822285D01*
X115835142Y-69965142D01*
X115763714Y-70179428D01*
X114906571Y-71036571D01*
X115835142Y-71036571D01*
X117120857Y-69536571D02*
X116835142Y-69536571D01*
X116692285Y-69608000D01*
X116620857Y-69679428D01*
X116478000Y-69893714D01*
X116406571Y-70179428D01*
X116406571Y-70750857D01*
X116478000Y-70893714D01*
X116549428Y-70965142D01*
X116692285Y-71036571D01*
X116978000Y-71036571D01*
X117120857Y-70965142D01*
X117192285Y-70893714D01*
X117263714Y-70750857D01*
X117263714Y-70393714D01*
X117192285Y-70250857D01*
X117120857Y-70179428D01*
X116978000Y-70108000D01*
X116692285Y-70108000D01*
X116549428Y-70179428D01*
X116478000Y-70250857D01*
X116406571Y-70393714D01*
X118192285Y-69536571D02*
X118335142Y-69536571D01*
X118478000Y-69608000D01*
X118549428Y-69679428D01*
X118620857Y-69822285D01*
X118692285Y-70108000D01*
X118692285Y-70465142D01*
X118620857Y-70750857D01*
X118549428Y-70893714D01*
X118478000Y-70965142D01*
X118335142Y-71036571D01*
X118192285Y-71036571D01*
X118049428Y-70965142D01*
X117978000Y-70893714D01*
X117906571Y-70750857D01*
X117835142Y-70465142D01*
X117835142Y-70108000D01*
X117906571Y-69822285D01*
X117978000Y-69679428D01*
X118049428Y-69608000D01*
X118192285Y-69536571D01*
X119620857Y-69536571D02*
X119763714Y-69536571D01*
X119906571Y-69608000D01*
X119978000Y-69679428D01*
X120049428Y-69822285D01*
X120120857Y-70108000D01*
X120120857Y-70465142D01*
X120049428Y-70750857D01*
X119978000Y-70893714D01*
X119906571Y-70965142D01*
X119763714Y-71036571D01*
X119620857Y-71036571D01*
X119478000Y-70965142D01*
X119406571Y-70893714D01*
X119335142Y-70750857D01*
X119263714Y-70465142D01*
X119263714Y-70108000D01*
X119335142Y-69822285D01*
X119406571Y-69679428D01*
X119478000Y-69608000D01*
X119620857Y-69536571D01*
D12*
X95521619Y-74946761D02*
X95521619Y-72946761D01*
X96664476Y-74946761D01*
X96664476Y-72946761D01*
X97521619Y-74375333D02*
X98474000Y-74375333D01*
X97331142Y-74946761D02*
X97997809Y-72946761D01*
X98664476Y-74946761D01*
X99331142Y-74946761D02*
X99331142Y-72946761D01*
X99997809Y-74375333D01*
X100664476Y-72946761D01*
X100664476Y-74946761D01*
X101616857Y-73899142D02*
X102283523Y-73899142D01*
X102569238Y-74946761D02*
X101616857Y-74946761D01*
X101616857Y-72946761D01*
X102569238Y-72946761D01*
X105331142Y-72946761D02*
X105712095Y-72946761D01*
X105902571Y-73042000D01*
X106093047Y-73232476D01*
X106188285Y-73613428D01*
X106188285Y-74280095D01*
X106093047Y-74661047D01*
X105902571Y-74851523D01*
X105712095Y-74946761D01*
X105331142Y-74946761D01*
X105140666Y-74851523D01*
X104950190Y-74661047D01*
X104854952Y-74280095D01*
X104854952Y-73613428D01*
X104950190Y-73232476D01*
X105140666Y-73042000D01*
X105331142Y-72946761D01*
X107712095Y-73899142D02*
X107045428Y-73899142D01*
X107045428Y-74946761D02*
X107045428Y-72946761D01*
X107997809Y-72946761D01*
X110283523Y-74946761D02*
X110283523Y-72946761D01*
X111045428Y-72946761D01*
X111235904Y-73042000D01*
X111331142Y-73137238D01*
X111426380Y-73327714D01*
X111426380Y-73613428D01*
X111331142Y-73803904D01*
X111235904Y-73899142D01*
X111045428Y-73994380D01*
X110283523Y-73994380D01*
X113426380Y-74946761D02*
X112759714Y-73994380D01*
X112283523Y-74946761D02*
X112283523Y-72946761D01*
X113045428Y-72946761D01*
X113235904Y-73042000D01*
X113331142Y-73137238D01*
X113426380Y-73327714D01*
X113426380Y-73613428D01*
X113331142Y-73803904D01*
X113235904Y-73899142D01*
X113045428Y-73994380D01*
X112283523Y-73994380D01*
X114664476Y-72946761D02*
X115045428Y-72946761D01*
X115235904Y-73042000D01*
X115426380Y-73232476D01*
X115521619Y-73613428D01*
X115521619Y-74280095D01*
X115426380Y-74661047D01*
X115235904Y-74851523D01*
X115045428Y-74946761D01*
X114664476Y-74946761D01*
X114474000Y-74851523D01*
X114283523Y-74661047D01*
X114188285Y-74280095D01*
X114188285Y-73613428D01*
X114283523Y-73232476D01*
X114474000Y-73042000D01*
X114664476Y-72946761D01*
X117426380Y-73042000D02*
X117235904Y-72946761D01*
X116950190Y-72946761D01*
X116664476Y-73042000D01*
X116474000Y-73232476D01*
X116378761Y-73422952D01*
X116283523Y-73803904D01*
X116283523Y-74089619D01*
X116378761Y-74470571D01*
X116474000Y-74661047D01*
X116664476Y-74851523D01*
X116950190Y-74946761D01*
X117140666Y-74946761D01*
X117426380Y-74851523D01*
X117521619Y-74756285D01*
X117521619Y-74089619D01*
X117140666Y-74089619D01*
X119521619Y-74946761D02*
X118854952Y-73994380D01*
X118378761Y-74946761D02*
X118378761Y-72946761D01*
X119140666Y-72946761D01*
X119331142Y-73042000D01*
X119426380Y-73137238D01*
X119521619Y-73327714D01*
X119521619Y-73613428D01*
X119426380Y-73803904D01*
X119331142Y-73899142D01*
X119140666Y-73994380D01*
X118378761Y-73994380D01*
X120283523Y-74375333D02*
X121235904Y-74375333D01*
X120093047Y-74946761D02*
X120759714Y-72946761D01*
X121426380Y-74946761D01*
X122093047Y-74946761D02*
X122093047Y-72946761D01*
X122759714Y-74375333D01*
X123426380Y-72946761D01*
X123426380Y-74946761D01*
X98950190Y-76722952D02*
X98759714Y-76627714D01*
X98378761Y-76627714D01*
X98188285Y-76722952D01*
X97997809Y-76913428D01*
X97902571Y-77103904D01*
X97902571Y-77484857D01*
X97997809Y-77675333D01*
X98188285Y-77865809D01*
X98378761Y-77961047D01*
X98759714Y-77961047D01*
X98950190Y-77865809D01*
X98569238Y-75961047D02*
X98093047Y-76056285D01*
X97616857Y-76342000D01*
X97331142Y-76818190D01*
X97235904Y-77294380D01*
X97331142Y-77770571D01*
X97616857Y-78246761D01*
X98093047Y-78532476D01*
X98569238Y-78627714D01*
X99045428Y-78532476D01*
X99521619Y-78246761D01*
X99807333Y-77770571D01*
X99902571Y-77294380D01*
X99807333Y-76818190D01*
X99521619Y-76342000D01*
X99045428Y-76056285D01*
X98569238Y-75961047D01*
X102664476Y-77294380D02*
X102664476Y-78246761D01*
X101997809Y-76246761D02*
X102664476Y-77294380D01*
X103331142Y-76246761D01*
X103997809Y-77199142D02*
X104664476Y-77199142D01*
X104950190Y-78246761D02*
X103997809Y-78246761D01*
X103997809Y-76246761D01*
X104950190Y-76246761D01*
X105712095Y-77675333D02*
X106664476Y-77675333D01*
X105521619Y-78246761D02*
X106188285Y-76246761D01*
X106854952Y-78246761D01*
X108664476Y-78246761D02*
X107997809Y-77294380D01*
X107521619Y-78246761D02*
X107521619Y-76246761D01*
X108283523Y-76246761D01*
X108474000Y-76342000D01*
X108569238Y-76437238D01*
X108664476Y-76627714D01*
X108664476Y-76913428D01*
X108569238Y-77103904D01*
X108474000Y-77199142D01*
X108283523Y-77294380D01*
X107521619Y-77294380D01*
X110950190Y-77675333D02*
X111902571Y-77675333D01*
X110759714Y-78246761D02*
X111426380Y-76246761D01*
X112093047Y-78246761D01*
X112759714Y-76246761D02*
X112759714Y-77865809D01*
X112854952Y-78056285D01*
X112950190Y-78151523D01*
X113140666Y-78246761D01*
X113521619Y-78246761D01*
X113712095Y-78151523D01*
X113807333Y-78056285D01*
X113902571Y-77865809D01*
X113902571Y-76246761D01*
X114569238Y-76246761D02*
X115712095Y-76246761D01*
X115140666Y-78246761D02*
X115140666Y-76246761D01*
X116378761Y-78246761D02*
X116378761Y-76246761D01*
X116378761Y-77199142D02*
X117521619Y-77199142D01*
X117521619Y-78246761D02*
X117521619Y-76246761D01*
X118854952Y-76246761D02*
X119235904Y-76246761D01*
X119426380Y-76342000D01*
X119616857Y-76532476D01*
X119712095Y-76913428D01*
X119712095Y-77580095D01*
X119616857Y-77961047D01*
X119426380Y-78151523D01*
X119235904Y-78246761D01*
X118854952Y-78246761D01*
X118664476Y-78151523D01*
X118474000Y-77961047D01*
X118378761Y-77580095D01*
X118378761Y-76913428D01*
X118474000Y-76532476D01*
X118664476Y-76342000D01*
X118854952Y-76246761D01*
X121712095Y-78246761D02*
X121045428Y-77294380D01*
X120569238Y-78246761D02*
X120569238Y-76246761D01*
X121331142Y-76246761D01*
X121521619Y-76342000D01*
X121616857Y-76437238D01*
X121712095Y-76627714D01*
X121712095Y-76913428D01*
X121616857Y-77103904D01*
X121521619Y-77199142D01*
X121331142Y-77294380D01*
X120569238Y-77294380D01*
D10*
X93369952Y-48458380D02*
X93494952Y-47458380D01*
X93875904Y-47458380D01*
X93965190Y-47506000D01*
X94006857Y-47553619D01*
X94042571Y-47648857D01*
X94024714Y-47791714D01*
X93965190Y-47886952D01*
X93911619Y-47934571D01*
X93810428Y-47982190D01*
X93429476Y-47982190D01*
X94953285Y-48363142D02*
X94899714Y-48410761D01*
X94750904Y-48458380D01*
X94655666Y-48458380D01*
X94518761Y-48410761D01*
X94435428Y-48315523D01*
X94399714Y-48220285D01*
X94375904Y-48029809D01*
X94393761Y-47886952D01*
X94465190Y-47696476D01*
X94524714Y-47601238D01*
X94631857Y-47506000D01*
X94780666Y-47458380D01*
X94875904Y-47458380D01*
X95012809Y-47506000D01*
X95054476Y-47553619D01*
X95768761Y-47934571D02*
X95905666Y-47982190D01*
X95947333Y-48029809D01*
X95983047Y-48125047D01*
X95965190Y-48267904D01*
X95905666Y-48363142D01*
X95852095Y-48410761D01*
X95750904Y-48458380D01*
X95369952Y-48458380D01*
X95494952Y-47458380D01*
X95828285Y-47458380D01*
X95917571Y-47506000D01*
X95959238Y-47553619D01*
X95994952Y-47648857D01*
X95983047Y-47744095D01*
X95923523Y-47839333D01*
X95869952Y-47886952D01*
X95768761Y-47934571D01*
X95435428Y-47934571D01*
X97131857Y-48458380D02*
X97256857Y-47458380D01*
X97494952Y-47458380D01*
X97631857Y-47506000D01*
X97715190Y-47601238D01*
X97750904Y-47696476D01*
X97774714Y-47886952D01*
X97756857Y-48029809D01*
X97685428Y-48220285D01*
X97625904Y-48315523D01*
X97518761Y-48410761D01*
X97369952Y-48458380D01*
X97131857Y-48458380D01*
X98518761Y-48410761D02*
X98417571Y-48458380D01*
X98227095Y-48458380D01*
X98137809Y-48410761D01*
X98102095Y-48315523D01*
X98149714Y-47934571D01*
X98209238Y-47839333D01*
X98310428Y-47791714D01*
X98500904Y-47791714D01*
X98590190Y-47839333D01*
X98625904Y-47934571D01*
X98614000Y-48029809D01*
X98125904Y-48125047D01*
X98947333Y-48410761D02*
X99036619Y-48458380D01*
X99227095Y-48458380D01*
X99328285Y-48410761D01*
X99387809Y-48315523D01*
X99393761Y-48267904D01*
X99358047Y-48172666D01*
X99268761Y-48125047D01*
X99125904Y-48125047D01*
X99036619Y-48077428D01*
X99000904Y-47982190D01*
X99006857Y-47934571D01*
X99066380Y-47839333D01*
X99167571Y-47791714D01*
X99310428Y-47791714D01*
X99399714Y-47839333D01*
X99798523Y-48458380D02*
X99881857Y-47791714D01*
X99923523Y-47458380D02*
X99869952Y-47506000D01*
X99911619Y-47553619D01*
X99965190Y-47506000D01*
X99923523Y-47458380D01*
X99911619Y-47553619D01*
X100786619Y-47791714D02*
X100685428Y-48601238D01*
X100625904Y-48696476D01*
X100572333Y-48744095D01*
X100471142Y-48791714D01*
X100328285Y-48791714D01*
X100239000Y-48744095D01*
X100709238Y-48410761D02*
X100608047Y-48458380D01*
X100417571Y-48458380D01*
X100328285Y-48410761D01*
X100286619Y-48363142D01*
X100250904Y-48267904D01*
X100286619Y-47982190D01*
X100346142Y-47886952D01*
X100399714Y-47839333D01*
X100500904Y-47791714D01*
X100691380Y-47791714D01*
X100780666Y-47839333D01*
X101262809Y-47791714D02*
X101179476Y-48458380D01*
X101250904Y-47886952D02*
X101304476Y-47839333D01*
X101405666Y-47791714D01*
X101548523Y-47791714D01*
X101637809Y-47839333D01*
X101673523Y-47934571D01*
X101608047Y-48458380D01*
X102846142Y-48458380D02*
X102971142Y-47458380D01*
X102923523Y-47839333D02*
X103024714Y-47791714D01*
X103215190Y-47791714D01*
X103304476Y-47839333D01*
X103346142Y-47886952D01*
X103381857Y-47982190D01*
X103346142Y-48267904D01*
X103286619Y-48363142D01*
X103233047Y-48410761D01*
X103131857Y-48458380D01*
X102941380Y-48458380D01*
X102852095Y-48410761D01*
X103739000Y-47791714D02*
X103893761Y-48458380D01*
X104215190Y-47791714D02*
X103893761Y-48458380D01*
X103768761Y-48696476D01*
X103715190Y-48744095D01*
X103614000Y-48791714D01*
X105274714Y-48458380D02*
X105399714Y-47458380D01*
X105739000Y-47791714D02*
X105893761Y-48458380D01*
X106215190Y-47791714D01*
X106655666Y-48458380D02*
X106566380Y-48410761D01*
X106524714Y-48363142D01*
X106489000Y-48267904D01*
X106524714Y-47982190D01*
X106584238Y-47886952D01*
X106637809Y-47839333D01*
X106739000Y-47791714D01*
X106881857Y-47791714D01*
X106971142Y-47839333D01*
X107012809Y-47886952D01*
X107048523Y-47982190D01*
X107012809Y-48267904D01*
X106953285Y-48363142D01*
X106899714Y-48410761D01*
X106798523Y-48458380D01*
X106655666Y-48458380D01*
X108167571Y-47791714D02*
X108322333Y-48458380D01*
X108643761Y-47791714D01*
X109369952Y-48458380D02*
X109435428Y-47934571D01*
X109399714Y-47839333D01*
X109310428Y-47791714D01*
X109119952Y-47791714D01*
X109018761Y-47839333D01*
X109375904Y-48410761D02*
X109274714Y-48458380D01*
X109036619Y-48458380D01*
X108947333Y-48410761D01*
X108911619Y-48315523D01*
X108923523Y-48220285D01*
X108983047Y-48125047D01*
X109084238Y-48077428D01*
X109322333Y-48077428D01*
X109423523Y-48029809D01*
X109929476Y-47791714D02*
X109846142Y-48458380D01*
X109917571Y-47886952D02*
X109971142Y-47839333D01*
X110072333Y-47791714D01*
X110215190Y-47791714D01*
X110304476Y-47839333D01*
X110340190Y-47934571D01*
X110274714Y-48458380D01*
X111512809Y-48458380D02*
X111637809Y-47458380D01*
X112018761Y-47458380D01*
X112108047Y-47506000D01*
X112149714Y-47553619D01*
X112185428Y-47648857D01*
X112167571Y-47791714D01*
X112108047Y-47886952D01*
X112054476Y-47934571D01*
X111953285Y-47982190D01*
X111572333Y-47982190D01*
X112655666Y-48458380D02*
X112566380Y-48410761D01*
X112524714Y-48363142D01*
X112489000Y-48267904D01*
X112524714Y-47982190D01*
X112584238Y-47886952D01*
X112637809Y-47839333D01*
X112739000Y-47791714D01*
X112881857Y-47791714D01*
X112971142Y-47839333D01*
X113012809Y-47886952D01*
X113048523Y-47982190D01*
X113012809Y-48267904D01*
X112953285Y-48363142D01*
X112899714Y-48410761D01*
X112798523Y-48458380D01*
X112655666Y-48458380D01*
X113560428Y-48458380D02*
X113471142Y-48410761D01*
X113429476Y-48363142D01*
X113393761Y-48267904D01*
X113429476Y-47982190D01*
X113489000Y-47886952D01*
X113542571Y-47839333D01*
X113643761Y-47791714D01*
X113786619Y-47791714D01*
X113875904Y-47839333D01*
X113917571Y-47886952D01*
X113953285Y-47982190D01*
X113917571Y-48267904D01*
X113858047Y-48363142D01*
X113804476Y-48410761D01*
X113703285Y-48458380D01*
X113560428Y-48458380D01*
X114322333Y-48458380D02*
X114405666Y-47791714D01*
X114381857Y-47982190D02*
X114441380Y-47886952D01*
X114494952Y-47839333D01*
X114596142Y-47791714D01*
X114691380Y-47791714D01*
X114881857Y-47791714D02*
X115262809Y-47791714D01*
X115066380Y-47458380D02*
X114959238Y-48315523D01*
X114994952Y-48410761D01*
X115084238Y-48458380D01*
X115179476Y-48458380D01*
X115899714Y-48410761D02*
X115798523Y-48458380D01*
X115608047Y-48458380D01*
X115518761Y-48410761D01*
X115483047Y-48315523D01*
X115530666Y-47934571D01*
X115590190Y-47839333D01*
X115691380Y-47791714D01*
X115881857Y-47791714D01*
X115971142Y-47839333D01*
X116006857Y-47934571D01*
X115994952Y-48029809D01*
X115506857Y-48125047D01*
X116453285Y-47791714D02*
X116369952Y-48458380D01*
X116441380Y-47886952D02*
X116494952Y-47839333D01*
X116596142Y-47791714D01*
X116738999Y-47791714D01*
X116828285Y-47839333D01*
X116864000Y-47934571D01*
X116798523Y-48458380D01*
X118435428Y-47934571D02*
X118102095Y-47934571D01*
X118036619Y-48458380D02*
X118161619Y-47458380D01*
X118637809Y-47458380D01*
X118959238Y-47934571D02*
X119292571Y-47934571D01*
X119369952Y-48458380D02*
X118893761Y-48458380D01*
X119018761Y-47458380D01*
X119494952Y-47458380D01*
X120197333Y-47934571D02*
X120334238Y-47982190D01*
X120375904Y-48029809D01*
X120411619Y-48125047D01*
X120393761Y-48267904D01*
X120334238Y-48363142D01*
X120280666Y-48410761D01*
X120179476Y-48458380D01*
X119798523Y-48458380D01*
X119923523Y-47458380D01*
X120256857Y-47458380D01*
X120346142Y-47506000D01*
X120387809Y-47553619D01*
X120423523Y-47648857D01*
X120411619Y-47744095D01*
X120352095Y-47839333D01*
X120298523Y-47886952D01*
X120197333Y-47934571D01*
X119863999Y-47934571D01*
X120846142Y-48077428D02*
X121608047Y-48077428D01*
X122102095Y-47553619D02*
X122155666Y-47506000D01*
X122256857Y-47458380D01*
X122494952Y-47458380D01*
X122584238Y-47506000D01*
X122625904Y-47553619D01*
X122661619Y-47648857D01*
X122649714Y-47744095D01*
X122584238Y-47886952D01*
X121941380Y-48458380D01*
X122560428Y-48458380D01*
X123304476Y-47458380D02*
X123399714Y-47458380D01*
X123488999Y-47506000D01*
X123530666Y-47553619D01*
X123566380Y-47648857D01*
X123590190Y-47839333D01*
X123560428Y-48077428D01*
X123488999Y-48267904D01*
X123429476Y-48363142D01*
X123375904Y-48410761D01*
X123274714Y-48458380D01*
X123179476Y-48458380D01*
X123090190Y-48410761D01*
X123048523Y-48363142D01*
X123012809Y-48267904D01*
X122988999Y-48077428D01*
X123018761Y-47839333D01*
X123090190Y-47648857D01*
X123149714Y-47553619D01*
X123203285Y-47506000D01*
X123304476Y-47458380D01*
X124465190Y-48458380D02*
X123893761Y-48458380D01*
X124179476Y-48458380D02*
X124304476Y-47458380D01*
X124191380Y-47601238D01*
X124084238Y-47696476D01*
X123983047Y-47744095D01*
X124923523Y-47458380D02*
X125590190Y-47458380D01*
X125036619Y-48458380D01*
D13*
%TO.C,C1*%
X122194000Y-59940000D02*
X122194000Y-56940000D01*
X124694000Y-56940000D02*
X124694000Y-59940000D01*
%TO.C,U2*%
X119389000Y-54745000D02*
X118119000Y-54745000D01*
X119389000Y-62095000D02*
X118119000Y-62095000D01*
X99559000Y-62095000D02*
X100829000Y-62095000D01*
X99559000Y-54745000D02*
X100829000Y-54745000D01*
X119389000Y-54745000D02*
X119389000Y-62095000D01*
X99559000Y-54745000D02*
X99559000Y-62095000D01*
X118119000Y-54745000D02*
X118119000Y-53810000D01*
%TO.C,C1*%
X120483380Y-60062857D02*
X120483380Y-59967619D01*
X120531000Y-59872380D01*
X120578619Y-59824761D01*
X120673857Y-59777142D01*
X120864333Y-59729523D01*
X121102428Y-59729523D01*
X121292904Y-59777142D01*
X121388142Y-59824761D01*
X121435761Y-59872380D01*
X121483380Y-59967619D01*
X121483380Y-60062857D01*
X121435761Y-60158095D01*
X121388142Y-60205714D01*
X121292904Y-60253333D01*
X121102428Y-60300952D01*
X120864333Y-60300952D01*
X120673857Y-60253333D01*
X120578619Y-60205714D01*
X120531000Y-60158095D01*
X120483380Y-60062857D01*
X121388142Y-59300952D02*
X121435761Y-59253333D01*
X121483380Y-59300952D01*
X121435761Y-59348571D01*
X121388142Y-59300952D01*
X121483380Y-59300952D01*
X121483380Y-58300952D02*
X121483380Y-58872380D01*
X121483380Y-58586666D02*
X120483380Y-58586666D01*
X120626238Y-58681904D01*
X120721476Y-58777142D01*
X120769095Y-58872380D01*
X120816714Y-57443809D02*
X121483380Y-57443809D01*
X120816714Y-57872380D02*
X121340523Y-57872380D01*
X121435761Y-57824761D01*
X121483380Y-57729523D01*
X121483380Y-57586666D01*
X121435761Y-57491428D01*
X121388142Y-57443809D01*
X120959571Y-56634285D02*
X120959571Y-56967619D01*
X121483380Y-56967619D02*
X120483380Y-56967619D01*
X120483380Y-56491428D01*
%TO.C,U2*%
X110387142Y-56602380D02*
X111053809Y-56602380D01*
X110625238Y-57602380D01*
X111863333Y-56935714D02*
X111863333Y-57602380D01*
X111625238Y-56554761D02*
X111387142Y-57269047D01*
X112006190Y-57269047D01*
X112863333Y-57602380D02*
X112387142Y-57602380D01*
X112387142Y-56602380D01*
X113149047Y-57554761D02*
X113291904Y-57602380D01*
X113530000Y-57602380D01*
X113625238Y-57554761D01*
X113672857Y-57507142D01*
X113720476Y-57411904D01*
X113720476Y-57316666D01*
X113672857Y-57221428D01*
X113625238Y-57173809D01*
X113530000Y-57126190D01*
X113339523Y-57078571D01*
X113244285Y-57030952D01*
X113196666Y-56983333D01*
X113149047Y-56888095D01*
X113149047Y-56792857D01*
X113196666Y-56697619D01*
X113244285Y-56650000D01*
X113339523Y-56602380D01*
X113577619Y-56602380D01*
X113720476Y-56650000D01*
X114339523Y-56602380D02*
X114434761Y-56602380D01*
X114530000Y-56650000D01*
X114577619Y-56697619D01*
X114625238Y-56792857D01*
X114672857Y-56983333D01*
X114672857Y-57221428D01*
X114625238Y-57411904D01*
X114577619Y-57507142D01*
X114530000Y-57554761D01*
X114434761Y-57602380D01*
X114339523Y-57602380D01*
X114244285Y-57554761D01*
X114196666Y-57507142D01*
X114149047Y-57411904D01*
X114101428Y-57221428D01*
X114101428Y-56983333D01*
X114149047Y-56792857D01*
X114196666Y-56697619D01*
X114244285Y-56650000D01*
X114339523Y-56602380D01*
X115530000Y-56935714D02*
X115530000Y-57602380D01*
X115291904Y-56554761D02*
X115053809Y-57269047D01*
X115672857Y-57269047D01*
%TO.C,U1*%
X123253523Y-86812380D02*
X122682095Y-86812380D01*
X122967809Y-86812380D02*
X122967809Y-85812380D01*
X122872571Y-85955238D01*
X122777333Y-86050476D01*
X122682095Y-86098095D01*
X123634476Y-85907619D02*
X123682095Y-85860000D01*
X123777333Y-85812380D01*
X124015428Y-85812380D01*
X124110666Y-85860000D01*
X124158285Y-85907619D01*
X124205904Y-86002857D01*
X124205904Y-86098095D01*
X124158285Y-86240952D01*
X123586857Y-86812380D01*
X124205904Y-86812380D01*
X95789714Y-86812380D02*
X95218285Y-86812380D01*
X95504000Y-86812380D02*
X95504000Y-85812380D01*
X95408761Y-85955238D01*
X95313523Y-86050476D01*
X95218285Y-86098095D01*
%TD*%
M02*
