%TF.GenerationSoftware,KiCad,Pcbnew,5.1.9+dfsg1-1+deb11u1*%
%TF.CreationDate,2022-09-21T21:13:03+02:00*%
%TF.ProjectId,outline+2600cart,6f75746c-696e-4652-9b32-363030636172,rev?*%
%TF.SameCoordinates,Original*%
%TF.FileFunction,Copper,L1,Top*%
%TF.FilePolarity,Positive*%
%FSLAX46Y46*%
G04 Gerber Fmt 4.6, Leading zero omitted, Abs format (unit mm)*
G04 Created by KiCad (PCBNEW 5.1.9+dfsg1-1+deb11u1) date 2022-09-21 21:13:03*
%MOMM*%
%LPD*%
G01*
G04 APERTURE LIST*
%TA.AperFunction,ComponentPad*%
%ADD10R,1.600000X1.600000*%
%TD*%
%TA.AperFunction,ComponentPad*%
%ADD11O,1.600000X1.600000*%
%TD*%
%TA.AperFunction,ComponentPad*%
%ADD12O,1.300000X1.300000*%
%TD*%
%TA.AperFunction,ComponentPad*%
%ADD13C,1.300000*%
%TD*%
%TA.AperFunction,ConnectorPad*%
%ADD14R,1.524000X4.572000*%
%TD*%
%TA.AperFunction,ViaPad*%
%ADD15C,0.600000*%
%TD*%
%TA.AperFunction,Conductor*%
%ADD16C,0.500000*%
%TD*%
%TA.AperFunction,Conductor*%
%ADD17C,0.250000*%
%TD*%
%TA.AperFunction,Conductor*%
%ADD18C,0.254000*%
%TD*%
%TA.AperFunction,Conductor*%
%ADD19C,0.100000*%
%TD*%
G04 APERTURE END LIST*
D10*
%TO.P,U3,1*%
%TO.N,A7*%
X95504000Y-50800000D03*
D11*
%TO.P,U3,2*%
%TO.N,A6*%
X98044000Y-50800000D03*
%TO.P,U3,3*%
%TO.N,A5*%
X100584000Y-50800000D03*
%TO.P,U3,4*%
%TO.N,A4*%
X103124000Y-50800000D03*
%TO.P,U3,5*%
%TO.N,A3*%
X105664000Y-50800000D03*
%TO.P,U3,6*%
%TO.N,A2*%
X108204000Y-50800000D03*
%TO.P,U3,7*%
%TO.N,A1*%
X110744000Y-50800000D03*
%TO.P,U3,8*%
%TO.N,A0*%
X113284000Y-50800000D03*
%TO.P,U3,9*%
%TO.N,D0*%
X115824000Y-50800000D03*
%TO.P,U3,10*%
%TO.N,D1*%
X118364000Y-50800000D03*
%TO.P,U3,11*%
%TO.N,D2*%
X120904000Y-50800000D03*
%TO.P,U3,12*%
%TO.N,GND*%
X123444000Y-50800000D03*
%TO.P,U3,13*%
%TO.N,D3*%
X123444000Y-66040000D03*
%TO.P,U3,14*%
%TO.N,D4*%
X120904000Y-66040000D03*
%TO.P,U3,15*%
%TO.N,D5*%
X118364000Y-66040000D03*
%TO.P,U3,16*%
%TO.N,D6*%
X115824000Y-66040000D03*
%TO.P,U3,17*%
%TO.N,D7*%
X113284000Y-66040000D03*
%TO.P,U3,18*%
%TO.N,~ENABLE*%
X110744000Y-66040000D03*
%TO.P,U3,19*%
%TO.N,A10*%
X108204000Y-66040000D03*
%TO.P,U3,20*%
%TO.N,GND*%
X105664000Y-66040000D03*
%TO.P,U3,21*%
%TO.N,A11*%
X103124000Y-66040000D03*
%TO.P,U3,22*%
%TO.N,A9*%
X100584000Y-66040000D03*
%TO.P,U3,23*%
%TO.N,A8*%
X98044000Y-66040000D03*
%TO.P,U3,24*%
%TO.N,VCC*%
X95504000Y-66040000D03*
%TD*%
D12*
%TO.P,C1,1*%
%TO.N,VCC*%
X123444000Y-59690000D03*
D13*
%TO.P,C1,2*%
%TO.N,GND*%
X123444000Y-57190000D03*
%TD*%
D10*
%TO.P,U2,1*%
%TO.N,VCC*%
X117094000Y-54610000D03*
D11*
%TO.P,U2,2*%
%TO.N,N/C*%
X114554000Y-54610000D03*
%TO.P,U2,3*%
%TO.N,VCC*%
X112014000Y-54610000D03*
%TO.P,U2,4*%
%TO.N,N/C*%
X109474000Y-54610000D03*
%TO.P,U2,5*%
%TO.N,VCC*%
X106934000Y-54610000D03*
%TO.P,U2,6*%
%TO.N,N/C*%
X104394000Y-54610000D03*
%TO.P,U2,7*%
%TO.N,GND*%
X101854000Y-54610000D03*
%TO.P,U2,8*%
%TO.N,N/C*%
X101854000Y-62230000D03*
%TO.P,U2,9*%
%TO.N,VCC*%
X104394000Y-62230000D03*
%TO.P,U2,10*%
%TO.N,N/C*%
X106934000Y-62230000D03*
%TO.P,U2,11*%
%TO.N,VCC*%
X109474000Y-62230000D03*
%TO.P,U2,12*%
%TO.N,~ENABLE*%
X112014000Y-62230000D03*
%TO.P,U2,13*%
%TO.N,A12*%
X114554000Y-62230000D03*
%TO.P,U2,14*%
%TO.N,VCC*%
X117094000Y-62230000D03*
%TD*%
D14*
%TO.P,U1,12*%
%TO.N,GND*%
X123444000Y-90170000D03*
%TO.P,U1,11*%
%TO.N,D2*%
X120904000Y-90170000D03*
%TO.P,U1,10*%
%TO.N,D1*%
X118364000Y-90170000D03*
%TO.P,U1,9*%
%TO.N,D0*%
X115824000Y-90170000D03*
%TO.P,U1,8*%
%TO.N,A0*%
X113284000Y-90170000D03*
%TO.P,U1,7*%
%TO.N,A1*%
X110744000Y-90170000D03*
%TO.P,U1,6*%
%TO.N,A2*%
X108204000Y-90170000D03*
%TO.P,U1,5*%
%TO.N,A3*%
X105664000Y-90170000D03*
%TO.P,U1,4*%
%TO.N,A4*%
X103124000Y-90170000D03*
%TO.P,U1,3*%
%TO.N,A5*%
X100584000Y-90170000D03*
%TO.P,U1,2*%
%TO.N,A6*%
X98044000Y-90170000D03*
%TO.P,U1,1*%
%TO.N,A7*%
X95504000Y-90170000D03*
%TD*%
D15*
%TO.N,GND*%
X103124000Y-63500000D03*
%TD*%
D16*
%TO.N,GND*%
X101854000Y-54610000D02*
X101854000Y-55880000D01*
X101854000Y-55880000D02*
X103124000Y-57150000D01*
X103124000Y-57150000D02*
X103124000Y-63500000D01*
X123444000Y-88900000D02*
X123444000Y-74930000D01*
X123444000Y-74930000D02*
X124714000Y-73660000D01*
X124714000Y-73660000D02*
X125984000Y-72390000D01*
X125984000Y-72390000D02*
X125984000Y-58420000D01*
X125984000Y-58420000D02*
X124754000Y-57190000D01*
X124754000Y-57190000D02*
X123444000Y-57190000D01*
X123444000Y-57190000D02*
X123444000Y-50800000D01*
D17*
%TO.N,A7*%
X96774000Y-52070000D02*
X95504000Y-50800000D01*
X96774000Y-73660000D02*
X96774000Y-52070000D01*
X95504000Y-88900000D02*
X95504000Y-74930000D01*
X95504000Y-74930000D02*
X96774000Y-73660000D01*
%TO.N,A6*%
X99314000Y-52070000D02*
X98044000Y-50800000D01*
X99314000Y-73660000D02*
X99314000Y-52070000D01*
X98044000Y-88900000D02*
X98044000Y-74930000D01*
X98044000Y-74930000D02*
X99314000Y-73660000D01*
%TO.N,A5*%
X100584000Y-63500000D02*
X100584000Y-50800000D01*
X101854000Y-64770000D02*
X100584000Y-63500000D01*
X101854000Y-73660000D02*
X101854000Y-64770000D01*
X100584000Y-88900000D02*
X100584000Y-74930000D01*
X100584000Y-74930000D02*
X101854000Y-73660000D01*
%TO.N,A4*%
X105664000Y-53340000D02*
X103124000Y-50800000D01*
X105664000Y-63500000D02*
X105664000Y-53340000D01*
X104394000Y-64770000D02*
X105664000Y-63500000D01*
X104394000Y-73660000D02*
X104394000Y-64770000D01*
X103124000Y-88900000D02*
X103124000Y-74930000D01*
X103124000Y-74930000D02*
X104394000Y-73660000D01*
%TO.N,A3*%
X108204000Y-53340000D02*
X105664000Y-50800000D01*
X108204000Y-63500000D02*
X108204000Y-53340000D01*
X106934000Y-64770000D02*
X108204000Y-63500000D01*
X106934000Y-73660000D02*
X106934000Y-64770000D01*
X105664000Y-88900000D02*
X105664000Y-74930000D01*
X105664000Y-74930000D02*
X106934000Y-73660000D01*
%TO.N,A2*%
X108204000Y-88900000D02*
X108204000Y-74930000D01*
X108204000Y-74930000D02*
X109474000Y-73660000D01*
X110744000Y-53340000D02*
X108204000Y-50800000D01*
X110744000Y-63500000D02*
X110744000Y-53340000D01*
X109474000Y-64770000D02*
X110744000Y-63500000D01*
X109474000Y-73660000D02*
X109474000Y-64770000D01*
%TO.N,A1*%
X113284000Y-53340000D02*
X110744000Y-50800000D01*
X113284000Y-63500000D02*
X113284000Y-53340000D01*
X112014000Y-64770000D02*
X113284000Y-63500000D01*
X112014000Y-73660000D02*
X112014000Y-64770000D01*
X110744000Y-88900000D02*
X110744000Y-74930000D01*
X110744000Y-74930000D02*
X112014000Y-73660000D01*
%TO.N,A0*%
X113284000Y-88900000D02*
X113284000Y-74930000D01*
X115824000Y-53340000D02*
X113284000Y-50800000D01*
X115824000Y-63500000D02*
X115824000Y-53340000D01*
X114554000Y-64770000D02*
X115824000Y-63500000D01*
X114554000Y-73660000D02*
X114554000Y-64770000D01*
X113284000Y-74930000D02*
X114554000Y-73660000D01*
%TO.N,D0*%
X118364000Y-53340000D02*
X115824000Y-50800000D01*
X118364000Y-63500000D02*
X118364000Y-53340000D01*
X117094000Y-64770000D02*
X118364000Y-63500000D01*
X117094000Y-73660000D02*
X117094000Y-64770000D01*
X115824000Y-88900000D02*
X115824000Y-74930000D01*
X115824000Y-74930000D02*
X117094000Y-73660000D01*
%TO.N,D1*%
X119634000Y-52070000D02*
X118364000Y-50800000D01*
X119634000Y-73660000D02*
X119634000Y-52070000D01*
X118364000Y-88900000D02*
X118364000Y-74930000D01*
X118364000Y-74930000D02*
X119634000Y-73660000D01*
%TO.N,D2*%
X120904000Y-88900000D02*
X120904000Y-74930000D01*
X120904000Y-74930000D02*
X122174000Y-73660000D01*
X122174000Y-52070000D02*
X120904000Y-50800000D01*
X122174000Y-73660000D02*
X122174000Y-52070000D01*
%TD*%
D18*
%TO.N,GND*%
X107698000Y-63290408D02*
X106593780Y-64394629D01*
X106574474Y-64410473D01*
X106511242Y-64487521D01*
X106486127Y-64534508D01*
X106464255Y-64575426D01*
X106435322Y-64670808D01*
X106425553Y-64770000D01*
X106428001Y-64794856D01*
X106428001Y-64828666D01*
X106401420Y-64808963D01*
X106147087Y-64688754D01*
X106013039Y-64648096D01*
X105791000Y-64770085D01*
X105791000Y-65913000D01*
X105811000Y-65913000D01*
X105811000Y-66167000D01*
X105791000Y-66167000D01*
X105791000Y-67309915D01*
X106013039Y-67431904D01*
X106147087Y-67391246D01*
X106401420Y-67271037D01*
X106428001Y-67251334D01*
X106428000Y-73450408D01*
X105323780Y-74554629D01*
X105304474Y-74570473D01*
X105241242Y-74647521D01*
X105216127Y-74694508D01*
X105194255Y-74735426D01*
X105165322Y-74830808D01*
X105155553Y-74930000D01*
X105158001Y-74954856D01*
X105158000Y-84963000D01*
X103630000Y-84963000D01*
X103630000Y-75139591D01*
X104734220Y-74035372D01*
X104753527Y-74019527D01*
X104816759Y-73942479D01*
X104863745Y-73854575D01*
X104892678Y-73759193D01*
X104900000Y-73684854D01*
X104900000Y-73684847D01*
X104902447Y-73660001D01*
X104900000Y-73635155D01*
X104900000Y-67251335D01*
X104926580Y-67271037D01*
X105180913Y-67391246D01*
X105314961Y-67431904D01*
X105537000Y-67309915D01*
X105537000Y-66167000D01*
X105517000Y-66167000D01*
X105517000Y-65913000D01*
X105537000Y-65913000D01*
X105537000Y-64770085D01*
X105314961Y-64648096D01*
X105195158Y-64684433D01*
X106004220Y-63875372D01*
X106023527Y-63859527D01*
X106086759Y-63782479D01*
X106133745Y-63694575D01*
X106162678Y-63599193D01*
X106170000Y-63524854D01*
X106170000Y-63524847D01*
X106172447Y-63500001D01*
X106170000Y-63475155D01*
X106170000Y-63136185D01*
X106181157Y-63147342D01*
X106374587Y-63276588D01*
X106589515Y-63365614D01*
X106817682Y-63411000D01*
X107050318Y-63411000D01*
X107278485Y-63365614D01*
X107493413Y-63276588D01*
X107686843Y-63147342D01*
X107698000Y-63136185D01*
X107698000Y-63290408D01*
%TA.AperFunction,Conductor*%
D19*
G36*
X107698000Y-63290408D02*
G01*
X106593780Y-64394629D01*
X106574474Y-64410473D01*
X106511242Y-64487521D01*
X106486127Y-64534508D01*
X106464255Y-64575426D01*
X106435322Y-64670808D01*
X106425553Y-64770000D01*
X106428001Y-64794856D01*
X106428001Y-64828666D01*
X106401420Y-64808963D01*
X106147087Y-64688754D01*
X106013039Y-64648096D01*
X105791000Y-64770085D01*
X105791000Y-65913000D01*
X105811000Y-65913000D01*
X105811000Y-66167000D01*
X105791000Y-66167000D01*
X105791000Y-67309915D01*
X106013039Y-67431904D01*
X106147087Y-67391246D01*
X106401420Y-67271037D01*
X106428001Y-67251334D01*
X106428000Y-73450408D01*
X105323780Y-74554629D01*
X105304474Y-74570473D01*
X105241242Y-74647521D01*
X105216127Y-74694508D01*
X105194255Y-74735426D01*
X105165322Y-74830808D01*
X105155553Y-74930000D01*
X105158001Y-74954856D01*
X105158000Y-84963000D01*
X103630000Y-84963000D01*
X103630000Y-75139591D01*
X104734220Y-74035372D01*
X104753527Y-74019527D01*
X104816759Y-73942479D01*
X104863745Y-73854575D01*
X104892678Y-73759193D01*
X104900000Y-73684854D01*
X104900000Y-73684847D01*
X104902447Y-73660001D01*
X104900000Y-73635155D01*
X104900000Y-67251335D01*
X104926580Y-67271037D01*
X105180913Y-67391246D01*
X105314961Y-67431904D01*
X105537000Y-67309915D01*
X105537000Y-66167000D01*
X105517000Y-66167000D01*
X105517000Y-65913000D01*
X105537000Y-65913000D01*
X105537000Y-64770085D01*
X105314961Y-64648096D01*
X105195158Y-64684433D01*
X106004220Y-63875372D01*
X106023527Y-63859527D01*
X106086759Y-63782479D01*
X106133745Y-63694575D01*
X106162678Y-63599193D01*
X106170000Y-63524854D01*
X106170000Y-63524847D01*
X106172447Y-63500001D01*
X106170000Y-63475155D01*
X106170000Y-63136185D01*
X106181157Y-63147342D01*
X106374587Y-63276588D01*
X106589515Y-63365614D01*
X106817682Y-63411000D01*
X107050318Y-63411000D01*
X107278485Y-63365614D01*
X107493413Y-63276588D01*
X107686843Y-63147342D01*
X107698000Y-63136185D01*
X107698000Y-63290408D01*
G37*
%TD.AperFunction*%
D18*
X129667000Y-53289200D02*
X128320347Y-53289200D01*
X128295400Y-53286743D01*
X128270453Y-53289200D01*
X128195815Y-53296551D01*
X128100057Y-53325599D01*
X128011805Y-53372771D01*
X127934452Y-53436252D01*
X127870971Y-53513605D01*
X127823799Y-53601857D01*
X127794751Y-53697615D01*
X127784943Y-53797200D01*
X127787401Y-53822157D01*
X127787400Y-57760053D01*
X127784943Y-57785000D01*
X127794751Y-57884585D01*
X127823799Y-57980343D01*
X127870971Y-58068595D01*
X127934452Y-58145948D01*
X128011805Y-58209429D01*
X128100057Y-58256601D01*
X128195815Y-58285649D01*
X128295400Y-58295457D01*
X128320347Y-58293000D01*
X129667001Y-58293000D01*
X129667000Y-71887951D01*
X125481233Y-76465370D01*
X125470653Y-76474052D01*
X125447547Y-76502207D01*
X125439875Y-76510597D01*
X125431710Y-76521505D01*
X125407172Y-76551405D01*
X125401786Y-76561482D01*
X125394932Y-76570638D01*
X125378229Y-76605553D01*
X125360000Y-76639657D01*
X125356683Y-76650593D01*
X125351748Y-76660908D01*
X125342181Y-76698398D01*
X125330952Y-76735415D01*
X125329832Y-76746792D01*
X125327005Y-76757868D01*
X125324935Y-76796509D01*
X125323601Y-76810053D01*
X125323601Y-76821409D01*
X125321652Y-76857790D01*
X125323601Y-76871342D01*
X125323600Y-84963000D01*
X121410000Y-84963000D01*
X121410000Y-75139591D01*
X122514220Y-74035372D01*
X122533527Y-74019527D01*
X122596759Y-73942479D01*
X122643745Y-73854575D01*
X122672678Y-73759193D01*
X122680000Y-73684854D01*
X122680000Y-73684847D01*
X122682447Y-73660001D01*
X122680000Y-73635155D01*
X122680000Y-66946185D01*
X122691157Y-66957342D01*
X122884587Y-67086588D01*
X123099515Y-67175614D01*
X123327682Y-67221000D01*
X123560318Y-67221000D01*
X123788485Y-67175614D01*
X124003413Y-67086588D01*
X124196843Y-66957342D01*
X124361342Y-66792843D01*
X124490588Y-66599413D01*
X124579614Y-66384485D01*
X124625000Y-66156318D01*
X124625000Y-65923682D01*
X124579614Y-65695515D01*
X124490588Y-65480587D01*
X124361342Y-65287157D01*
X124196843Y-65122658D01*
X124003413Y-64993412D01*
X123788485Y-64904386D01*
X123560318Y-64859000D01*
X123327682Y-64859000D01*
X123099515Y-64904386D01*
X122884587Y-64993412D01*
X122691157Y-65122658D01*
X122680000Y-65133815D01*
X122680000Y-60384054D01*
X122786776Y-60490830D01*
X122955638Y-60603661D01*
X123143268Y-60681380D01*
X123342455Y-60721000D01*
X123545545Y-60721000D01*
X123744732Y-60681380D01*
X123932362Y-60603661D01*
X124101224Y-60490830D01*
X124244830Y-60347224D01*
X124357661Y-60178362D01*
X124435380Y-59990732D01*
X124475000Y-59791545D01*
X124475000Y-59588455D01*
X124435380Y-59389268D01*
X124357661Y-59201638D01*
X124244830Y-59032776D01*
X124101224Y-58889170D01*
X123932362Y-58776339D01*
X123744732Y-58698620D01*
X123545545Y-58659000D01*
X123342455Y-58659000D01*
X123143268Y-58698620D01*
X122955638Y-58776339D01*
X122786776Y-58889170D01*
X122680000Y-58995946D01*
X122680000Y-58133608D01*
X122738079Y-58075529D01*
X122791466Y-58304201D01*
X123021374Y-58410095D01*
X123267524Y-58469102D01*
X123520455Y-58478952D01*
X123770449Y-58439270D01*
X124007896Y-58351578D01*
X124096534Y-58304201D01*
X124149922Y-58075527D01*
X123444000Y-57369605D01*
X123429858Y-57383748D01*
X123250253Y-57204143D01*
X123264395Y-57190000D01*
X123623605Y-57190000D01*
X124329527Y-57895922D01*
X124558201Y-57842534D01*
X124664095Y-57612626D01*
X124723102Y-57366476D01*
X124732952Y-57113545D01*
X124693270Y-56863551D01*
X124605578Y-56626104D01*
X124558201Y-56537466D01*
X124329527Y-56484078D01*
X123623605Y-57190000D01*
X123264395Y-57190000D01*
X123250253Y-57175858D01*
X123429858Y-56996253D01*
X123444000Y-57010395D01*
X124149922Y-56304473D01*
X124096534Y-56075799D01*
X123866626Y-55969905D01*
X123620476Y-55910898D01*
X123367545Y-55901048D01*
X123117551Y-55940730D01*
X122880104Y-56028422D01*
X122791466Y-56075799D01*
X122738079Y-56304471D01*
X122680000Y-56246392D01*
X122680000Y-52094845D01*
X122682447Y-52069999D01*
X122680000Y-52045153D01*
X122680000Y-52045146D01*
X122676407Y-52008672D01*
X122706580Y-52031037D01*
X122960913Y-52151246D01*
X123094961Y-52191904D01*
X123317000Y-52069915D01*
X123317000Y-50927000D01*
X123571000Y-50927000D01*
X123571000Y-52069915D01*
X123793039Y-52191904D01*
X123927087Y-52151246D01*
X124181420Y-52031037D01*
X124407414Y-51863519D01*
X124596385Y-51655131D01*
X124741070Y-51413881D01*
X124835909Y-51149040D01*
X124714624Y-50927000D01*
X123571000Y-50927000D01*
X123317000Y-50927000D01*
X123297000Y-50927000D01*
X123297000Y-50673000D01*
X123317000Y-50673000D01*
X123317000Y-49530085D01*
X123571000Y-49530085D01*
X123571000Y-50673000D01*
X124714624Y-50673000D01*
X124835909Y-50450960D01*
X124741070Y-50186119D01*
X124596385Y-49944869D01*
X124407414Y-49736481D01*
X124181420Y-49568963D01*
X123927087Y-49448754D01*
X123793039Y-49408096D01*
X123571000Y-49530085D01*
X123317000Y-49530085D01*
X123094961Y-49408096D01*
X122960913Y-49448754D01*
X122706580Y-49568963D01*
X122480586Y-49736481D01*
X122291615Y-49944869D01*
X122146930Y-50186119D01*
X122052091Y-50450960D01*
X122173375Y-50672998D01*
X122082875Y-50672998D01*
X122039614Y-50455515D01*
X121950588Y-50240587D01*
X121821342Y-50047157D01*
X121656843Y-49882658D01*
X121463413Y-49753412D01*
X121248485Y-49664386D01*
X121020318Y-49619000D01*
X120787682Y-49619000D01*
X120559515Y-49664386D01*
X120344587Y-49753412D01*
X120151157Y-49882658D01*
X119986658Y-50047157D01*
X119857412Y-50240587D01*
X119768386Y-50455515D01*
X119723000Y-50683682D01*
X119723000Y-50916318D01*
X119768386Y-51144485D01*
X119857412Y-51359413D01*
X119986658Y-51552843D01*
X120151157Y-51717342D01*
X120344587Y-51846588D01*
X120559515Y-51935614D01*
X120787682Y-51981000D01*
X121020318Y-51981000D01*
X121248485Y-51935614D01*
X121301898Y-51913490D01*
X121668001Y-52279593D01*
X121668000Y-65133815D01*
X121656843Y-65122658D01*
X121463413Y-64993412D01*
X121248485Y-64904386D01*
X121020318Y-64859000D01*
X120787682Y-64859000D01*
X120559515Y-64904386D01*
X120344587Y-64993412D01*
X120151157Y-65122658D01*
X120140000Y-65133815D01*
X120140000Y-52094845D01*
X120142447Y-52069999D01*
X120140000Y-52045153D01*
X120140000Y-52045146D01*
X120132678Y-51970807D01*
X120103745Y-51875425D01*
X120056759Y-51787521D01*
X119993527Y-51710473D01*
X119974220Y-51694628D01*
X119477490Y-51197898D01*
X119499614Y-51144485D01*
X119545000Y-50916318D01*
X119545000Y-50683682D01*
X119499614Y-50455515D01*
X119410588Y-50240587D01*
X119281342Y-50047157D01*
X119116843Y-49882658D01*
X118923413Y-49753412D01*
X118708485Y-49664386D01*
X118480318Y-49619000D01*
X118247682Y-49619000D01*
X118019515Y-49664386D01*
X117804587Y-49753412D01*
X117611157Y-49882658D01*
X117446658Y-50047157D01*
X117317412Y-50240587D01*
X117228386Y-50455515D01*
X117183000Y-50683682D01*
X117183000Y-50916318D01*
X117228386Y-51144485D01*
X117317412Y-51359413D01*
X117446658Y-51552843D01*
X117611157Y-51717342D01*
X117804587Y-51846588D01*
X118019515Y-51935614D01*
X118247682Y-51981000D01*
X118480318Y-51981000D01*
X118708485Y-51935614D01*
X118761898Y-51913490D01*
X119128001Y-52279593D01*
X119128000Y-65133815D01*
X119116843Y-65122658D01*
X118923413Y-64993412D01*
X118708485Y-64904386D01*
X118480318Y-64859000D01*
X118247682Y-64859000D01*
X118019515Y-64904386D01*
X117804587Y-64993412D01*
X117611157Y-65122658D01*
X117600000Y-65133815D01*
X117600000Y-64979591D01*
X118704220Y-63875372D01*
X118723527Y-63859527D01*
X118786759Y-63782479D01*
X118833745Y-63694575D01*
X118862678Y-63599193D01*
X118870000Y-63524854D01*
X118870000Y-63524847D01*
X118872447Y-63500001D01*
X118870000Y-63475155D01*
X118870000Y-53364845D01*
X118872447Y-53339999D01*
X118870000Y-53315153D01*
X118870000Y-53315146D01*
X118862678Y-53240807D01*
X118833745Y-53145425D01*
X118786759Y-53057521D01*
X118723527Y-52980473D01*
X118704220Y-52964628D01*
X116937490Y-51197898D01*
X116959614Y-51144485D01*
X117005000Y-50916318D01*
X117005000Y-50683682D01*
X116959614Y-50455515D01*
X116870588Y-50240587D01*
X116741342Y-50047157D01*
X116576843Y-49882658D01*
X116383413Y-49753412D01*
X116168485Y-49664386D01*
X115940318Y-49619000D01*
X115707682Y-49619000D01*
X115479515Y-49664386D01*
X115264587Y-49753412D01*
X115071157Y-49882658D01*
X114906658Y-50047157D01*
X114777412Y-50240587D01*
X114688386Y-50455515D01*
X114643000Y-50683682D01*
X114643000Y-50916318D01*
X114688386Y-51144485D01*
X114777412Y-51359413D01*
X114906658Y-51552843D01*
X115071157Y-51717342D01*
X115264587Y-51846588D01*
X115479515Y-51935614D01*
X115707682Y-51981000D01*
X115940318Y-51981000D01*
X116168485Y-51935614D01*
X116221898Y-51913490D01*
X117735565Y-53427157D01*
X116330000Y-53427157D01*
X116330000Y-53364845D01*
X116332447Y-53339999D01*
X116330000Y-53315153D01*
X116330000Y-53315146D01*
X116322678Y-53240807D01*
X116293745Y-53145425D01*
X116246759Y-53057521D01*
X116183527Y-52980473D01*
X116164220Y-52964628D01*
X114397490Y-51197898D01*
X114419614Y-51144485D01*
X114465000Y-50916318D01*
X114465000Y-50683682D01*
X114419614Y-50455515D01*
X114330588Y-50240587D01*
X114201342Y-50047157D01*
X114036843Y-49882658D01*
X113843413Y-49753412D01*
X113628485Y-49664386D01*
X113400318Y-49619000D01*
X113167682Y-49619000D01*
X112939515Y-49664386D01*
X112724587Y-49753412D01*
X112531157Y-49882658D01*
X112366658Y-50047157D01*
X112237412Y-50240587D01*
X112148386Y-50455515D01*
X112103000Y-50683682D01*
X112103000Y-50916318D01*
X112148386Y-51144485D01*
X112237412Y-51359413D01*
X112366658Y-51552843D01*
X112531157Y-51717342D01*
X112724587Y-51846588D01*
X112939515Y-51935614D01*
X113167682Y-51981000D01*
X113400318Y-51981000D01*
X113628485Y-51935614D01*
X113681898Y-51913490D01*
X115318001Y-53549593D01*
X115318001Y-53703816D01*
X115306843Y-53692658D01*
X115113413Y-53563412D01*
X114898485Y-53474386D01*
X114670318Y-53429000D01*
X114437682Y-53429000D01*
X114209515Y-53474386D01*
X113994587Y-53563412D01*
X113801157Y-53692658D01*
X113790000Y-53703815D01*
X113790000Y-53364845D01*
X113792447Y-53339999D01*
X113790000Y-53315153D01*
X113790000Y-53315146D01*
X113782678Y-53240807D01*
X113753745Y-53145425D01*
X113706759Y-53057521D01*
X113643527Y-52980473D01*
X113624220Y-52964628D01*
X111857490Y-51197898D01*
X111879614Y-51144485D01*
X111925000Y-50916318D01*
X111925000Y-50683682D01*
X111879614Y-50455515D01*
X111790588Y-50240587D01*
X111661342Y-50047157D01*
X111496843Y-49882658D01*
X111303413Y-49753412D01*
X111088485Y-49664386D01*
X110860318Y-49619000D01*
X110627682Y-49619000D01*
X110399515Y-49664386D01*
X110184587Y-49753412D01*
X109991157Y-49882658D01*
X109826658Y-50047157D01*
X109697412Y-50240587D01*
X109608386Y-50455515D01*
X109563000Y-50683682D01*
X109563000Y-50916318D01*
X109608386Y-51144485D01*
X109697412Y-51359413D01*
X109826658Y-51552843D01*
X109991157Y-51717342D01*
X110184587Y-51846588D01*
X110399515Y-51935614D01*
X110627682Y-51981000D01*
X110860318Y-51981000D01*
X111088485Y-51935614D01*
X111141898Y-51913490D01*
X112778001Y-53549593D01*
X112778001Y-53703816D01*
X112766843Y-53692658D01*
X112573413Y-53563412D01*
X112358485Y-53474386D01*
X112130318Y-53429000D01*
X111897682Y-53429000D01*
X111669515Y-53474386D01*
X111454587Y-53563412D01*
X111261157Y-53692658D01*
X111250000Y-53703815D01*
X111250000Y-53364845D01*
X111252447Y-53339999D01*
X111250000Y-53315153D01*
X111250000Y-53315146D01*
X111242678Y-53240807D01*
X111213745Y-53145425D01*
X111166759Y-53057521D01*
X111103527Y-52980473D01*
X111084220Y-52964628D01*
X109317490Y-51197898D01*
X109339614Y-51144485D01*
X109385000Y-50916318D01*
X109385000Y-50683682D01*
X109339614Y-50455515D01*
X109250588Y-50240587D01*
X109121342Y-50047157D01*
X108956843Y-49882658D01*
X108763413Y-49753412D01*
X108548485Y-49664386D01*
X108320318Y-49619000D01*
X108087682Y-49619000D01*
X107859515Y-49664386D01*
X107644587Y-49753412D01*
X107451157Y-49882658D01*
X107286658Y-50047157D01*
X107157412Y-50240587D01*
X107068386Y-50455515D01*
X107023000Y-50683682D01*
X107023000Y-50916318D01*
X107068386Y-51144485D01*
X107157412Y-51359413D01*
X107286658Y-51552843D01*
X107451157Y-51717342D01*
X107644587Y-51846588D01*
X107859515Y-51935614D01*
X108087682Y-51981000D01*
X108320318Y-51981000D01*
X108548485Y-51935614D01*
X108601898Y-51913490D01*
X110238001Y-53549593D01*
X110238001Y-53703816D01*
X110226843Y-53692658D01*
X110033413Y-53563412D01*
X109818485Y-53474386D01*
X109590318Y-53429000D01*
X109357682Y-53429000D01*
X109129515Y-53474386D01*
X108914587Y-53563412D01*
X108721157Y-53692658D01*
X108710000Y-53703815D01*
X108710000Y-53364845D01*
X108712447Y-53339999D01*
X108710000Y-53315153D01*
X108710000Y-53315146D01*
X108702678Y-53240807D01*
X108673745Y-53145425D01*
X108626759Y-53057521D01*
X108563527Y-52980473D01*
X108544220Y-52964628D01*
X106777490Y-51197898D01*
X106799614Y-51144485D01*
X106845000Y-50916318D01*
X106845000Y-50683682D01*
X106799614Y-50455515D01*
X106710588Y-50240587D01*
X106581342Y-50047157D01*
X106416843Y-49882658D01*
X106223413Y-49753412D01*
X106008485Y-49664386D01*
X105780318Y-49619000D01*
X105547682Y-49619000D01*
X105319515Y-49664386D01*
X105104587Y-49753412D01*
X104911157Y-49882658D01*
X104746658Y-50047157D01*
X104617412Y-50240587D01*
X104528386Y-50455515D01*
X104483000Y-50683682D01*
X104483000Y-50916318D01*
X104528386Y-51144485D01*
X104617412Y-51359413D01*
X104746658Y-51552843D01*
X104911157Y-51717342D01*
X105104587Y-51846588D01*
X105319515Y-51935614D01*
X105547682Y-51981000D01*
X105780318Y-51981000D01*
X106008485Y-51935614D01*
X106061898Y-51913490D01*
X107698001Y-53549593D01*
X107698001Y-53703816D01*
X107686843Y-53692658D01*
X107493413Y-53563412D01*
X107278485Y-53474386D01*
X107050318Y-53429000D01*
X106817682Y-53429000D01*
X106589515Y-53474386D01*
X106374587Y-53563412D01*
X106181157Y-53692658D01*
X106170000Y-53703815D01*
X106170000Y-53364845D01*
X106172447Y-53339999D01*
X106170000Y-53315153D01*
X106170000Y-53315146D01*
X106162678Y-53240807D01*
X106133745Y-53145425D01*
X106086759Y-53057521D01*
X106023527Y-52980473D01*
X106004220Y-52964628D01*
X104237490Y-51197898D01*
X104259614Y-51144485D01*
X104305000Y-50916318D01*
X104305000Y-50683682D01*
X104259614Y-50455515D01*
X104170588Y-50240587D01*
X104041342Y-50047157D01*
X103876843Y-49882658D01*
X103683413Y-49753412D01*
X103468485Y-49664386D01*
X103240318Y-49619000D01*
X103007682Y-49619000D01*
X102779515Y-49664386D01*
X102564587Y-49753412D01*
X102371157Y-49882658D01*
X102206658Y-50047157D01*
X102077412Y-50240587D01*
X101988386Y-50455515D01*
X101943000Y-50683682D01*
X101943000Y-50916318D01*
X101988386Y-51144485D01*
X102077412Y-51359413D01*
X102206658Y-51552843D01*
X102371157Y-51717342D01*
X102564587Y-51846588D01*
X102779515Y-51935614D01*
X103007682Y-51981000D01*
X103240318Y-51981000D01*
X103468485Y-51935614D01*
X103521898Y-51913490D01*
X105158001Y-53549593D01*
X105158001Y-53703816D01*
X105146843Y-53692658D01*
X104953413Y-53563412D01*
X104738485Y-53474386D01*
X104510318Y-53429000D01*
X104277682Y-53429000D01*
X104049515Y-53474386D01*
X103834587Y-53563412D01*
X103641157Y-53692658D01*
X103476658Y-53857157D01*
X103347412Y-54050587D01*
X103258386Y-54265515D01*
X103215125Y-54482998D01*
X103124625Y-54482998D01*
X103245909Y-54260960D01*
X103151070Y-53996119D01*
X103006385Y-53754869D01*
X102817414Y-53546481D01*
X102591420Y-53378963D01*
X102337087Y-53258754D01*
X102203039Y-53218096D01*
X101981000Y-53340085D01*
X101981000Y-54483000D01*
X102001000Y-54483000D01*
X102001000Y-54737000D01*
X101981000Y-54737000D01*
X101981000Y-55879915D01*
X102203039Y-56001904D01*
X102337087Y-55961246D01*
X102591420Y-55841037D01*
X102817414Y-55673519D01*
X103006385Y-55465131D01*
X103151070Y-55223881D01*
X103245909Y-54959040D01*
X103124625Y-54737002D01*
X103215125Y-54737002D01*
X103258386Y-54954485D01*
X103347412Y-55169413D01*
X103476658Y-55362843D01*
X103641157Y-55527342D01*
X103834587Y-55656588D01*
X104049515Y-55745614D01*
X104277682Y-55791000D01*
X104510318Y-55791000D01*
X104738485Y-55745614D01*
X104953413Y-55656588D01*
X105146843Y-55527342D01*
X105158001Y-55516184D01*
X105158000Y-61323815D01*
X105146843Y-61312658D01*
X104953413Y-61183412D01*
X104738485Y-61094386D01*
X104510318Y-61049000D01*
X104277682Y-61049000D01*
X104049515Y-61094386D01*
X103834587Y-61183412D01*
X103641157Y-61312658D01*
X103476658Y-61477157D01*
X103347412Y-61670587D01*
X103258386Y-61885515D01*
X103213000Y-62113682D01*
X103213000Y-62346318D01*
X103258386Y-62574485D01*
X103347412Y-62789413D01*
X103476658Y-62982843D01*
X103641157Y-63147342D01*
X103834587Y-63276588D01*
X104049515Y-63365614D01*
X104277682Y-63411000D01*
X104510318Y-63411000D01*
X104738485Y-63365614D01*
X104953413Y-63276588D01*
X105146843Y-63147342D01*
X105158000Y-63136185D01*
X105158000Y-63290408D01*
X104053780Y-64394629D01*
X104034474Y-64410473D01*
X103971242Y-64487521D01*
X103946127Y-64534508D01*
X103924255Y-64575426D01*
X103895322Y-64670808D01*
X103885553Y-64770000D01*
X103888001Y-64794856D01*
X103888001Y-65133816D01*
X103876843Y-65122658D01*
X103683413Y-64993412D01*
X103468485Y-64904386D01*
X103240318Y-64859000D01*
X103007682Y-64859000D01*
X102779515Y-64904386D01*
X102564587Y-64993412D01*
X102371157Y-65122658D01*
X102360000Y-65133815D01*
X102360000Y-64794845D01*
X102362447Y-64769999D01*
X102360000Y-64745153D01*
X102360000Y-64745146D01*
X102352678Y-64670807D01*
X102323745Y-64575425D01*
X102276759Y-64487521D01*
X102213527Y-64410473D01*
X102194220Y-64394628D01*
X101090000Y-63290409D01*
X101090000Y-63136185D01*
X101101157Y-63147342D01*
X101294587Y-63276588D01*
X101509515Y-63365614D01*
X101737682Y-63411000D01*
X101970318Y-63411000D01*
X102198485Y-63365614D01*
X102413413Y-63276588D01*
X102606843Y-63147342D01*
X102771342Y-62982843D01*
X102900588Y-62789413D01*
X102989614Y-62574485D01*
X103035000Y-62346318D01*
X103035000Y-62113682D01*
X102989614Y-61885515D01*
X102900588Y-61670587D01*
X102771342Y-61477157D01*
X102606843Y-61312658D01*
X102413413Y-61183412D01*
X102198485Y-61094386D01*
X101970318Y-61049000D01*
X101737682Y-61049000D01*
X101509515Y-61094386D01*
X101294587Y-61183412D01*
X101101157Y-61312658D01*
X101090000Y-61323815D01*
X101090000Y-55821335D01*
X101116580Y-55841037D01*
X101370913Y-55961246D01*
X101504961Y-56001904D01*
X101727000Y-55879915D01*
X101727000Y-54737000D01*
X101707000Y-54737000D01*
X101707000Y-54483000D01*
X101727000Y-54483000D01*
X101727000Y-53340085D01*
X101504961Y-53218096D01*
X101370913Y-53258754D01*
X101116580Y-53378963D01*
X101090000Y-53398665D01*
X101090000Y-51868712D01*
X101143413Y-51846588D01*
X101336843Y-51717342D01*
X101501342Y-51552843D01*
X101630588Y-51359413D01*
X101719614Y-51144485D01*
X101765000Y-50916318D01*
X101765000Y-50683682D01*
X101719614Y-50455515D01*
X101630588Y-50240587D01*
X101501342Y-50047157D01*
X101336843Y-49882658D01*
X101143413Y-49753412D01*
X100928485Y-49664386D01*
X100700318Y-49619000D01*
X100467682Y-49619000D01*
X100239515Y-49664386D01*
X100024587Y-49753412D01*
X99831157Y-49882658D01*
X99666658Y-50047157D01*
X99537412Y-50240587D01*
X99448386Y-50455515D01*
X99403000Y-50683682D01*
X99403000Y-50916318D01*
X99448386Y-51144485D01*
X99537412Y-51359413D01*
X99666658Y-51552843D01*
X99831157Y-51717342D01*
X100024587Y-51846588D01*
X100078001Y-51868713D01*
X100078000Y-63475154D01*
X100075553Y-63500000D01*
X100078000Y-63524846D01*
X100078000Y-63524853D01*
X100085322Y-63599192D01*
X100114255Y-63694574D01*
X100161241Y-63782479D01*
X100224473Y-63859527D01*
X100243785Y-63875376D01*
X101348001Y-64979593D01*
X101348001Y-65133816D01*
X101336843Y-65122658D01*
X101143413Y-64993412D01*
X100928485Y-64904386D01*
X100700318Y-64859000D01*
X100467682Y-64859000D01*
X100239515Y-64904386D01*
X100024587Y-64993412D01*
X99831157Y-65122658D01*
X99820000Y-65133815D01*
X99820000Y-52094845D01*
X99822447Y-52069999D01*
X99820000Y-52045153D01*
X99820000Y-52045146D01*
X99812678Y-51970807D01*
X99783745Y-51875425D01*
X99736759Y-51787521D01*
X99673527Y-51710473D01*
X99654220Y-51694628D01*
X99157490Y-51197898D01*
X99179614Y-51144485D01*
X99225000Y-50916318D01*
X99225000Y-50683682D01*
X99179614Y-50455515D01*
X99090588Y-50240587D01*
X98961342Y-50047157D01*
X98796843Y-49882658D01*
X98603413Y-49753412D01*
X98388485Y-49664386D01*
X98160318Y-49619000D01*
X97927682Y-49619000D01*
X97699515Y-49664386D01*
X97484587Y-49753412D01*
X97291157Y-49882658D01*
X97126658Y-50047157D01*
X96997412Y-50240587D01*
X96908386Y-50455515D01*
X96863000Y-50683682D01*
X96863000Y-50916318D01*
X96908386Y-51144485D01*
X96997412Y-51359413D01*
X97126658Y-51552843D01*
X97291157Y-51717342D01*
X97484587Y-51846588D01*
X97699515Y-51935614D01*
X97927682Y-51981000D01*
X98160318Y-51981000D01*
X98388485Y-51935614D01*
X98441898Y-51913490D01*
X98808001Y-52279593D01*
X98808000Y-65133815D01*
X98796843Y-65122658D01*
X98603413Y-64993412D01*
X98388485Y-64904386D01*
X98160318Y-64859000D01*
X97927682Y-64859000D01*
X97699515Y-64904386D01*
X97484587Y-64993412D01*
X97291157Y-65122658D01*
X97280000Y-65133815D01*
X97280000Y-52094845D01*
X97282447Y-52069999D01*
X97280000Y-52045153D01*
X97280000Y-52045146D01*
X97272678Y-51970807D01*
X97243745Y-51875425D01*
X97196759Y-51787521D01*
X97133527Y-51710473D01*
X97114220Y-51694628D01*
X96686843Y-51267251D01*
X96686843Y-50000000D01*
X96679487Y-49925311D01*
X96657701Y-49853492D01*
X96622322Y-49787304D01*
X96574711Y-49729289D01*
X96516696Y-49681678D01*
X96450508Y-49646299D01*
X96378689Y-49624513D01*
X96304000Y-49617157D01*
X94704000Y-49617157D01*
X94629311Y-49624513D01*
X94557492Y-49646299D01*
X94491304Y-49681678D01*
X94433289Y-49729289D01*
X94385678Y-49787304D01*
X94350299Y-49853492D01*
X94328513Y-49925311D01*
X94321157Y-50000000D01*
X94321157Y-51600000D01*
X94328513Y-51674689D01*
X94350299Y-51746508D01*
X94385678Y-51812696D01*
X94433289Y-51870711D01*
X94491304Y-51918322D01*
X94557492Y-51953701D01*
X94629311Y-51975487D01*
X94704000Y-51982843D01*
X95971251Y-51982843D01*
X96268001Y-52279593D01*
X96268000Y-65133815D01*
X96256843Y-65122658D01*
X96063413Y-64993412D01*
X95848485Y-64904386D01*
X95620318Y-64859000D01*
X95387682Y-64859000D01*
X95159515Y-64904386D01*
X94944587Y-64993412D01*
X94751157Y-65122658D01*
X94586658Y-65287157D01*
X94457412Y-65480587D01*
X94368386Y-65695515D01*
X94323000Y-65923682D01*
X94323000Y-66156318D01*
X94368386Y-66384485D01*
X94457412Y-66599413D01*
X94586658Y-66792843D01*
X94751157Y-66957342D01*
X94944587Y-67086588D01*
X95159515Y-67175614D01*
X95387682Y-67221000D01*
X95620318Y-67221000D01*
X95848485Y-67175614D01*
X96063413Y-67086588D01*
X96256843Y-66957342D01*
X96268000Y-66946185D01*
X96268000Y-73450408D01*
X95163780Y-74554629D01*
X95144474Y-74570473D01*
X95081242Y-74647521D01*
X95056127Y-74694508D01*
X95034255Y-74735426D01*
X95005322Y-74830808D01*
X94995553Y-74930000D01*
X94998001Y-74954856D01*
X94998000Y-84963000D01*
X93802200Y-84963000D01*
X93802200Y-76869859D01*
X93804272Y-76854836D01*
X93802200Y-76819945D01*
X93802200Y-76810053D01*
X93800720Y-76795031D01*
X93798340Y-76754945D01*
X93795825Y-76745321D01*
X93794849Y-76735415D01*
X93783188Y-76696974D01*
X93773035Y-76658129D01*
X93768689Y-76649179D01*
X93765801Y-76639657D01*
X93746872Y-76604243D01*
X93729329Y-76568112D01*
X93723319Y-76560179D01*
X93718629Y-76551405D01*
X93693153Y-76520362D01*
X93684039Y-76508332D01*
X93677321Y-76501071D01*
X93655148Y-76474052D01*
X93643425Y-76464431D01*
X89408000Y-71886256D01*
X89408000Y-58293000D01*
X90754653Y-58293000D01*
X90779600Y-58295457D01*
X90804547Y-58293000D01*
X90879185Y-58285649D01*
X90974943Y-58256601D01*
X91063195Y-58209429D01*
X91140548Y-58145948D01*
X91204029Y-58068595D01*
X91251201Y-57980343D01*
X91280249Y-57884585D01*
X91290057Y-57785000D01*
X91287600Y-57760053D01*
X91287600Y-53822146D01*
X91290057Y-53797200D01*
X91280249Y-53697615D01*
X91251201Y-53601857D01*
X91204029Y-53513605D01*
X91140548Y-53436252D01*
X91063195Y-53372771D01*
X90974943Y-53325599D01*
X90879185Y-53296551D01*
X90804547Y-53289200D01*
X90779600Y-53286743D01*
X90754653Y-53289200D01*
X89408000Y-53289200D01*
X89408000Y-46355000D01*
X129667001Y-46355000D01*
X129667000Y-53289200D01*
%TA.AperFunction,Conductor*%
D19*
G36*
X129667000Y-53289200D02*
G01*
X128320347Y-53289200D01*
X128295400Y-53286743D01*
X128270453Y-53289200D01*
X128195815Y-53296551D01*
X128100057Y-53325599D01*
X128011805Y-53372771D01*
X127934452Y-53436252D01*
X127870971Y-53513605D01*
X127823799Y-53601857D01*
X127794751Y-53697615D01*
X127784943Y-53797200D01*
X127787401Y-53822157D01*
X127787400Y-57760053D01*
X127784943Y-57785000D01*
X127794751Y-57884585D01*
X127823799Y-57980343D01*
X127870971Y-58068595D01*
X127934452Y-58145948D01*
X128011805Y-58209429D01*
X128100057Y-58256601D01*
X128195815Y-58285649D01*
X128295400Y-58295457D01*
X128320347Y-58293000D01*
X129667001Y-58293000D01*
X129667000Y-71887951D01*
X125481233Y-76465370D01*
X125470653Y-76474052D01*
X125447547Y-76502207D01*
X125439875Y-76510597D01*
X125431710Y-76521505D01*
X125407172Y-76551405D01*
X125401786Y-76561482D01*
X125394932Y-76570638D01*
X125378229Y-76605553D01*
X125360000Y-76639657D01*
X125356683Y-76650593D01*
X125351748Y-76660908D01*
X125342181Y-76698398D01*
X125330952Y-76735415D01*
X125329832Y-76746792D01*
X125327005Y-76757868D01*
X125324935Y-76796509D01*
X125323601Y-76810053D01*
X125323601Y-76821409D01*
X125321652Y-76857790D01*
X125323601Y-76871342D01*
X125323600Y-84963000D01*
X121410000Y-84963000D01*
X121410000Y-75139591D01*
X122514220Y-74035372D01*
X122533527Y-74019527D01*
X122596759Y-73942479D01*
X122643745Y-73854575D01*
X122672678Y-73759193D01*
X122680000Y-73684854D01*
X122680000Y-73684847D01*
X122682447Y-73660001D01*
X122680000Y-73635155D01*
X122680000Y-66946185D01*
X122691157Y-66957342D01*
X122884587Y-67086588D01*
X123099515Y-67175614D01*
X123327682Y-67221000D01*
X123560318Y-67221000D01*
X123788485Y-67175614D01*
X124003413Y-67086588D01*
X124196843Y-66957342D01*
X124361342Y-66792843D01*
X124490588Y-66599413D01*
X124579614Y-66384485D01*
X124625000Y-66156318D01*
X124625000Y-65923682D01*
X124579614Y-65695515D01*
X124490588Y-65480587D01*
X124361342Y-65287157D01*
X124196843Y-65122658D01*
X124003413Y-64993412D01*
X123788485Y-64904386D01*
X123560318Y-64859000D01*
X123327682Y-64859000D01*
X123099515Y-64904386D01*
X122884587Y-64993412D01*
X122691157Y-65122658D01*
X122680000Y-65133815D01*
X122680000Y-60384054D01*
X122786776Y-60490830D01*
X122955638Y-60603661D01*
X123143268Y-60681380D01*
X123342455Y-60721000D01*
X123545545Y-60721000D01*
X123744732Y-60681380D01*
X123932362Y-60603661D01*
X124101224Y-60490830D01*
X124244830Y-60347224D01*
X124357661Y-60178362D01*
X124435380Y-59990732D01*
X124475000Y-59791545D01*
X124475000Y-59588455D01*
X124435380Y-59389268D01*
X124357661Y-59201638D01*
X124244830Y-59032776D01*
X124101224Y-58889170D01*
X123932362Y-58776339D01*
X123744732Y-58698620D01*
X123545545Y-58659000D01*
X123342455Y-58659000D01*
X123143268Y-58698620D01*
X122955638Y-58776339D01*
X122786776Y-58889170D01*
X122680000Y-58995946D01*
X122680000Y-58133608D01*
X122738079Y-58075529D01*
X122791466Y-58304201D01*
X123021374Y-58410095D01*
X123267524Y-58469102D01*
X123520455Y-58478952D01*
X123770449Y-58439270D01*
X124007896Y-58351578D01*
X124096534Y-58304201D01*
X124149922Y-58075527D01*
X123444000Y-57369605D01*
X123429858Y-57383748D01*
X123250253Y-57204143D01*
X123264395Y-57190000D01*
X123623605Y-57190000D01*
X124329527Y-57895922D01*
X124558201Y-57842534D01*
X124664095Y-57612626D01*
X124723102Y-57366476D01*
X124732952Y-57113545D01*
X124693270Y-56863551D01*
X124605578Y-56626104D01*
X124558201Y-56537466D01*
X124329527Y-56484078D01*
X123623605Y-57190000D01*
X123264395Y-57190000D01*
X123250253Y-57175858D01*
X123429858Y-56996253D01*
X123444000Y-57010395D01*
X124149922Y-56304473D01*
X124096534Y-56075799D01*
X123866626Y-55969905D01*
X123620476Y-55910898D01*
X123367545Y-55901048D01*
X123117551Y-55940730D01*
X122880104Y-56028422D01*
X122791466Y-56075799D01*
X122738079Y-56304471D01*
X122680000Y-56246392D01*
X122680000Y-52094845D01*
X122682447Y-52069999D01*
X122680000Y-52045153D01*
X122680000Y-52045146D01*
X122676407Y-52008672D01*
X122706580Y-52031037D01*
X122960913Y-52151246D01*
X123094961Y-52191904D01*
X123317000Y-52069915D01*
X123317000Y-50927000D01*
X123571000Y-50927000D01*
X123571000Y-52069915D01*
X123793039Y-52191904D01*
X123927087Y-52151246D01*
X124181420Y-52031037D01*
X124407414Y-51863519D01*
X124596385Y-51655131D01*
X124741070Y-51413881D01*
X124835909Y-51149040D01*
X124714624Y-50927000D01*
X123571000Y-50927000D01*
X123317000Y-50927000D01*
X123297000Y-50927000D01*
X123297000Y-50673000D01*
X123317000Y-50673000D01*
X123317000Y-49530085D01*
X123571000Y-49530085D01*
X123571000Y-50673000D01*
X124714624Y-50673000D01*
X124835909Y-50450960D01*
X124741070Y-50186119D01*
X124596385Y-49944869D01*
X124407414Y-49736481D01*
X124181420Y-49568963D01*
X123927087Y-49448754D01*
X123793039Y-49408096D01*
X123571000Y-49530085D01*
X123317000Y-49530085D01*
X123094961Y-49408096D01*
X122960913Y-49448754D01*
X122706580Y-49568963D01*
X122480586Y-49736481D01*
X122291615Y-49944869D01*
X122146930Y-50186119D01*
X122052091Y-50450960D01*
X122173375Y-50672998D01*
X122082875Y-50672998D01*
X122039614Y-50455515D01*
X121950588Y-50240587D01*
X121821342Y-50047157D01*
X121656843Y-49882658D01*
X121463413Y-49753412D01*
X121248485Y-49664386D01*
X121020318Y-49619000D01*
X120787682Y-49619000D01*
X120559515Y-49664386D01*
X120344587Y-49753412D01*
X120151157Y-49882658D01*
X119986658Y-50047157D01*
X119857412Y-50240587D01*
X119768386Y-50455515D01*
X119723000Y-50683682D01*
X119723000Y-50916318D01*
X119768386Y-51144485D01*
X119857412Y-51359413D01*
X119986658Y-51552843D01*
X120151157Y-51717342D01*
X120344587Y-51846588D01*
X120559515Y-51935614D01*
X120787682Y-51981000D01*
X121020318Y-51981000D01*
X121248485Y-51935614D01*
X121301898Y-51913490D01*
X121668001Y-52279593D01*
X121668000Y-65133815D01*
X121656843Y-65122658D01*
X121463413Y-64993412D01*
X121248485Y-64904386D01*
X121020318Y-64859000D01*
X120787682Y-64859000D01*
X120559515Y-64904386D01*
X120344587Y-64993412D01*
X120151157Y-65122658D01*
X120140000Y-65133815D01*
X120140000Y-52094845D01*
X120142447Y-52069999D01*
X120140000Y-52045153D01*
X120140000Y-52045146D01*
X120132678Y-51970807D01*
X120103745Y-51875425D01*
X120056759Y-51787521D01*
X119993527Y-51710473D01*
X119974220Y-51694628D01*
X119477490Y-51197898D01*
X119499614Y-51144485D01*
X119545000Y-50916318D01*
X119545000Y-50683682D01*
X119499614Y-50455515D01*
X119410588Y-50240587D01*
X119281342Y-50047157D01*
X119116843Y-49882658D01*
X118923413Y-49753412D01*
X118708485Y-49664386D01*
X118480318Y-49619000D01*
X118247682Y-49619000D01*
X118019515Y-49664386D01*
X117804587Y-49753412D01*
X117611157Y-49882658D01*
X117446658Y-50047157D01*
X117317412Y-50240587D01*
X117228386Y-50455515D01*
X117183000Y-50683682D01*
X117183000Y-50916318D01*
X117228386Y-51144485D01*
X117317412Y-51359413D01*
X117446658Y-51552843D01*
X117611157Y-51717342D01*
X117804587Y-51846588D01*
X118019515Y-51935614D01*
X118247682Y-51981000D01*
X118480318Y-51981000D01*
X118708485Y-51935614D01*
X118761898Y-51913490D01*
X119128001Y-52279593D01*
X119128000Y-65133815D01*
X119116843Y-65122658D01*
X118923413Y-64993412D01*
X118708485Y-64904386D01*
X118480318Y-64859000D01*
X118247682Y-64859000D01*
X118019515Y-64904386D01*
X117804587Y-64993412D01*
X117611157Y-65122658D01*
X117600000Y-65133815D01*
X117600000Y-64979591D01*
X118704220Y-63875372D01*
X118723527Y-63859527D01*
X118786759Y-63782479D01*
X118833745Y-63694575D01*
X118862678Y-63599193D01*
X118870000Y-63524854D01*
X118870000Y-63524847D01*
X118872447Y-63500001D01*
X118870000Y-63475155D01*
X118870000Y-53364845D01*
X118872447Y-53339999D01*
X118870000Y-53315153D01*
X118870000Y-53315146D01*
X118862678Y-53240807D01*
X118833745Y-53145425D01*
X118786759Y-53057521D01*
X118723527Y-52980473D01*
X118704220Y-52964628D01*
X116937490Y-51197898D01*
X116959614Y-51144485D01*
X117005000Y-50916318D01*
X117005000Y-50683682D01*
X116959614Y-50455515D01*
X116870588Y-50240587D01*
X116741342Y-50047157D01*
X116576843Y-49882658D01*
X116383413Y-49753412D01*
X116168485Y-49664386D01*
X115940318Y-49619000D01*
X115707682Y-49619000D01*
X115479515Y-49664386D01*
X115264587Y-49753412D01*
X115071157Y-49882658D01*
X114906658Y-50047157D01*
X114777412Y-50240587D01*
X114688386Y-50455515D01*
X114643000Y-50683682D01*
X114643000Y-50916318D01*
X114688386Y-51144485D01*
X114777412Y-51359413D01*
X114906658Y-51552843D01*
X115071157Y-51717342D01*
X115264587Y-51846588D01*
X115479515Y-51935614D01*
X115707682Y-51981000D01*
X115940318Y-51981000D01*
X116168485Y-51935614D01*
X116221898Y-51913490D01*
X117735565Y-53427157D01*
X116330000Y-53427157D01*
X116330000Y-53364845D01*
X116332447Y-53339999D01*
X116330000Y-53315153D01*
X116330000Y-53315146D01*
X116322678Y-53240807D01*
X116293745Y-53145425D01*
X116246759Y-53057521D01*
X116183527Y-52980473D01*
X116164220Y-52964628D01*
X114397490Y-51197898D01*
X114419614Y-51144485D01*
X114465000Y-50916318D01*
X114465000Y-50683682D01*
X114419614Y-50455515D01*
X114330588Y-50240587D01*
X114201342Y-50047157D01*
X114036843Y-49882658D01*
X113843413Y-49753412D01*
X113628485Y-49664386D01*
X113400318Y-49619000D01*
X113167682Y-49619000D01*
X112939515Y-49664386D01*
X112724587Y-49753412D01*
X112531157Y-49882658D01*
X112366658Y-50047157D01*
X112237412Y-50240587D01*
X112148386Y-50455515D01*
X112103000Y-50683682D01*
X112103000Y-50916318D01*
X112148386Y-51144485D01*
X112237412Y-51359413D01*
X112366658Y-51552843D01*
X112531157Y-51717342D01*
X112724587Y-51846588D01*
X112939515Y-51935614D01*
X113167682Y-51981000D01*
X113400318Y-51981000D01*
X113628485Y-51935614D01*
X113681898Y-51913490D01*
X115318001Y-53549593D01*
X115318001Y-53703816D01*
X115306843Y-53692658D01*
X115113413Y-53563412D01*
X114898485Y-53474386D01*
X114670318Y-53429000D01*
X114437682Y-53429000D01*
X114209515Y-53474386D01*
X113994587Y-53563412D01*
X113801157Y-53692658D01*
X113790000Y-53703815D01*
X113790000Y-53364845D01*
X113792447Y-53339999D01*
X113790000Y-53315153D01*
X113790000Y-53315146D01*
X113782678Y-53240807D01*
X113753745Y-53145425D01*
X113706759Y-53057521D01*
X113643527Y-52980473D01*
X113624220Y-52964628D01*
X111857490Y-51197898D01*
X111879614Y-51144485D01*
X111925000Y-50916318D01*
X111925000Y-50683682D01*
X111879614Y-50455515D01*
X111790588Y-50240587D01*
X111661342Y-50047157D01*
X111496843Y-49882658D01*
X111303413Y-49753412D01*
X111088485Y-49664386D01*
X110860318Y-49619000D01*
X110627682Y-49619000D01*
X110399515Y-49664386D01*
X110184587Y-49753412D01*
X109991157Y-49882658D01*
X109826658Y-50047157D01*
X109697412Y-50240587D01*
X109608386Y-50455515D01*
X109563000Y-50683682D01*
X109563000Y-50916318D01*
X109608386Y-51144485D01*
X109697412Y-51359413D01*
X109826658Y-51552843D01*
X109991157Y-51717342D01*
X110184587Y-51846588D01*
X110399515Y-51935614D01*
X110627682Y-51981000D01*
X110860318Y-51981000D01*
X111088485Y-51935614D01*
X111141898Y-51913490D01*
X112778001Y-53549593D01*
X112778001Y-53703816D01*
X112766843Y-53692658D01*
X112573413Y-53563412D01*
X112358485Y-53474386D01*
X112130318Y-53429000D01*
X111897682Y-53429000D01*
X111669515Y-53474386D01*
X111454587Y-53563412D01*
X111261157Y-53692658D01*
X111250000Y-53703815D01*
X111250000Y-53364845D01*
X111252447Y-53339999D01*
X111250000Y-53315153D01*
X111250000Y-53315146D01*
X111242678Y-53240807D01*
X111213745Y-53145425D01*
X111166759Y-53057521D01*
X111103527Y-52980473D01*
X111084220Y-52964628D01*
X109317490Y-51197898D01*
X109339614Y-51144485D01*
X109385000Y-50916318D01*
X109385000Y-50683682D01*
X109339614Y-50455515D01*
X109250588Y-50240587D01*
X109121342Y-50047157D01*
X108956843Y-49882658D01*
X108763413Y-49753412D01*
X108548485Y-49664386D01*
X108320318Y-49619000D01*
X108087682Y-49619000D01*
X107859515Y-49664386D01*
X107644587Y-49753412D01*
X107451157Y-49882658D01*
X107286658Y-50047157D01*
X107157412Y-50240587D01*
X107068386Y-50455515D01*
X107023000Y-50683682D01*
X107023000Y-50916318D01*
X107068386Y-51144485D01*
X107157412Y-51359413D01*
X107286658Y-51552843D01*
X107451157Y-51717342D01*
X107644587Y-51846588D01*
X107859515Y-51935614D01*
X108087682Y-51981000D01*
X108320318Y-51981000D01*
X108548485Y-51935614D01*
X108601898Y-51913490D01*
X110238001Y-53549593D01*
X110238001Y-53703816D01*
X110226843Y-53692658D01*
X110033413Y-53563412D01*
X109818485Y-53474386D01*
X109590318Y-53429000D01*
X109357682Y-53429000D01*
X109129515Y-53474386D01*
X108914587Y-53563412D01*
X108721157Y-53692658D01*
X108710000Y-53703815D01*
X108710000Y-53364845D01*
X108712447Y-53339999D01*
X108710000Y-53315153D01*
X108710000Y-53315146D01*
X108702678Y-53240807D01*
X108673745Y-53145425D01*
X108626759Y-53057521D01*
X108563527Y-52980473D01*
X108544220Y-52964628D01*
X106777490Y-51197898D01*
X106799614Y-51144485D01*
X106845000Y-50916318D01*
X106845000Y-50683682D01*
X106799614Y-50455515D01*
X106710588Y-50240587D01*
X106581342Y-50047157D01*
X106416843Y-49882658D01*
X106223413Y-49753412D01*
X106008485Y-49664386D01*
X105780318Y-49619000D01*
X105547682Y-49619000D01*
X105319515Y-49664386D01*
X105104587Y-49753412D01*
X104911157Y-49882658D01*
X104746658Y-50047157D01*
X104617412Y-50240587D01*
X104528386Y-50455515D01*
X104483000Y-50683682D01*
X104483000Y-50916318D01*
X104528386Y-51144485D01*
X104617412Y-51359413D01*
X104746658Y-51552843D01*
X104911157Y-51717342D01*
X105104587Y-51846588D01*
X105319515Y-51935614D01*
X105547682Y-51981000D01*
X105780318Y-51981000D01*
X106008485Y-51935614D01*
X106061898Y-51913490D01*
X107698001Y-53549593D01*
X107698001Y-53703816D01*
X107686843Y-53692658D01*
X107493413Y-53563412D01*
X107278485Y-53474386D01*
X107050318Y-53429000D01*
X106817682Y-53429000D01*
X106589515Y-53474386D01*
X106374587Y-53563412D01*
X106181157Y-53692658D01*
X106170000Y-53703815D01*
X106170000Y-53364845D01*
X106172447Y-53339999D01*
X106170000Y-53315153D01*
X106170000Y-53315146D01*
X106162678Y-53240807D01*
X106133745Y-53145425D01*
X106086759Y-53057521D01*
X106023527Y-52980473D01*
X106004220Y-52964628D01*
X104237490Y-51197898D01*
X104259614Y-51144485D01*
X104305000Y-50916318D01*
X104305000Y-50683682D01*
X104259614Y-50455515D01*
X104170588Y-50240587D01*
X104041342Y-50047157D01*
X103876843Y-49882658D01*
X103683413Y-49753412D01*
X103468485Y-49664386D01*
X103240318Y-49619000D01*
X103007682Y-49619000D01*
X102779515Y-49664386D01*
X102564587Y-49753412D01*
X102371157Y-49882658D01*
X102206658Y-50047157D01*
X102077412Y-50240587D01*
X101988386Y-50455515D01*
X101943000Y-50683682D01*
X101943000Y-50916318D01*
X101988386Y-51144485D01*
X102077412Y-51359413D01*
X102206658Y-51552843D01*
X102371157Y-51717342D01*
X102564587Y-51846588D01*
X102779515Y-51935614D01*
X103007682Y-51981000D01*
X103240318Y-51981000D01*
X103468485Y-51935614D01*
X103521898Y-51913490D01*
X105158001Y-53549593D01*
X105158001Y-53703816D01*
X105146843Y-53692658D01*
X104953413Y-53563412D01*
X104738485Y-53474386D01*
X104510318Y-53429000D01*
X104277682Y-53429000D01*
X104049515Y-53474386D01*
X103834587Y-53563412D01*
X103641157Y-53692658D01*
X103476658Y-53857157D01*
X103347412Y-54050587D01*
X103258386Y-54265515D01*
X103215125Y-54482998D01*
X103124625Y-54482998D01*
X103245909Y-54260960D01*
X103151070Y-53996119D01*
X103006385Y-53754869D01*
X102817414Y-53546481D01*
X102591420Y-53378963D01*
X102337087Y-53258754D01*
X102203039Y-53218096D01*
X101981000Y-53340085D01*
X101981000Y-54483000D01*
X102001000Y-54483000D01*
X102001000Y-54737000D01*
X101981000Y-54737000D01*
X101981000Y-55879915D01*
X102203039Y-56001904D01*
X102337087Y-55961246D01*
X102591420Y-55841037D01*
X102817414Y-55673519D01*
X103006385Y-55465131D01*
X103151070Y-55223881D01*
X103245909Y-54959040D01*
X103124625Y-54737002D01*
X103215125Y-54737002D01*
X103258386Y-54954485D01*
X103347412Y-55169413D01*
X103476658Y-55362843D01*
X103641157Y-55527342D01*
X103834587Y-55656588D01*
X104049515Y-55745614D01*
X104277682Y-55791000D01*
X104510318Y-55791000D01*
X104738485Y-55745614D01*
X104953413Y-55656588D01*
X105146843Y-55527342D01*
X105158001Y-55516184D01*
X105158000Y-61323815D01*
X105146843Y-61312658D01*
X104953413Y-61183412D01*
X104738485Y-61094386D01*
X104510318Y-61049000D01*
X104277682Y-61049000D01*
X104049515Y-61094386D01*
X103834587Y-61183412D01*
X103641157Y-61312658D01*
X103476658Y-61477157D01*
X103347412Y-61670587D01*
X103258386Y-61885515D01*
X103213000Y-62113682D01*
X103213000Y-62346318D01*
X103258386Y-62574485D01*
X103347412Y-62789413D01*
X103476658Y-62982843D01*
X103641157Y-63147342D01*
X103834587Y-63276588D01*
X104049515Y-63365614D01*
X104277682Y-63411000D01*
X104510318Y-63411000D01*
X104738485Y-63365614D01*
X104953413Y-63276588D01*
X105146843Y-63147342D01*
X105158000Y-63136185D01*
X105158000Y-63290408D01*
X104053780Y-64394629D01*
X104034474Y-64410473D01*
X103971242Y-64487521D01*
X103946127Y-64534508D01*
X103924255Y-64575426D01*
X103895322Y-64670808D01*
X103885553Y-64770000D01*
X103888001Y-64794856D01*
X103888001Y-65133816D01*
X103876843Y-65122658D01*
X103683413Y-64993412D01*
X103468485Y-64904386D01*
X103240318Y-64859000D01*
X103007682Y-64859000D01*
X102779515Y-64904386D01*
X102564587Y-64993412D01*
X102371157Y-65122658D01*
X102360000Y-65133815D01*
X102360000Y-64794845D01*
X102362447Y-64769999D01*
X102360000Y-64745153D01*
X102360000Y-64745146D01*
X102352678Y-64670807D01*
X102323745Y-64575425D01*
X102276759Y-64487521D01*
X102213527Y-64410473D01*
X102194220Y-64394628D01*
X101090000Y-63290409D01*
X101090000Y-63136185D01*
X101101157Y-63147342D01*
X101294587Y-63276588D01*
X101509515Y-63365614D01*
X101737682Y-63411000D01*
X101970318Y-63411000D01*
X102198485Y-63365614D01*
X102413413Y-63276588D01*
X102606843Y-63147342D01*
X102771342Y-62982843D01*
X102900588Y-62789413D01*
X102989614Y-62574485D01*
X103035000Y-62346318D01*
X103035000Y-62113682D01*
X102989614Y-61885515D01*
X102900588Y-61670587D01*
X102771342Y-61477157D01*
X102606843Y-61312658D01*
X102413413Y-61183412D01*
X102198485Y-61094386D01*
X101970318Y-61049000D01*
X101737682Y-61049000D01*
X101509515Y-61094386D01*
X101294587Y-61183412D01*
X101101157Y-61312658D01*
X101090000Y-61323815D01*
X101090000Y-55821335D01*
X101116580Y-55841037D01*
X101370913Y-55961246D01*
X101504961Y-56001904D01*
X101727000Y-55879915D01*
X101727000Y-54737000D01*
X101707000Y-54737000D01*
X101707000Y-54483000D01*
X101727000Y-54483000D01*
X101727000Y-53340085D01*
X101504961Y-53218096D01*
X101370913Y-53258754D01*
X101116580Y-53378963D01*
X101090000Y-53398665D01*
X101090000Y-51868712D01*
X101143413Y-51846588D01*
X101336843Y-51717342D01*
X101501342Y-51552843D01*
X101630588Y-51359413D01*
X101719614Y-51144485D01*
X101765000Y-50916318D01*
X101765000Y-50683682D01*
X101719614Y-50455515D01*
X101630588Y-50240587D01*
X101501342Y-50047157D01*
X101336843Y-49882658D01*
X101143413Y-49753412D01*
X100928485Y-49664386D01*
X100700318Y-49619000D01*
X100467682Y-49619000D01*
X100239515Y-49664386D01*
X100024587Y-49753412D01*
X99831157Y-49882658D01*
X99666658Y-50047157D01*
X99537412Y-50240587D01*
X99448386Y-50455515D01*
X99403000Y-50683682D01*
X99403000Y-50916318D01*
X99448386Y-51144485D01*
X99537412Y-51359413D01*
X99666658Y-51552843D01*
X99831157Y-51717342D01*
X100024587Y-51846588D01*
X100078001Y-51868713D01*
X100078000Y-63475154D01*
X100075553Y-63500000D01*
X100078000Y-63524846D01*
X100078000Y-63524853D01*
X100085322Y-63599192D01*
X100114255Y-63694574D01*
X100161241Y-63782479D01*
X100224473Y-63859527D01*
X100243785Y-63875376D01*
X101348001Y-64979593D01*
X101348001Y-65133816D01*
X101336843Y-65122658D01*
X101143413Y-64993412D01*
X100928485Y-64904386D01*
X100700318Y-64859000D01*
X100467682Y-64859000D01*
X100239515Y-64904386D01*
X100024587Y-64993412D01*
X99831157Y-65122658D01*
X99820000Y-65133815D01*
X99820000Y-52094845D01*
X99822447Y-52069999D01*
X99820000Y-52045153D01*
X99820000Y-52045146D01*
X99812678Y-51970807D01*
X99783745Y-51875425D01*
X99736759Y-51787521D01*
X99673527Y-51710473D01*
X99654220Y-51694628D01*
X99157490Y-51197898D01*
X99179614Y-51144485D01*
X99225000Y-50916318D01*
X99225000Y-50683682D01*
X99179614Y-50455515D01*
X99090588Y-50240587D01*
X98961342Y-50047157D01*
X98796843Y-49882658D01*
X98603413Y-49753412D01*
X98388485Y-49664386D01*
X98160318Y-49619000D01*
X97927682Y-49619000D01*
X97699515Y-49664386D01*
X97484587Y-49753412D01*
X97291157Y-49882658D01*
X97126658Y-50047157D01*
X96997412Y-50240587D01*
X96908386Y-50455515D01*
X96863000Y-50683682D01*
X96863000Y-50916318D01*
X96908386Y-51144485D01*
X96997412Y-51359413D01*
X97126658Y-51552843D01*
X97291157Y-51717342D01*
X97484587Y-51846588D01*
X97699515Y-51935614D01*
X97927682Y-51981000D01*
X98160318Y-51981000D01*
X98388485Y-51935614D01*
X98441898Y-51913490D01*
X98808001Y-52279593D01*
X98808000Y-65133815D01*
X98796843Y-65122658D01*
X98603413Y-64993412D01*
X98388485Y-64904386D01*
X98160318Y-64859000D01*
X97927682Y-64859000D01*
X97699515Y-64904386D01*
X97484587Y-64993412D01*
X97291157Y-65122658D01*
X97280000Y-65133815D01*
X97280000Y-52094845D01*
X97282447Y-52069999D01*
X97280000Y-52045153D01*
X97280000Y-52045146D01*
X97272678Y-51970807D01*
X97243745Y-51875425D01*
X97196759Y-51787521D01*
X97133527Y-51710473D01*
X97114220Y-51694628D01*
X96686843Y-51267251D01*
X96686843Y-50000000D01*
X96679487Y-49925311D01*
X96657701Y-49853492D01*
X96622322Y-49787304D01*
X96574711Y-49729289D01*
X96516696Y-49681678D01*
X96450508Y-49646299D01*
X96378689Y-49624513D01*
X96304000Y-49617157D01*
X94704000Y-49617157D01*
X94629311Y-49624513D01*
X94557492Y-49646299D01*
X94491304Y-49681678D01*
X94433289Y-49729289D01*
X94385678Y-49787304D01*
X94350299Y-49853492D01*
X94328513Y-49925311D01*
X94321157Y-50000000D01*
X94321157Y-51600000D01*
X94328513Y-51674689D01*
X94350299Y-51746508D01*
X94385678Y-51812696D01*
X94433289Y-51870711D01*
X94491304Y-51918322D01*
X94557492Y-51953701D01*
X94629311Y-51975487D01*
X94704000Y-51982843D01*
X95971251Y-51982843D01*
X96268001Y-52279593D01*
X96268000Y-65133815D01*
X96256843Y-65122658D01*
X96063413Y-64993412D01*
X95848485Y-64904386D01*
X95620318Y-64859000D01*
X95387682Y-64859000D01*
X95159515Y-64904386D01*
X94944587Y-64993412D01*
X94751157Y-65122658D01*
X94586658Y-65287157D01*
X94457412Y-65480587D01*
X94368386Y-65695515D01*
X94323000Y-65923682D01*
X94323000Y-66156318D01*
X94368386Y-66384485D01*
X94457412Y-66599413D01*
X94586658Y-66792843D01*
X94751157Y-66957342D01*
X94944587Y-67086588D01*
X95159515Y-67175614D01*
X95387682Y-67221000D01*
X95620318Y-67221000D01*
X95848485Y-67175614D01*
X96063413Y-67086588D01*
X96256843Y-66957342D01*
X96268000Y-66946185D01*
X96268000Y-73450408D01*
X95163780Y-74554629D01*
X95144474Y-74570473D01*
X95081242Y-74647521D01*
X95056127Y-74694508D01*
X95034255Y-74735426D01*
X95005322Y-74830808D01*
X94995553Y-74930000D01*
X94998001Y-74954856D01*
X94998000Y-84963000D01*
X93802200Y-84963000D01*
X93802200Y-76869859D01*
X93804272Y-76854836D01*
X93802200Y-76819945D01*
X93802200Y-76810053D01*
X93800720Y-76795031D01*
X93798340Y-76754945D01*
X93795825Y-76745321D01*
X93794849Y-76735415D01*
X93783188Y-76696974D01*
X93773035Y-76658129D01*
X93768689Y-76649179D01*
X93765801Y-76639657D01*
X93746872Y-76604243D01*
X93729329Y-76568112D01*
X93723319Y-76560179D01*
X93718629Y-76551405D01*
X93693153Y-76520362D01*
X93684039Y-76508332D01*
X93677321Y-76501071D01*
X93655148Y-76474052D01*
X93643425Y-76464431D01*
X89408000Y-71886256D01*
X89408000Y-58293000D01*
X90754653Y-58293000D01*
X90779600Y-58295457D01*
X90804547Y-58293000D01*
X90879185Y-58285649D01*
X90974943Y-58256601D01*
X91063195Y-58209429D01*
X91140548Y-58145948D01*
X91204029Y-58068595D01*
X91251201Y-57980343D01*
X91280249Y-57884585D01*
X91290057Y-57785000D01*
X91287600Y-57760053D01*
X91287600Y-53822146D01*
X91290057Y-53797200D01*
X91280249Y-53697615D01*
X91251201Y-53601857D01*
X91204029Y-53513605D01*
X91140548Y-53436252D01*
X91063195Y-53372771D01*
X90974943Y-53325599D01*
X90879185Y-53296551D01*
X90804547Y-53289200D01*
X90779600Y-53286743D01*
X90754653Y-53289200D01*
X89408000Y-53289200D01*
X89408000Y-46355000D01*
X129667001Y-46355000D01*
X129667000Y-53289200D01*
G37*
%TD.AperFunction*%
%TD*%
M02*
