M48
; DRILL file {KiCad 5.1.9+dfsg1-1+deb11u1} date Wed Sep 21 02:56:22 2022
; FORMAT={-:-/ absolute / inch / decimal}
; #@! TF.CreationDate,2022-09-21T02:56:22+02:00
; #@! TF.GenerationSoftware,Kicad,Pcbnew,5.1.9+dfsg1-1+deb11u1
; #@! TF.FileFunction,Plated,1,2,PTH
FMAT,2
INCH
T1C0.0157
T2C0.0315
T3C0.0315
%
G90
G05
T1
X4.06Y-2.5
T2
X3.76Y-2.0
X3.76Y-2.6
X3.86Y-2.0
X3.86Y-2.6
X3.96Y-2.0
X3.96Y-2.6
X4.01Y-2.15
X4.01Y-2.45
X4.06Y-2.0
X4.06Y-2.6
X4.11Y-2.15
X4.11Y-2.45
X4.16Y-2.0
X4.16Y-2.6
X4.21Y-2.15
X4.21Y-2.45
X4.26Y-2.0
X4.26Y-2.6
X4.31Y-2.15
X4.31Y-2.45
X4.36Y-2.0
X4.36Y-2.6
X4.41Y-2.15
X4.41Y-2.45
X4.46Y-2.0
X4.46Y-2.6
X4.51Y-2.15
X4.51Y-2.45
X4.56Y-2.0
X4.56Y-2.6
X4.61Y-2.15
X4.61Y-2.45
X4.66Y-2.0
X4.66Y-2.6
X4.76Y-2.0
X4.76Y-2.6
X4.86Y-2.0
X4.86Y-2.35
X4.86Y-2.6
T3
X4.86Y-2.2516
T0
M30
